STARTFONT 2.1
COMMENT 
COMMENT Converted from OpenType font "LiberationSans-Bold.ttf" by "otf2bdf 3.0".
COMMENT 
FONT -FreeType-Liberation Sans-Bold-R-Normal--26-190-100-100-P-139-ISO10646-1
SIZE 19 100 100
FONTBOUNDINGBOX 32 35 -4 -8
STARTPROPERTIES 20
FOUNDRY "FreeType"
FAMILY_NAME "Liberation Sans"
WEIGHT_NAME "Bold"
SLANT "R"
SETWIDTH_NAME "Normal"
ADD_STYLE_NAME ""
PIXEL_SIZE 26
POINT_SIZE 190
RESOLUTION_X 100
RESOLUTION_Y 100
SPACING "P"
AVERAGE_WIDTH 139
CHARSET_REGISTRY "ISO10646"
CHARSET_ENCODING "1"
FONT_ASCENT 23
FONT_DESCENT 5
COPYRIGHT "Copyright © 2007 Red Hat, Inc. All rights reserved. LIBERATION is a trademark of Red Hat, Inc."
_OTF_FONTFILE "LiberationSans-Bold.ttf"
_OTF_PSNAME "LiberationSans-Bold"
_GBDFED_INFO "Edited with gbdfed 1.6."
ENDPROPERTIES
CHARS 661
STARTCHAR 0020
ENCODING 32
SWIDTH 492 0
DWIDTH 13 0
BBX 0 0 0 0
BITMAP
ENDCHAR
STARTCHAR 0021
ENCODING 33
SWIDTH 341 0
DWIDTH 9 0
BBX 4 18 2 0
BITMAP
F0
70
70
70
70
70
70
70
70
70
70
70
00
00
F0
F0
F0
F0
ENDCHAR
STARTCHAR 0022
ENCODING 34
SWIDTH 454 0
DWIDTH 12 0
BBX 9 6 2 12
BITMAP
E780
E780
E700
E700
E700
E700
ENDCHAR
STARTCHAR 0023
ENCODING 35
SWIDTH 530 0
DWIDTH 14 0
BBX 14 18 0 0
BITMAP
0618
0618
0618
0C30
0C30
7FFC
7FFC
0C60
1860
1860
1860
FFF8
FFF8
30C0
30C0
30C0
30C0
6180
ENDCHAR
STARTCHAR 0024
ENCODING 36
SWIDTH 530 0
DWIDTH 14 0
BBX 13 21 1 -2
BITMAP
0200
0200
1FC0
7FE0
FFF0
F2F0
E278
E200
FE00
7FC0
3FE0
07F0
0278
E238
E238
F278
FFF8
7FF0
1FC0
0200
0200
ENDCHAR
STARTCHAR 0025
ENCODING 37
SWIDTH 871 0
DWIDTH 23 0
BBX 21 18 1 0
BITMAP
3E0180
7F0380
E70700
E30600
C38E00
C39C00
C39C00
E339E0
E737F0
7F7738
3CE618
00CE18
01CE18
038E18
030638
070738
0E07F0
0C01E0
ENDCHAR
STARTCHAR 0026
ENCODING 38
SWIDTH 720 0
DWIDTH 19 0
BBX 17 18 1 0
BITMAP
03E000
0FF000
0FF800
0E3800
0C3800
0E7000
0FE000
0F8000
3F0600
7F8600
738E00
F1CE00
E1FC00
F0FC00
F87C00
7FFF80
3FFF80
1F8780
ENDCHAR
STARTCHAR 0027
ENCODING 39
SWIDTH 227 0
DWIDTH 6 0
BBX 4 6 1 12
BITMAP
F0
F0
70
70
70
70
ENDCHAR
STARTCHAR 0028
ENCODING 40
SWIDTH 341 0
DWIDTH 9 0
BBX 7 25 1 -6
BITMAP
0E
1E
1C
3C
38
78
78
70
70
F0
F0
F0
F0
F0
F0
F0
70
70
78
78
38
3C
1C
1E
0E
ENDCHAR
STARTCHAR 0029
ENCODING 41
SWIDTH 341 0
DWIDTH 9 0
BBX 7 25 0 -6
BITMAP
F0
78
78
3C
3C
1C
1E
1E
0E
0E
0E
0E
0E
0E
0E
0E
0E
1E
1E
1C
3C
3C
78
78
F0
ENDCHAR
STARTCHAR 002A
ENCODING 42
SWIDTH 378 0
DWIDTH 10 0
BBX 10 10 0 8
BITMAP
0C00
0C00
4C00
7FC0
FFC0
1E00
3F00
3B80
7380
2100
ENDCHAR
STARTCHAR 002B
ENCODING 43
SWIDTH 568 0
DWIDTH 15 0
BBX 13 13 1 2
BITMAP
0700
0700
0700
0700
0700
FFF8
FFF8
FFF8
0700
0700
0700
0700
0700
ENDCHAR
STARTCHAR 002C
ENCODING 44
SWIDTH 265 0
DWIDTH 7 0
BBX 3 8 2 -4
BITMAP
E0
E0
E0
E0
60
60
60
C0
ENDCHAR
STARTCHAR 002D
ENCODING 45
SWIDTH 341 0
DWIDTH 9 0
BBX 7 3 1 5
BITMAP
FE
FE
FE
ENDCHAR
STARTCHAR 002E
ENCODING 46
SWIDTH 265 0
DWIDTH 7 0
BBX 3 4 2 0
BITMAP
E0
E0
E0
E0
ENDCHAR
STARTCHAR 002F
ENCODING 47
SWIDTH 265 0
DWIDTH 7 0
BBX 7 20 0 -1
BITMAP
0E
0E
1E
1C
1C
1C
1C
1C
38
38
38
38
38
78
70
70
70
70
70
E0
ENDCHAR
STARTCHAR 0030
ENCODING 48
SWIDTH 492 0
DWIDTH 13 0
BBX 12 18 1 0
BITMAP
0F00
3FC0
7FE0
70E0
E070
E070
E070
E070
E070
E070
E070
E070
E070
E070
70E0
7FE0
3FC0
0F00
ENDCHAR
STARTCHAR 0031
ENCODING 49
SWIDTH 492 0
DWIDTH 13 0
BBX 7 18 4 0
BITMAP
0E
0E
1E
3E
FE
FE
0E
0E
0E
0E
0E
0E
0E
0E
0E
0E
0E
0E
ENDCHAR
STARTCHAR 0032
ENCODING 50
SWIDTH 492 0
DWIDTH 13 0
BBX 12 18 1 0
BITMAP
1F80
3FE0
7FF0
F0F0
F0F0
00F0
00F0
01E0
03E0
07C0
0F80
1F00
3C00
7800
F000
FFF0
FFF0
FFF0
ENDCHAR
STARTCHAR 0033
ENCODING 51
SWIDTH 492 0
DWIDTH 13 0
BBX 12 18 1 0
BITMAP
1F80
3FE0
7FF0
F0F0
F0F0
00F0
00F0
0FE0
0F80
0FE0
00F0
0070
0070
E070
F0F0
FFF0
7FE0
1F80
ENDCHAR
STARTCHAR 0034
ENCODING 52
SWIDTH 492 0
DWIDTH 13 0
BBX 12 18 1 0
BITMAP
01C0
01C0
03C0
07C0
07C0
0FC0
0FC0
1DC0
39C0
39C0
71C0
71C0
FFF0
FFF0
FFF0
01C0
01C0
01C0
ENDCHAR
STARTCHAR 0035
ENCODING 53
SWIDTH 492 0
DWIDTH 13 0
BBX 12 18 1 0
BITMAP
FFE0
FFE0
FFE0
E000
E000
E000
EF80
FFC0
FFE0
F0F0
0070
0070
0070
F070
F0F0
7FE0
7FC0
1F80
ENDCHAR
STARTCHAR 0036
ENCODING 54
SWIDTH 492 0
DWIDTH 13 0
BBX 12 18 1 0
BITMAP
0F80
3FE0
3FE0
78F0
7070
F000
E000
E780
EFC0
FFE0
F8F0
F070
F070
F070
78F0
7FE0
3FC0
0F80
ENDCHAR
STARTCHAR 0037
ENCODING 55
SWIDTH 492 0
DWIDTH 13 0
BBX 12 18 1 0
BITMAP
FFF0
FFF0
FFF0
0070
00E0
01E0
01C0
03C0
0780
0700
0F00
0F00
0E00
1E00
1E00
1E00
1C00
1C00
ENDCHAR
STARTCHAR 0038
ENCODING 56
SWIDTH 492 0
DWIDTH 13 0
BBX 12 18 1 0
BITMAP
1F80
7FE0
7FF0
F8F0
F070
F070
78F0
3FE0
1F80
7FE0
F0F0
E070
E070
E070
F0F0
7FE0
7FE0
1F80
ENDCHAR
STARTCHAR 0039
ENCODING 57
SWIDTH 492 0
DWIDTH 13 0
BBX 12 18 1 0
BITMAP
1F80
7FC0
7FE0
F0F0
E070
E070
E070
F0F0
7FF0
7FF0
1E70
0070
0070
E0F0
F1E0
7FE0
3FC0
1F80
ENDCHAR
STARTCHAR 003A
ENCODING 58
SWIDTH 265 0
DWIDTH 7 0
BBX 4 14 2 0
BITMAP
F0
F0
F0
F0
00
00
00
00
00
00
F0
F0
F0
F0
ENDCHAR
STARTCHAR 003B
ENCODING 59
SWIDTH 341 0
DWIDTH 9 0
BBX 3 18 3 -4
BITMAP
E0
E0
E0
E0
00
00
00
00
00
00
E0
E0
E0
E0
60
60
E0
C0
ENDCHAR
STARTCHAR 003C
ENCODING 60
SWIDTH 568 0
DWIDTH 15 0
BBX 13 14 1 2
BITMAP
0008
0078
03F8
0FF0
7F80
FE00
F000
F000
FE00
7F80
0FF0
03F8
0078
0008
ENDCHAR
STARTCHAR 003D
ENCODING 61
SWIDTH 568 0
DWIDTH 15 0
BBX 13 10 1 4
BITMAP
FFF8
FFF8
FFF8
0000
0000
0000
0000
FFF8
FFF8
FFF8
ENDCHAR
STARTCHAR 003E
ENCODING 62
SWIDTH 568 0
DWIDTH 15 0
BBX 13 14 1 2
BITMAP
8000
F000
FE00
7FC0
0FF0
01F8
0078
0078
01F8
0FF0
7FC0
FE00
F000
8000
ENDCHAR
STARTCHAR 003F
ENCODING 63
SWIDTH 606 0
DWIDTH 16 0
BBX 13 18 1 0
BITMAP
0FC0
3FF0
7FF8
7878
F038
F038
0078
00F0
01E0
03C0
0780
0700
0000
0000
0700
0700
0700
0700
ENDCHAR
STARTCHAR 0040
ENCODING 64
SWIDTH 947 0
DWIDTH 25 0
BBX 23 22 1 -4
BITMAP
007F80
01FFE0
0780F0
0E0038
1C001C
383CCC
30FECE
71C386
618386
630186
630386
E30306
E3030C
63070C
638F18
61FBF0
70F1E0
300000
180040
1E03E0
07FF80
01FE00
ENDCHAR
STARTCHAR 0041
ENCODING 65
SWIDTH 720 0
DWIDTH 19 0
BBX 17 18 1 0
BITMAP
03E000
03E000
07F000
077000
077000
0F7800
0E7800
1E3800
1E3C00
1C3C00
3C1C00
3FFE00
3FFE00
7FFE00
780F00
700F00
F00780
F00780
ENDCHAR
STARTCHAR 0042
ENCODING 66
SWIDTH 720 0
DWIDTH 19 0
BBX 16 18 2 0
BITMAP
FFF0
FFF8
FFFC
E03C
E01E
E01C
E03C
FFF8
FFF0
FFFC
E01E
E00E
E00F
E00F
E01E
FFFE
FFFC
FFF0
ENDCHAR
STARTCHAR 0043
ENCODING 67
SWIDTH 720 0
DWIDTH 19 0
BBX 17 18 1 0
BITMAP
07F000
1FFC00
3FFE00
7E1F00
780780
F80600
F00000
F00000
F00000
F00000
F00000
F00000
780200
780780
3E1F00
3FFF00
1FFC00
07F000
ENDCHAR
STARTCHAR 0044
ENCODING 68
SWIDTH 720 0
DWIDTH 19 0
BBX 16 18 2 0
BITMAP
FFC0
FFF0
FFF8
E07C
E03E
E01E
E00E
E00F
E00F
E00F
E00F
E00E
E01E
E03E
E07C
FFF8
FFF0
FFC0
ENDCHAR
STARTCHAR 0045
ENCODING 69
SWIDTH 644 0
DWIDTH 17 0
BBX 14 18 2 0
BITMAP
FFFC
FFFC
FFFC
E000
E000
E000
E000
FFF8
FFF8
FFF8
E000
E000
E000
E000
E000
FFFC
FFFC
FFFC
ENDCHAR
STARTCHAR 0046
ENCODING 70
SWIDTH 606 0
DWIDTH 16 0
BBX 13 18 2 0
BITMAP
FFF8
FFF8
FFF8
E000
E000
E000
E000
FFF8
FFF8
FFF8
E000
E000
E000
E000
E000
E000
E000
E000
ENDCHAR
STARTCHAR 0047
ENCODING 71
SWIDTH 757 0
DWIDTH 20 0
BBX 18 18 1 0
BITMAP
03F800
1FFE00
3FFF00
7E0F80
780780
780200
F00000
F00000
F03FC0
F03FC0
F03FC0
F003C0
7803C0
7803C0
7E0FC0
3FFF80
1FFE00
03F800
ENDCHAR
STARTCHAR 0048
ENCODING 72
SWIDTH 720 0
DWIDTH 19 0
BBX 15 18 2 0
BITMAP
E01E
E01E
E01E
E01E
E01E
E01E
E01E
FFFE
FFFE
FFFE
E01E
E01E
E01E
E01E
E01E
E01E
E01E
E01E
ENDCHAR
STARTCHAR 0049
ENCODING 73
SWIDTH 265 0
DWIDTH 7 0
BBX 3 18 2 0
BITMAP
E0
E0
E0
E0
E0
E0
E0
E0
E0
E0
E0
E0
E0
E0
E0
E0
E0
E0
ENDCHAR
STARTCHAR 004A
ENCODING 74
SWIDTH 530 0
DWIDTH 14 0
BBX 12 18 1 0
BITMAP
0FF0
0FF0
0FF0
00F0
00F0
00F0
00F0
00F0
00F0
00F0
00F0
00F0
E0F0
F0F0
F1E0
FFE0
7FC0
1F80
ENDCHAR
STARTCHAR 004B
ENCODING 75
SWIDTH 720 0
DWIDTH 19 0
BBX 16 18 2 0
BITMAP
E01E
E03C
E078
E0F0
E1E0
E3C0
E780
EF00
FF80
FFC0
FBE0
E1E0
E0F0
E078
E07C
E03E
E01E
E00F
ENDCHAR
STARTCHAR 004C
ENCODING 76
SWIDTH 606 0
DWIDTH 16 0
BBX 13 18 2 0
BITMAP
E000
E000
E000
E000
E000
E000
E000
E000
E000
E000
E000
E000
E000
E000
E000
FFF8
FFF8
FFF8
ENDCHAR
STARTCHAR 004D
ENCODING 77
SWIDTH 833 0
DWIDTH 22 0
BBX 18 18 2 0
BITMAP
F807C0
F80FC0
FC0FC0
FC0FC0
FC1DC0
EE1DC0
EE1DC0
EE19C0
EF39C0
E739C0
E739C0
E771C0
E3F1C0
E3F1C0
E3E1C0
E1E1C0
E1E1C0
E1C1C0
ENDCHAR
STARTCHAR 004E
ENCODING 78
SWIDTH 720 0
DWIDTH 19 0
BBX 15 18 2 0
BITMAP
F00E
F80E
F80E
FC0E
FE0E
EE0E
EF0E
E70E
E78E
E38E
E3CE
E1EE
E0EE
E0FE
E07E
E07E
E03E
E03E
ENDCHAR
STARTCHAR 004F
ENCODING 79
SWIDTH 757 0
DWIDTH 20 0
BBX 18 18 1 0
BITMAP
03F000
0FFE00
3FFF00
7E1F80
780780
7803C0
F003C0
F003C0
F003C0
F003C0
F003C0
F003C0
7803C0
780780
3E0F80
3FFF00
0FFE00
03F800
ENDCHAR
STARTCHAR 0050
ENCODING 80
SWIDTH 644 0
DWIDTH 17 0
BBX 14 18 2 0
BITMAP
FFE0
FFF8
FFFC
E03C
E01C
E01C
E03C
E03C
FFFC
FFF8
FFE0
E000
E000
E000
E000
E000
E000
E000
ENDCHAR
STARTCHAR 0051
ENCODING 81
SWIDTH 757 0
DWIDTH 20 0
BBX 18 23 1 -5
BITMAP
03F000
0FFE00
3FFF00
3E1F80
780780
7803C0
F003C0
F003C0
F003C0
F003C0
F003C0
F003C0
7803C0
780780
7E0F80
3FFF00
1FFE00
07F800
00F000
00F800
007F00
007F00
001F00
ENDCHAR
STARTCHAR 0052
ENCODING 82
SWIDTH 720 0
DWIDTH 19 0
BBX 16 18 2 0
BITMAP
FFF0
FFFC
FFFE
E01E
E00E
E01E
E01E
FFFC
FFF8
FFF0
E0F0
E078
E078
E03C
E03C
E01E
E01E
E00F
ENDCHAR
STARTCHAR 0053
ENCODING 83
SWIDTH 644 0
DWIDTH 17 0
BBX 15 18 1 0
BITMAP
0FF0
3FF8
7FFC
783E
701E
7000
7C00
7F80
3FF8
0FFC
007E
001E
000E
F00E
F81E
7FFE
3FFC
0FF0
ENDCHAR
STARTCHAR 0054
ENCODING 84
SWIDTH 606 0
DWIDTH 16 0
BBX 16 18 0 0
BITMAP
FFFF
FFFF
FFFF
03C0
03C0
03C0
03C0
03C0
03C0
03C0
03C0
03C0
03C0
03C0
03C0
03C0
03C0
03C0
ENDCHAR
STARTCHAR 0055
ENCODING 85
SWIDTH 720 0
DWIDTH 19 0
BBX 15 18 2 0
BITMAP
E01E
E01E
E01E
E01E
E01E
E01E
E01E
E01E
E01E
E01E
E01E
E01E
F01E
F01E
F87C
7FFC
3FF8
0FE0
ENDCHAR
STARTCHAR 0056
ENCODING 86
SWIDTH 644 0
DWIDTH 17 0
BBX 17 18 0 0
BITMAP
F00780
780780
780F00
780F00
3C0F00
3C0E00
1C1E00
1C1C00
1E1C00
0E3C00
0E3800
0F3800
077800
077000
03F000
03F000
03E000
01E000
ENDCHAR
STARTCHAR 0057
ENCODING 87
SWIDTH 947 0
DWIDTH 25 0
BBX 24 18 0 0
BITMAP
F03E07
F03E0F
703E0F
787E0F
787F0E
78771E
38771E
3CF71E
3CE71C
3CE79C
1CE3BC
1CE3BC
1FC3B8
1FC3B8
0FC1F8
0FC1F8
0F81F0
0781F0
ENDCHAR
STARTCHAR 0058
ENCODING 88
SWIDTH 644 0
DWIDTH 17 0
BBX 16 18 1 0
BITMAP
F01E
781E
783C
3C78
1E78
1EF0
0FE0
07E0
07C0
07E0
0FE0
1EF0
1E78
3C78
383C
781E
F01E
F00F
ENDCHAR
STARTCHAR 0059
ENCODING 89
SWIDTH 644 0
DWIDTH 17 0
BBX 16 18 1 0
BITMAP
F00F
F01E
781C
783C
3C38
1C78
1EF0
0EF0
0FE0
07C0
03C0
03C0
03C0
03C0
03C0
03C0
03C0
03C0
ENDCHAR
STARTCHAR 005A
ENCODING 90
SWIDTH 606 0
DWIDTH 16 0
BBX 14 18 1 0
BITMAP
7FFC
7FFC
7FFC
0078
00F0
01E0
01E0
03C0
0780
0F00
0E00
1E00
3C00
7800
F000
FFFC
FFFC
FFFC
ENDCHAR
STARTCHAR 005B
ENCODING 91
SWIDTH 341 0
DWIDTH 9 0
BBX 7 25 1 -6
BITMAP
FE
FE
F0
F0
F0
F0
F0
F0
F0
F0
F0
F0
F0
F0
F0
F0
F0
F0
F0
F0
F0
F0
F0
FE
FE
ENDCHAR
STARTCHAR 005C
ENCODING 92
SWIDTH 265 0
DWIDTH 7 0
BBX 7 20 0 -1
BITMAP
E0
70
70
70
70
70
70
38
38
38
38
38
1C
1C
1C
1C
1C
1E
0E
0E
ENDCHAR
STARTCHAR 005D
ENCODING 93
SWIDTH 341 0
DWIDTH 9 0
BBX 7 25 0 -6
BITMAP
FE
FE
0E
0E
0E
0E
0E
0E
0E
0E
0E
0E
0E
0E
0E
0E
0E
0E
0E
0E
0E
0E
0E
FE
FE
ENDCHAR
STARTCHAR 005E
ENCODING 94
SWIDTH 568 0
DWIDTH 15 0
BBX 13 11 1 7
BITMAP
0F80
0F80
1DC0
1DC0
38E0
38E0
3070
7070
7030
E038
E038
ENDCHAR
STARTCHAR 005F
ENCODING 95
SWIDTH 530 0
DWIDTH 14 0
BBX 15 1 0 -3
BITMAP
FFFE
ENDCHAR
STARTCHAR 0060
ENCODING 96
SWIDTH 341 0
DWIDTH 9 0
BBX 6 4 1 15
BITMAP
F0
70
38
0C
ENDCHAR
STARTCHAR 0061
ENCODING 97
SWIDTH 530 0
DWIDTH 14 0
BBX 14 14 1 0
BITMAP
1F80
3FE0
7FE0
F0F0
00F0
3FF0
7FF0
FFF0
F0F0
F0F0
F1F0
FF7C
7F7C
3C3C
ENDCHAR
STARTCHAR 0062
ENCODING 98
SWIDTH 606 0
DWIDTH 16 0
BBX 13 19 2 0
BITMAP
E000
E000
E000
E000
E000
E7C0
EFE0
FFF0
F8F0
F078
E078
E078
E078
E078
F078
F8F0
FFF0
EFE0
E7C0
ENDCHAR
STARTCHAR 0063
ENCODING 99
SWIDTH 530 0
DWIDTH 14 0
BBX 13 14 1 0
BITMAP
0F80
3FE0
7FF0
78F0
F078
F000
F000
F000
F000
F078
78F0
7FF0
3FE0
0F80
ENDCHAR
STARTCHAR 0064
ENCODING 100
SWIDTH 606 0
DWIDTH 16 0
BBX 13 19 1 0
BITMAP
0078
0078
0078
0078
0078
1F78
3FB8
7FF8
78F8
F078
F078
F038
F038
F078
F078
78F8
7FF8
3FB8
1F38
ENDCHAR
STARTCHAR 0065
ENCODING 101
SWIDTH 530 0
DWIDTH 14 0
BBX 13 14 1 0
BITMAP
0F80
3FE0
7FE0
78F0
F070
FFF0
FFF8
FFF8
F000
F000
7870
7FF0
3FE0
0F80
ENDCHAR
STARTCHAR 0066
ENCODING 102
SWIDTH 341 0
DWIDTH 9 0
BBX 9 19 0 0
BITMAP
0F80
1F80
1F80
3C00
3C00
FF80
FF80
FF80
3C00
3C00
3C00
3C00
3C00
3C00
3C00
3C00
3C00
3C00
3C00
ENDCHAR
STARTCHAR 0067
ENCODING 103
SWIDTH 606 0
DWIDTH 16 0
BBX 13 20 1 -6
BITMAP
1F38
3FB8
7FF8
78F8
F078
F078
F038
F038
F078
F078
78F8
7FF8
3FB8
1F38
0078
0078
78F8
7FF0
3FE0
1FC0
ENDCHAR
STARTCHAR 0068
ENCODING 104
SWIDTH 606 0
DWIDTH 16 0
BBX 12 19 2 0
BITMAP
E000
E000
E000
E000
E000
E3C0
EFE0
EFF0
F8F0
F0F0
F070
E070
E070
E070
E070
E070
E070
E070
E070
ENDCHAR
STARTCHAR 0069
ENCODING 105
SWIDTH 265 0
DWIDTH 7 0
BBX 3 19 2 0
BITMAP
E0
E0
E0
00
00
E0
E0
E0
E0
E0
E0
E0
E0
E0
E0
E0
E0
E0
E0
ENDCHAR
STARTCHAR 006A
ENCODING 106
SWIDTH 265 0
DWIDTH 7 0
BBX 5 25 0 -6
BITMAP
38
38
38
00
00
38
38
38
38
38
38
38
38
38
38
38
38
38
38
38
38
38
F8
F8
F0
ENDCHAR
STARTCHAR 006B
ENCODING 107
SWIDTH 530 0
DWIDTH 14 0
BBX 12 19 2 0
BITMAP
E000
E000
E000
E000
E000
E0F0
E1E0
E3C0
E780
E700
EE00
FF00
FF00
F780
E3C0
E1C0
E1E0
E0F0
E0F0
ENDCHAR
STARTCHAR 006C
ENCODING 108
SWIDTH 265 0
DWIDTH 7 0
BBX 3 19 2 0
BITMAP
E0
E0
E0
E0
E0
E0
E0
E0
E0
E0
E0
E0
E0
E0
E0
E0
E0
E0
E0
ENDCHAR
STARTCHAR 006D
ENCODING 109
SWIDTH 871 0
DWIDTH 23 0
BBX 20 14 2 0
BITMAP
E78780
EFEFE0
EFFFE0
F9F9E0
F0F0E0
F0F0F0
E0E0F0
E0E0F0
E0E0F0
E0E0F0
E0E0F0
E0E0F0
E0E0F0
E0E0F0
ENDCHAR
STARTCHAR 006E
ENCODING 110
SWIDTH 606 0
DWIDTH 16 0
BBX 12 14 2 0
BITMAP
E3C0
EFE0
EFF0
F8F0
F0F0
F070
E070
E070
E070
E070
E070
E070
E070
E070
ENDCHAR
STARTCHAR 006F
ENCODING 111
SWIDTH 606 0
DWIDTH 16 0
BBX 14 14 1 0
BITMAP
0FC0
3FF0
7FF8
7878
F03C
F03C
F03C
F03C
F03C
F03C
7878
7FF8
3FF0
0FC0
ENDCHAR
STARTCHAR 0070
ENCODING 112
SWIDTH 606 0
DWIDTH 16 0
BBX 13 20 2 -6
BITMAP
E7C0
EFE0
FFF0
F8F0
F078
E078
E078
E078
E078
F078
F8F0
FFF0
EFE0
E7C0
E000
E000
E000
E000
E000
E000
ENDCHAR
STARTCHAR 0071
ENCODING 113
SWIDTH 606 0
DWIDTH 16 0
BBX 13 20 1 -6
BITMAP
1F38
3FB8
7FF8
78F8
F078
F078
F038
F038
F078
F078
78F8
7FF8
3FB8
1F38
0038
0038
0038
0038
0038
0038
ENDCHAR
STARTCHAR 0072
ENCODING 114
SWIDTH 378 0
DWIDTH 10 0
BBX 8 14 2 0
BITMAP
E7
EF
EF
F8
F0
F0
E0
E0
E0
E0
E0
E0
E0
E0
ENDCHAR
STARTCHAR 0073
ENCODING 115
SWIDTH 530 0
DWIDTH 14 0
BBX 12 14 1 0
BITMAP
1F80
7FE0
7FF0
F070
F000
7E00
7FC0
1FF0
01F0
0070
E070
FFF0
7FE0
1F80
ENDCHAR
STARTCHAR 0074
ENCODING 116
SWIDTH 341 0
DWIDTH 9 0
BBX 8 17 0 0
BITMAP
1C
1C
3C
FF
FF
FF
3C
3C
3C
3C
3C
3C
3C
3C
3F
3F
1F
ENDCHAR
STARTCHAR 0075
ENCODING 117
SWIDTH 606 0
DWIDTH 16 0
BBX 12 14 2 0
BITMAP
E0F0
E0F0
E0F0
E0F0
E0F0
E0F0
E0F0
E0F0
E0F0
E0F0
F1F0
FF70
7E70
3C70
ENDCHAR
STARTCHAR 0076
ENCODING 118
SWIDTH 530 0
DWIDTH 14 0
BBX 14 14 0 0
BITMAP
F03C
703C
7838
7838
3878
3C70
3C70
1CF0
1CE0
1EE0
0FE0
0FC0
0FC0
0780
ENDCHAR
STARTCHAR 0077
ENCODING 119
SWIDTH 757 0
DWIDTH 20 0
BBX 20 14 0 0
BITMAP
E0F070
F0F070
70F8F0
71F8E0
71D8E0
7198E0
399CE0
3B9DC0
3B8DC0
3B0DC0
1B0FC0
1F0F80
1F0780
1E0780
ENDCHAR
STARTCHAR 0078
ENCODING 120
SWIDTH 530 0
DWIDTH 14 0
BBX 13 14 1 0
BITMAP
F078
F0F0
78E0
3DC0
1FC0
1F80
0F00
0F80
1F80
3FC0
39E0
78F0
F0F0
E078
ENDCHAR
STARTCHAR 0079
ENCODING 121
SWIDTH 530 0
DWIDTH 14 0
BBX 14 19 0 -5
BITMAP
F03C
703C
7838
3878
3878
3C70
1C70
1CF0
0EE0
0EE0
07C0
07C0
07C0
0780
0780
0F00
7F00
7E00
7C00
ENDCHAR
STARTCHAR 007A
ENCODING 122
SWIDTH 492 0
DWIDTH 13 0
BBX 11 14 1 0
BITMAP
FFE0
FFE0
FFE0
03C0
0780
0780
0F00
1E00
3C00
7800
F000
FFE0
FFE0
FFE0
ENDCHAR
STARTCHAR 007B
ENCODING 123
SWIDTH 378 0
DWIDTH 10 0
BBX 10 25 0 -6
BITMAP
07C0
0FC0
1E00
1E00
1E00
1E00
1E00
1E00
1E00
1E00
3C00
F800
F800
3C00
1E00
1E00
1E00
1E00
1E00
1E00
1E00
1E00
0E00
0FC0
07C0
ENDCHAR
STARTCHAR 007C
ENCODING 124
SWIDTH 265 0
DWIDTH 7 0
BBX 3 25 2 -6
BITMAP
E0
E0
E0
E0
E0
E0
E0
E0
E0
E0
E0
E0
E0
E0
E0
E0
E0
E0
E0
E0
E0
E0
E0
E0
E0
ENDCHAR
STARTCHAR 007D
ENCODING 125
SWIDTH 378 0
DWIDTH 10 0
BBX 9 25 1 -6
BITMAP
F000
F800
3C00
3C00
3C00
3C00
3C00
3C00
3C00
1C00
1E00
0F80
0F80
1E00
1C00
3C00
3C00
3C00
3C00
3C00
3C00
3C00
3C00
F800
F000
ENDCHAR
STARTCHAR 007E
ENCODING 126
SWIDTH 568 0
DWIDTH 15 0
BBX 13 5 1 7
BITMAP
7C00
FF08
FFF8
87F8
00F0
ENDCHAR
STARTCHAR 00A0
ENCODING 160
SWIDTH 265 0
DWIDTH 7 0
BBX 0 0 0 0
BITMAP
ENDCHAR
STARTCHAR 00A1
ENCODING 161
SWIDTH 341 0
DWIDTH 9 0
BBX 4 18 2 -4
BITMAP
70
70
70
70
00
00
70
70
70
70
70
70
70
70
70
70
70
F0
ENDCHAR
STARTCHAR 00A2
ENCODING 162
SWIDTH 530 0
DWIDTH 14 0
BBX 13 18 1 0
BITMAP
0600
0600
0700
3FE0
7FF0
F6F0
F678
E600
E600
E600
E600
F678
F670
7FF0
3FE0
0F80
0600
0600
ENDCHAR
STARTCHAR 00A3
ENCODING 163
SWIDTH 530 0
DWIDTH 14 0
BBX 14 18 0 0
BITMAP
07E0
0FF0
1FF8
1E38
1C00
1C00
1C00
1C00
FF80
FF80
FF80
1C00
1C00
381C
703C
FFFC
FFF8
FFE0
ENDCHAR
STARTCHAR 00A4
ENCODING 164
SWIDTH 530 0
DWIDTH 14 0
BBX 12 13 1 2
BITMAP
4020
EFF0
FFF0
7FE0
78E0
7070
7070
7070
78E0
7FE0
FFF0
EFF0
4020
ENDCHAR
STARTCHAR 00A5
ENCODING 165
SWIDTH 530 0
DWIDTH 14 0
BBX 14 18 0 0
BITMAP
F03C
703C
7878
3878
3C70
1CF0
1EE0
0FE0
0FC0
7FF8
7FF8
0380
0780
7FF8
7FF8
0780
0780
0780
ENDCHAR
STARTCHAR 00A6
ENCODING 166
SWIDTH 265 0
DWIDTH 7 0
BBX 3 25 2 -6
BITMAP
E0
E0
E0
E0
E0
E0
E0
E0
E0
E0
00
00
00
00
00
E0
E0
E0
E0
E0
E0
E0
E0
E0
E0
ENDCHAR
STARTCHAR 00A7
ENCODING 167
SWIDTH 530 0
DWIDTH 14 0
BBX 12 21 1 -3
BITMAP
1F80
7FE0
70F0
F070
7000
7C00
3FC0
3FE0
71F0
E070
E070
F070
7FE0
3FC0
07E0
00F0
0070
E070
F070
7FE0
3F80
ENDCHAR
STARTCHAR 00A8
ENCODING 168
SWIDTH 341 0
DWIDTH 9 0
BBX 8 3 0 16
BITMAP
E3
E3
E3
ENDCHAR
STARTCHAR 00A9
ENCODING 169
SWIDTH 720 0
DWIDTH 19 0
BBX 19 18 0 0
BITMAP
01F800
0E0E00
180300
31F180
23F8C0
670C40
460040
460060
C60060
C60060
460060
460840
671C40
23F8C0
31F180
180300
0E0E00
01F800
ENDCHAR
STARTCHAR 00AA
ENCODING 170
SWIDTH 378 0
DWIDTH 10 0
BBX 9 10 1 8
BITMAP
7C00
FE00
C600
0600
7E00
FE00
C600
CE00
FF80
7380
ENDCHAR
STARTCHAR 00AB
ENCODING 171
SWIDTH 530 0
DWIDTH 14 0
BBX 12 11 1 1
BITMAP
1C70
3CF0
38E0
79C0
73C0
E380
73C0
79C0
38E0
3CF0
1C70
ENDCHAR
STARTCHAR 00AC
ENCODING 172
SWIDTH 568 0
DWIDTH 15 0
BBX 13 8 1 2
BITMAP
FFF8
FFF8
FFF8
0038
0038
0038
0038
0038
ENDCHAR
STARTCHAR 00AD
ENCODING 173
SWIDTH 341 0
DWIDTH 9 0
BBX 7 3 1 5
BITMAP
FE
FE
FE
ENDCHAR
STARTCHAR 00AE
ENCODING 174
SWIDTH 720 0
DWIDTH 19 0
BBX 19 18 0 0
BITMAP
01F800
0E0E00
180300
33F180
23F8C0
631C40
431C40
431C60
C31C60
C3F860
43F060
433040
633840
2318C0
331D80
180300
0E0E00
01F800
ENDCHAR
STARTCHAR 00AF
ENCODING 175
SWIDTH 530 0
DWIDTH 14 0
BBX 15 1 0 18
BITMAP
FFFE
ENDCHAR
STARTCHAR 00B0
ENCODING 176
SWIDTH 378 0
DWIDTH 10 0
BBX 8 8 1 10
BITMAP
3C
7E
E3
C3
C3
E3
7E
3C
ENDCHAR
STARTCHAR 00B1
ENCODING 177
SWIDTH 530 0
DWIDTH 14 0
BBX 13 16 1 0
BITMAP
0700
0700
0700
0700
FFF8
FFF8
FFF8
0700
0700
0700
0700
0000
0000
FFF8
FFF8
FFF8
ENDCHAR
STARTCHAR 00B2
ENCODING 178
SWIDTH 341 0
DWIDTH 9 0
BBX 7 10 1 8
BITMAP
7C
FE
CE
0E
0C
38
70
E0
FE
FE
ENDCHAR
STARTCHAR 00B3
ENCODING 179
SWIDTH 341 0
DWIDTH 9 0
BBX 7 10 1 8
BITMAP
7C
FE
CE
0E
3C
3C
06
C6
FE
7C
ENDCHAR
STARTCHAR 00B4
ENCODING 180
SWIDTH 341 0
DWIDTH 9 0
BBX 7 4 1 15
BITMAP
1E
38
70
E0
ENDCHAR
STARTCHAR 00B5
ENCODING 181
SWIDTH 568 0
DWIDTH 15 0
BBX 11 20 2 -6
BITMAP
E0E0
E0E0
E0E0
E0E0
E0E0
E0E0
E0E0
E0E0
E0E0
E1E0
F1E0
FFE0
FFE0
EEE0
E000
E000
E000
E000
E000
E000
ENDCHAR
STARTCHAR 00B6
ENCODING 182
SWIDTH 530 0
DWIDTH 14 0
BBX 13 21 1 -3
BITMAP
3FF8
7FF8
FC60
FC60
FC60
FC60
FC60
7C60
3C60
0460
0460
0460
0460
0460
0460
0460
0460
0460
0460
0460
0460
ENDCHAR
STARTCHAR 00B7
ENCODING 183
SWIDTH 265 0
DWIDTH 7 0
BBX 3 4 2 7
BITMAP
E0
E0
E0
E0
ENDCHAR
STARTCHAR 00B8
ENCODING 184
SWIDTH 341 0
DWIDTH 9 0
BBX 5 6 1 -6
BITMAP
60
70
18
18
F8
F0
ENDCHAR
STARTCHAR 00B9
ENCODING 185
SWIDTH 341 0
DWIDTH 9 0
BBX 7 10 1 8
BITMAP
38
F8
B8
38
38
38
38
38
FE
FE
ENDCHAR
STARTCHAR 00BA
ENCODING 186
SWIDTH 378 0
DWIDTH 10 0
BBX 8 10 1 8
BITMAP
3C
7E
E7
C7
C7
C7
C7
E7
7E
3C
ENDCHAR
STARTCHAR 00BB
ENCODING 187
SWIDTH 530 0
DWIDTH 14 0
BBX 12 11 1 1
BITMAP
F380
71C0
79E0
3CE0
1C70
1C70
1C70
38E0
79E0
71C0
F380
ENDCHAR
STARTCHAR 00BC
ENCODING 188
SWIDTH 833 0
DWIDTH 22 0
BBX 19 18 1 0
BITMAP
380380
F80300
980700
180E00
180C00
181C00
181800
183800
FE71C0
FE63C0
00E2C0
01C6C0
018CC0
038CC0
031FE0
071FE0
0E00C0
0C00C0
ENDCHAR
STARTCHAR 00BD
ENCODING 189
SWIDTH 833 0
DWIDTH 22 0
BBX 19 18 1 0
BITMAP
380380
F80300
980600
180E00
180C00
181C00
183800
183000
FE73C0
FEE7E0
00CE60
01C060
0180E0
0381C0
070700
060E00
0E0FE0
1C0FE0
ENDCHAR
STARTCHAR 00BE
ENCODING 190
SWIDTH 833 0
DWIDTH 22 0
BBX 19 18 1 0
BITMAP
3C0380
7E0300
670700
060E00
1E0C00
1E1C00
071800
E73800
7F71C0
3E63C0
00E2C0
01C6C0
018CC0
038CC0
031FE0
071FE0
0E00C0
0C00C0
ENDCHAR
STARTCHAR 00BF
ENCODING 191
SWIDTH 606 0
DWIDTH 16 0
BBX 14 18 1 -4
BITMAP
0380
0380
0380
0380
0000
0000
0380
0780
0F00
1E00
7C00
7800
F03C
F038
7878
7FF0
3FE0
0FC0
ENDCHAR
STARTCHAR 00C0
ENCODING 192
SWIDTH 720 0
DWIDTH 19 0
BBX 17 24 1 0
BITMAP
0F0000
038000
01C000
00E000
000000
000000
03E000
03E000
07F000
077000
077000
0F7800
0E7800
1E3800
1E3C00
1C3C00
3C1C00
3FFE00
3FFE00
7FFE00
780F00
700F00
F00780
F00780
ENDCHAR
STARTCHAR 00C1
ENCODING 193
SWIDTH 720 0
DWIDTH 19 0
BBX 17 24 1 0
BITMAP
007800
00F000
01C000
038000
000000
000000
03E000
03E000
07F000
077000
077000
0F7800
0E7800
1E3800
1E3C00
1C3C00
3C1C00
3FFE00
3FFE00
7FFE00
780F00
700F00
F00780
F00780
ENDCHAR
STARTCHAR 00C2
ENCODING 194
SWIDTH 720 0
DWIDTH 19 0
BBX 17 24 1 0
BITMAP
01C000
03E000
077000
0C3800
000000
000000
03E000
03E000
07F000
077000
077000
0F7800
0E7800
1E3800
1E3C00
1C3C00
3C1C00
3FFE00
3FFE00
7FFE00
780F00
700F00
F00780
F00780
ENDCHAR
STARTCHAR 00C3
ENCODING 195
SWIDTH 720 0
DWIDTH 19 0
BBX 17 24 1 0
BITMAP
070800
0F9800
0CF800
187000
000000
000000
03E000
03E000
07F000
077000
077000
0F7800
0E7800
1E3800
1E3C00
1C3C00
3C1C00
3FFE00
3FFE00
7FFE00
780F00
700F00
F00780
F00780
ENDCHAR
STARTCHAR 00C4
ENCODING 196
SWIDTH 720 0
DWIDTH 19 0
BBX 17 23 1 0
BITMAP
0E3800
0E3800
0E3800
000000
000000
03E000
03E000
07F000
077000
077000
0F7800
0E7800
1E3800
1E3C00
1C3C00
3C1C00
3FFE00
3FFE00
7FFE00
780F00
700F00
F00780
F00780
ENDCHAR
STARTCHAR 00C5
ENCODING 197
SWIDTH 720 0
DWIDTH 19 0
BBX 17 22 1 0
BITMAP
01C000
03E000
063000
063000
03E000
03E000
07F000
077000
077000
0F7800
0E7800
1E3800
1E3C00
1C3C00
3C1C00
3FFE00
3FFE00
7FFE00
780F00
700F00
F00780
F00780
ENDCHAR
STARTCHAR 00C6
ENCODING 198
SWIDTH 985 0
DWIDTH 26 0
BBX 25 18 0 0
BITMAP
007FFF00
00FFFF00
00FFFF00
01EF0000
01CF0000
03CF0000
038F0000
078FFF00
070FFF00
0F0FFF00
0FFF0000
1FFF0000
1FFF0000
3C0F0000
380F0000
780FFF80
780FFF80
F00FFF80
ENDCHAR
STARTCHAR 00C7
ENCODING 199
SWIDTH 720 0
DWIDTH 19 0
BBX 17 24 1 -6
BITMAP
07F000
1FFC00
3FFE00
7E1F00
780780
F80600
F00000
F00000
F00000
F00000
F00000
F00000
780200
780780
3E1F00
3FFF00
1FFC00
07F800
008000
01E000
006000
007000
03E000
03C000
ENDCHAR
STARTCHAR 00C8
ENCODING 200
SWIDTH 644 0
DWIDTH 17 0
BBX 14 24 2 0
BITMAP
1E00
0F00
0780
0180
0000
0000
FFFC
FFFC
FFFC
E000
E000
E000
E000
FFF8
FFF8
FFF8
E000
E000
E000
E000
E000
FFFC
FFFC
FFFC
ENDCHAR
STARTCHAR 00C9
ENCODING 201
SWIDTH 644 0
DWIDTH 17 0
BBX 14 24 2 0
BITMAP
01E0
03C0
0380
0600
0000
0000
FFFC
FFFC
FFFC
E000
E000
E000
E000
FFF8
FFF8
FFF8
E000
E000
E000
E000
E000
FFFC
FFFC
FFFC
ENDCHAR
STARTCHAR 00CA
ENCODING 202
SWIDTH 644 0
DWIDTH 17 0
BBX 14 24 2 0
BITMAP
0780
0FC0
1CE0
3870
0000
0000
FFFC
FFFC
FFFC
E000
E000
E000
E000
FFF8
FFF8
FFF8
E000
E000
E000
E000
E000
FFFC
FFFC
FFFC
ENDCHAR
STARTCHAR 00CB
ENCODING 203
SWIDTH 644 0
DWIDTH 17 0
BBX 14 23 2 0
BITMAP
1860
1860
1860
0000
0000
FFFC
FFFC
FFFC
E000
E000
E000
E000
FFF8
FFF8
FFF8
E000
E000
E000
E000
E000
FFFC
FFFC
FFFC
ENDCHAR
STARTCHAR 00CC
ENCODING 204
SWIDTH 265 0
DWIDTH 7 0
BBX 7 24 -1 0
BITMAP
F0
38
1C
0E
00
00
1C
1C
1C
1C
1C
1C
1C
1C
1C
1C
1C
1C
1C
1C
1C
1C
1C
1C
ENDCHAR
STARTCHAR 00CD
ENCODING 205
SWIDTH 265 0
DWIDTH 7 0
BBX 7 24 1 0
BITMAP
1E
3C
70
E0
00
00
70
70
70
70
70
70
70
70
70
70
70
70
70
70
70
70
70
70
ENDCHAR
STARTCHAR 00CE
ENCODING 206
SWIDTH 265 0
DWIDTH 7 0
BBX 9 24 -1 0
BITMAP
1E00
3E00
7700
E180
0000
0000
1C00
1C00
1C00
1C00
1C00
1C00
1C00
1C00
1C00
1C00
1C00
1C00
1C00
1C00
1C00
1C00
1C00
1C00
ENDCHAR
STARTCHAR 00CF
ENCODING 207
SWIDTH 265 0
DWIDTH 7 0
BBX 9 23 -1 0
BITMAP
E380
E380
E380
0000
0000
1C00
1C00
1C00
1C00
1C00
1C00
1C00
1C00
1C00
1C00
1C00
1C00
1C00
1C00
1C00
1C00
1C00
1C00
ENDCHAR
STARTCHAR 00D0
ENCODING 208
SWIDTH 720 0
DWIDTH 19 0
BBX 18 18 0 0
BITMAP
3FF000
3FFC00
3FFE00
381F00
380F80
380780
380380
FFC3C0
FFC3C0
FFC3C0
3803C0
380380
380780
380F80
381F00
3FFE00
3FFC00
3FF000
ENDCHAR
STARTCHAR 00D1
ENCODING 209
SWIDTH 720 0
DWIDTH 19 0
BBX 15 24 2 0
BITMAP
0E10
1F30
19F0
30E0
0000
0000
F00E
F80E
F80E
FC0E
FE0E
EE0E
EF0E
E70E
E78E
E38E
E3CE
E1EE
E0EE
E0FE
E07E
E07E
E03E
E03E
ENDCHAR
STARTCHAR 00D2
ENCODING 210
SWIDTH 757 0
DWIDTH 20 0
BBX 18 24 1 0
BITMAP
03C000
01E000
00E000
003000
000000
000000
03F000
0FFE00
3FFF00
7E1F80
780780
7803C0
F003C0
F003C0
F003C0
F003C0
F003C0
F003C0
7803C0
780780
3E0F80
3FFF00
0FFE00
03F800
ENDCHAR
STARTCHAR 00D3
ENCODING 211
SWIDTH 757 0
DWIDTH 20 0
BBX 18 24 1 0
BITMAP
003800
007000
00E000
01C000
000000
000000
03F000
0FFE00
3FFF00
7E1F80
780780
7803C0
F003C0
F003C0
F003C0
F003C0
F003C0
F003C0
7803C0
780780
3E0F80
3FFF00
0FFE00
03F800
ENDCHAR
STARTCHAR 00D4
ENCODING 212
SWIDTH 757 0
DWIDTH 20 0
BBX 18 24 1 0
BITMAP
01E000
03F000
073800
061C00
000000
000000
03F000
0FFE00
3FFF00
7E1F80
780780
7803C0
F003C0
F003C0
F003C0
F003C0
F003C0
F003C0
7803C0
780780
3E0F80
3FFF00
0FFE00
03F800
ENDCHAR
STARTCHAR 00D5
ENCODING 213
SWIDTH 757 0
DWIDTH 20 0
BBX 18 24 1 0
BITMAP
070C00
07CC00
0CF800
0C3800
000000
000000
03F000
0FFE00
3FFF00
7E1F80
780780
7803C0
F003C0
F003C0
F003C0
F003C0
F003C0
F003C0
7803C0
780780
3E0F80
3FFF00
0FFE00
03F800
ENDCHAR
STARTCHAR 00D6
ENCODING 214
SWIDTH 757 0
DWIDTH 20 0
BBX 18 23 1 0
BITMAP
061800
061800
061800
000000
000000
03F000
0FFE00
3FFF00
7E1F80
780780
7803C0
F003C0
F003C0
F003C0
F003C0
F003C0
F003C0
7803C0
780780
3E0F80
3FFF00
0FFE00
03F800
ENDCHAR
STARTCHAR 00D7
ENCODING 215
SWIDTH 568 0
DWIDTH 15 0
BBX 12 13 2 3
BITMAP
4020
E070
F0F0
79E0
3FC0
1F80
0F00
1F80
3FC0
79E0
F0F0
E070
4020
ENDCHAR
STARTCHAR 00D8
ENCODING 216
SWIDTH 757 0
DWIDTH 20 0
BBX 18 20 1 -1
BITMAP
000380
03FB00
0FFF00
3FFF00
7E1F80
781F80
783BC0
F033C0
F063C0
F0E3C0
F1C3C0
F183C0
F303C0
7F03C0
7E0780
3E0F80
3FFF00
3FFE00
33F800
700000
ENDCHAR
STARTCHAR 00D9
ENCODING 217
SWIDTH 720 0
DWIDTH 19 0
BBX 15 24 2 0
BITMAP
1E00
0F00
0380
01C0
0000
0000
E01E
E01E
E01E
E01E
E01E
E01E
E01E
E01E
E01E
E01E
E01E
E01E
F01E
F01E
F87C
7FFC
3FF8
0FE0
ENDCHAR
STARTCHAR 00DA
ENCODING 218
SWIDTH 720 0
DWIDTH 19 0
BBX 15 24 2 0
BITMAP
00F0
01E0
03C0
0300
0000
0000
E01E
E01E
E01E
E01E
E01E
E01E
E01E
E01E
E01E
E01E
E01E
E01E
F01E
F01E
F87C
7FFC
3FF8
0FE0
ENDCHAR
STARTCHAR 00DB
ENCODING 219
SWIDTH 720 0
DWIDTH 19 0
BBX 15 24 2 0
BITMAP
0780
07C0
0EE0
1870
0000
0000
E01E
E01E
E01E
E01E
E01E
E01E
E01E
E01E
E01E
E01E
E01E
E01E
F01E
F01E
F87C
7FFC
3FF8
0FE0
ENDCHAR
STARTCHAR 00DC
ENCODING 220
SWIDTH 720 0
DWIDTH 19 0
BBX 15 23 2 0
BITMAP
1C70
1C70
1C70
0000
0000
E01E
E01E
E01E
E01E
E01E
E01E
E01E
E01E
E01E
E01E
E01E
E01E
F01E
F01E
F87C
7FFC
3FF8
0FE0
ENDCHAR
STARTCHAR 00DD
ENCODING 221
SWIDTH 644 0
DWIDTH 17 0
BBX 16 24 1 0
BITMAP
00F0
01E0
01C0
0300
0000
0000
F00F
F01E
781C
783C
3C38
1C78
1EF0
0EF0
0FE0
07C0
03C0
03C0
03C0
03C0
03C0
03C0
03C0
03C0
ENDCHAR
STARTCHAR 00DE
ENCODING 222
SWIDTH 644 0
DWIDTH 17 0
BBX 14 18 2 0
BITMAP
E000
E000
E000
FFE0
FFF8
FFFC
E07C
E03C
E01C
E01C
E03C
E07C
FFF8
FFF8
FFE0
E000
E000
E000
ENDCHAR
STARTCHAR 00DF
ENCODING 223
SWIDTH 606 0
DWIDTH 16 0
BBX 13 19 2 0
BITMAP
1F80
3FE0
7FE0
F0F0
F0F0
E0F0
E1E0
E3C0
E380
E380
E3C0
E3F0
E0F0
E078
E038
E478
E7F8
E7F0
E7E0
ENDCHAR
STARTCHAR 00E0
ENCODING 224
SWIDTH 530 0
DWIDTH 14 0
BBX 14 20 1 0
BITMAP
3C00
1E00
0F00
0300
0000
0000
1F80
7FC0
7FE0
F0E0
00F0
3FF0
7FF0
FFF0
F0F0
E0F0
F1F0
FFFC
FF7C
3C3C
ENDCHAR
STARTCHAR 00E1
ENCODING 225
SWIDTH 530 0
DWIDTH 14 0
BBX 14 20 1 0
BITMAP
03C0
0380
0700
0E00
0000
0000
1F80
7FC0
7FE0
F0E0
00F0
3FF0
7FF0
FFF0
F0F0
E0F0
F1F0
FFFC
FF7C
3C3C
ENDCHAR
STARTCHAR 00E2
ENCODING 226
SWIDTH 530 0
DWIDTH 14 0
BBX 14 20 1 0
BITMAP
0F00
1F80
1DC0
30E0
0000
0000
1F80
7FC0
7FE0
F0E0
00F0
3FF0
7FF0
FFF0
F0F0
E0F0
F1F0
FFFC
FF7C
3C3C
ENDCHAR
STARTCHAR 00E3
ENCODING 227
SWIDTH 530 0
DWIDTH 14 0
BBX 14 20 1 0
BITMAP
3860
3E60
67C0
61C0
0000
0000
1F80
7FC0
7FE0
F0E0
00F0
3FF0
7FF0
FFF0
F0F0
E0F0
F1F0
FFFC
FF7C
3C3C
ENDCHAR
STARTCHAR 00E4
ENCODING 228
SWIDTH 530 0
DWIDTH 14 0
BBX 14 19 1 0
BITMAP
39C0
39C0
39C0
0000
0000
1F80
7FC0
7FE0
F0E0
00F0
3FF0
7FF0
FFF0
F0F0
E0F0
F1F0
FFFC
FF7C
3C3C
ENDCHAR
STARTCHAR 00E5
ENCODING 229
SWIDTH 530 0
DWIDTH 14 0
BBX 14 22 1 0
BITMAP
0F00
1F80
1980
1980
1F80
0F00
0000
0000
1F80
7FC0
7FE0
F0E0
00F0
3FF0
7FF0
FFF0
F0F0
E0F0
F1F0
FFFC
FF7C
3C3C
ENDCHAR
STARTCHAR 00E6
ENCODING 230
SWIDTH 871 0
DWIDTH 23 0
BBX 21 14 1 0
BITMAP
1F8FC0
3FFFE0
7FFFF0
70F870
00F078
1FFFF8
7FFFF8
FFFFF8
F0F000
F0F800
F1F878
FFBFF0
7F3FE0
3E0FC0
ENDCHAR
STARTCHAR 00E7
ENCODING 231
SWIDTH 530 0
DWIDTH 14 0
BBX 13 20 1 -6
BITMAP
0F80
3FE0
7FF0
78F0
F078
F000
F000
F000
F000
F078
78F0
7FF0
3FE0
0F80
0600
0700
0180
0180
0F80
0F00
ENDCHAR
STARTCHAR 00E8
ENCODING 232
SWIDTH 530 0
DWIDTH 14 0
BBX 13 20 1 0
BITMAP
1C00
0E00
0700
0380
0000
0000
0F80
3FE0
7FE0
78F0
F070
FFF0
FFF8
FFF8
F000
F000
7870
7FF0
3FE0
0F80
ENDCHAR
STARTCHAR 00E9
ENCODING 233
SWIDTH 530 0
DWIDTH 14 0
BBX 13 20 1 0
BITMAP
01E0
03C0
0700
0E00
0000
0000
0F80
3FE0
7FE0
78F0
F070
FFF0
FFF8
FFF8
F000
F000
7870
7FF0
3FE0
0F80
ENDCHAR
STARTCHAR 00EA
ENCODING 234
SWIDTH 530 0
DWIDTH 14 0
BBX 13 20 1 0
BITMAP
0700
0F80
1DC0
3860
0000
0000
0F80
3FE0
7FE0
78F0
F070
FFF0
FFF8
FFF8
F000
F000
7870
7FF0
3FE0
0F80
ENDCHAR
STARTCHAR 00EB
ENCODING 235
SWIDTH 530 0
DWIDTH 14 0
BBX 13 19 1 0
BITMAP
38E0
38E0
38E0
0000
0000
0F80
3FE0
7FE0
78F0
F070
FFF0
FFF8
FFF8
F000
F000
7870
7FF0
3FE0
0F80
ENDCHAR
STARTCHAR 00EC
ENCODING 236
SWIDTH 265 0
DWIDTH 7 0
BBX 7 20 -1 0
BITMAP
F0
78
1C
0E
00
00
1C
1C
1C
1C
1C
1C
1C
1C
1C
1C
1C
1C
1C
1C
ENDCHAR
STARTCHAR 00ED
ENCODING 237
SWIDTH 265 0
DWIDTH 7 0
BBX 6 20 2 0
BITMAP
3C
78
F0
C0
00
00
E0
E0
E0
E0
E0
E0
E0
E0
E0
E0
E0
E0
E0
E0
ENDCHAR
STARTCHAR 00EE
ENCODING 238
SWIDTH 265 0
DWIDTH 7 0
BBX 9 20 -1 0
BITMAP
1E00
3E00
7700
E180
0000
0000
1C00
1C00
1C00
1C00
1C00
1C00
1C00
1C00
1C00
1C00
1C00
1C00
1C00
1C00
ENDCHAR
STARTCHAR 00EF
ENCODING 239
SWIDTH 265 0
DWIDTH 7 0
BBX 9 19 -1 0
BITMAP
E380
E380
E380
0000
0000
1C00
1C00
1C00
1C00
1C00
1C00
1C00
1C00
1C00
1C00
1C00
1C00
1C00
1C00
ENDCHAR
STARTCHAR 00F0
ENCODING 240
SWIDTH 606 0
DWIDTH 16 0
BBX 14 19 1 0
BITMAP
1E20
07E0
0FE0
1FE0
18E0
00F0
0FF8
3FF8
7FF8
787C
F03C
F03C
F03C
F03C
F03C
7878
7FF8
3FF0
0FC0
ENDCHAR
STARTCHAR 00F1
ENCODING 241
SWIDTH 606 0
DWIDTH 16 0
BBX 12 20 2 0
BITMAP
3C60
3E60
67E0
61C0
0000
0000
E3C0
EFE0
EFF0
F8F0
F0F0
F070
E070
E070
E070
E070
E070
E070
E070
E070
ENDCHAR
STARTCHAR 00F2
ENCODING 242
SWIDTH 606 0
DWIDTH 16 0
BBX 14 20 1 0
BITMAP
1E00
0F00
0380
01C0
0000
0000
0FC0
3FF0
7FF8
7878
F03C
F03C
F03C
F03C
F03C
F03C
7878
7FF8
3FF0
0FC0
ENDCHAR
STARTCHAR 00F3
ENCODING 243
SWIDTH 606 0
DWIDTH 16 0
BBX 14 20 1 0
BITMAP
00E0
01C0
0380
0700
0000
0000
0FC0
3FF0
7FF8
7878
F03C
F03C
F03C
F03C
F03C
F03C
7878
7FF8
3FF0
0FC0
ENDCHAR
STARTCHAR 00F4
ENCODING 244
SWIDTH 606 0
DWIDTH 16 0
BBX 14 20 1 0
BITMAP
0780
0FC0
1CE0
3860
0000
0000
0FC0
3FF0
7FF8
7878
F03C
F03C
F03C
F03C
F03C
F03C
7878
7FF8
3FF0
0FC0
ENDCHAR
STARTCHAR 00F5
ENCODING 245
SWIDTH 606 0
DWIDTH 16 0
BBX 14 20 1 0
BITMAP
1C30
3F30
33E0
30E0
0000
0000
0FC0
3FF0
7FF8
7878
F03C
F03C
F03C
F03C
F03C
F03C
7878
7FF8
3FF0
0FC0
ENDCHAR
STARTCHAR 00F6
ENCODING 246
SWIDTH 606 0
DWIDTH 16 0
BBX 14 19 1 0
BITMAP
1CE0
1CE0
1CE0
0000
0000
0FC0
3FF0
7FF8
7878
F03C
F03C
F03C
F03C
F03C
F03C
7878
7FF8
3FF0
0FC0
ENDCHAR
STARTCHAR 00F7
ENCODING 247
SWIDTH 530 0
DWIDTH 14 0
BBX 13 13 1 2
BITMAP
0700
0700
0700
0000
0000
FFF8
FFF8
FFF8
0000
0000
0700
0700
0700
ENDCHAR
STARTCHAR 00F8
ENCODING 248
SWIDTH 606 0
DWIDTH 16 0
BBX 14 14 1 0
BITMAP
0FCC
3FF8
7FF8
7878
F0FC
F1FC
F3BC
F73C
FE3C
FC3C
7878
7FF8
7FF0
CFC0
ENDCHAR
STARTCHAR 00F9
ENCODING 249
SWIDTH 606 0
DWIDTH 16 0
BBX 12 19 2 0
BITMAP
3800
1C00
0E00
0700
0000
E0F0
E0F0
E0F0
E0F0
E0F0
E0F0
E0F0
E0F0
E0F0
E0F0
F1F0
FF70
7E70
3C70
ENDCHAR
STARTCHAR 00FA
ENCODING 250
SWIDTH 606 0
DWIDTH 16 0
BBX 12 19 2 0
BITMAP
01C0
0380
0700
0E00
0000
E0F0
E0F0
E0F0
E0F0
E0F0
E0F0
E0F0
E0F0
E0F0
E0F0
F1F0
FF70
7E70
3C70
ENDCHAR
STARTCHAR 00FB
ENCODING 251
SWIDTH 606 0
DWIDTH 16 0
BBX 12 19 2 0
BITMAP
0F00
1F80
39C0
70C0
0000
E0F0
E0F0
E0F0
E0F0
E0F0
E0F0
E0F0
E0F0
E0F0
E0F0
F1F0
FF70
7E70
3C70
ENDCHAR
STARTCHAR 00FC
ENCODING 252
SWIDTH 606 0
DWIDTH 16 0
BBX 12 19 2 0
BITMAP
39C0
39C0
39C0
0000
0000
E0F0
E0F0
E0F0
E0F0
E0F0
E0F0
E0F0
E0F0
E0F0
E0F0
F1F0
FF70
7E70
3C70
ENDCHAR
STARTCHAR 00FD
ENCODING 253
SWIDTH 530 0
DWIDTH 14 0
BBX 14 24 0 -5
BITMAP
00F0
01E0
0380
0700
0000
F03C
703C
7838
3878
3878
3C70
1C70
1CF0
0EE0
0EE0
07C0
07C0
07C0
0780
0780
0F00
7F00
7E00
7C00
ENDCHAR
STARTCHAR 00FE
ENCODING 254
SWIDTH 606 0
DWIDTH 16 0
BBX 13 25 2 -6
BITMAP
E000
E000
E000
E000
E000
E7C0
EFE0
FFF0
F8F0
F078
E078
E078
E078
E078
F078
F8F0
FFF0
EFE0
E7C0
E000
E000
E000
E000
E000
E000
ENDCHAR
STARTCHAR 00FF
ENCODING 255
SWIDTH 530 0
DWIDTH 14 0
BBX 14 24 0 -5
BITMAP
1C70
1C70
1C70
0000
0000
F03C
703C
7838
3878
3878
3C70
1C70
1CF0
0EE0
0EE0
07C0
07C0
07C0
0780
0780
0F00
7F00
7E00
7C00
ENDCHAR
STARTCHAR 0100
ENCODING 256
SWIDTH 720 0
DWIDTH 19 0
BBX 17 22 1 0
BITMAP
0FF000
0FF000
000000
000000
03E000
03E000
07F000
077000
077000
0F7800
0E7800
1E3800
1E3C00
1C3C00
3C1C00
3FFE00
3FFE00
7FFE00
780F00
700F00
F00780
F00780
ENDCHAR
STARTCHAR 0101
ENCODING 257
SWIDTH 530 0
DWIDTH 14 0
BBX 14 18 1 0
BITMAP
1FC0
1FC0
0000
0000
1F80
3FE0
7FE0
F0F0
00F0
3FF0
7FF0
FFF0
F0F0
F0F0
F1F0
FF7C
7F7C
3C3C
ENDCHAR
STARTCHAR 0102
ENCODING 258
SWIDTH 720 0
DWIDTH 19 0
BBX 17 24 1 0
BITMAP
0C1800
0E3000
07F000
03E000
000000
000000
03E000
03E000
07F000
077000
077000
0F7800
0E7800
1E3800
1E3C00
1C3C00
3C1C00
3FFE00
3FFE00
7FFE00
780F00
700F00
F00780
F00780
ENDCHAR
STARTCHAR 0103
ENCODING 259
SWIDTH 530 0
DWIDTH 14 0
BBX 14 20 1 0
BITMAP
3060
38C0
1FC0
0F80
0000
0000
1F80
3FE0
7FE0
F0F0
00F0
3FF0
7FF0
FFF0
F0F0
F0F0
F1F0
FF7C
7F7C
3C3C
ENDCHAR
STARTCHAR 0104
ENCODING 260
SWIDTH 720 0
DWIDTH 19 0
BBX 17 24 1 -6
BITMAP
03E000
03E000
07F000
077000
077000
0F7800
0E7800
1E3800
1E3C00
1C3C00
3C1C00
3FFE00
3FFE00
7FFE00
780F00
700F00
F00780
F00780
000600
000E00
000C00
000E00
000F80
000780
ENDCHAR
STARTCHAR 0105
ENCODING 261
SWIDTH 530 0
DWIDTH 14 0
BBX 14 20 1 -6
BITMAP
1F80
3FE0
7FE0
F0F0
00F0
3FF0
7FF0
FFF0
F0F0
F0F0
F1F0
FF7C
7F7C
3C3C
0060
00C0
00C0
00C0
00F8
0078
ENDCHAR
STARTCHAR 0106
ENCODING 262
SWIDTH 720 0
DWIDTH 19 0
BBX 17 24 1 0
BITMAP
003C00
007800
00E000
01C000
000000
000000
07F000
1FFC00
3FFE00
7E1F00
780780
F80600
F00000
F00000
F00000
F00000
F00000
F00000
780200
780780
3E1F00
3FFF00
1FFC00
07F000
ENDCHAR
STARTCHAR 0107
ENCODING 263
SWIDTH 530 0
DWIDTH 14 0
BBX 13 20 1 0
BITMAP
01E0
01C0
0380
0600
0000
0000
0F80
3FE0
7FF0
78F0
F078
F000
F000
F000
F000
F078
78F0
7FF0
3FE0
0F80
ENDCHAR
STARTCHAR 0108
ENCODING 264
SWIDTH 720 0
DWIDTH 19 0
BBX 17 24 1 0
BITMAP
01E000
03F000
07B800
061C00
000000
000000
07F000
1FFC00
3FFE00
7E1F00
780780
F80600
F00000
F00000
F00000
F00000
F00000
F00000
780200
780780
3E1F00
3FFF00
1FFC00
07F000
ENDCHAR
STARTCHAR 0109
ENCODING 265
SWIDTH 530 0
DWIDTH 14 0
BBX 13 20 1 0
BITMAP
0780
0F80
1DC0
3860
0000
0000
0F80
3FE0
7FF0
78F0
F078
F000
F000
F000
F000
F078
78F0
7FF0
3FE0
0F80
ENDCHAR
STARTCHAR 010A
ENCODING 266
SWIDTH 720 0
DWIDTH 19 0
BBX 17 23 1 0
BITMAP
01E000
01E000
01E000
000000
000000
07F000
1FFC00
3FFE00
7E1F00
780780
F80600
F00000
F00000
F00000
F00000
F00000
F00000
780200
780780
3E1F00
3FFF00
1FFC00
07F000
ENDCHAR
STARTCHAR 010B
ENCODING 267
SWIDTH 530 0
DWIDTH 14 0
BBX 13 19 1 0
BITMAP
0700
0700
0700
0000
0000
0F80
3FE0
7FF0
78F0
F078
F000
F000
F000
F000
F078
78F0
7FF0
3FE0
0F80
ENDCHAR
STARTCHAR 010C
ENCODING 268
SWIDTH 720 0
DWIDTH 19 0
BBX 17 24 1 0
BITMAP
0E1C00
073800
03F000
01E000
000000
000000
07F000
1FFC00
3FFE00
7E1F00
780780
F80600
F00000
F00000
F00000
F00000
F00000
F00000
780200
780780
3E1F00
3FFF00
1FFC00
07F000
ENDCHAR
STARTCHAR 010D
ENCODING 269
SWIDTH 530 0
DWIDTH 14 0
BBX 13 20 1 0
BITMAP
30E0
1DC0
0F80
0700
0000
0000
0F80
3FE0
7FF0
78F0
F078
F000
F000
F000
F000
F078
78F0
7FF0
3FE0
0F80
ENDCHAR
STARTCHAR 010E
ENCODING 270
SWIDTH 720 0
DWIDTH 19 0
BBX 16 24 2 0
BITMAP
3860
1CE0
0FC0
0780
0000
0000
FFC0
FFF0
FFF8
E07C
E03E
E01E
E00E
E00F
E00F
E00F
E00F
E00E
E01E
E03E
E07C
FFF8
FFF0
FFC0
ENDCHAR
STARTCHAR 010F
ENCODING 271
SWIDTH 720 0
DWIDTH 19 0
BBX 18 19 1 0
BITMAP
0079C0
0079C0
0079C0
007880
007980
1F7800
3FB800
7FF800
78F800
F07800
F07800
F03800
F03800
F07800
F07800
78F800
7FF800
3FB800
1F3800
ENDCHAR
STARTCHAR 0110
ENCODING 272
SWIDTH 720 0
DWIDTH 19 0
BBX 18 18 0 0
BITMAP
3FF000
3FFC00
3FFE00
381F00
380F80
380780
380380
FFC3C0
FFC3C0
FFC3C0
3803C0
380380
380780
380F80
381F00
3FFE00
3FFC00
3FF000
ENDCHAR
STARTCHAR 0111
ENCODING 273
SWIDTH 606 0
DWIDTH 16 0
BBX 15 19 1 0
BITMAP
0078
0078
03FE
03FE
03FE
1F78
3FB8
7FF8
78F8
F078
F078
F038
F038
F078
F078
78F8
7FF8
3FB8
1F38
ENDCHAR
STARTCHAR 0112
ENCODING 274
SWIDTH 644 0
DWIDTH 17 0
BBX 14 22 2 0
BITMAP
1FE0
1FE0
0000
0000
FFFC
FFFC
FFFC
E000
E000
E000
E000
FFF8
FFF8
FFF8
E000
E000
E000
E000
E000
FFFC
FFFC
FFFC
ENDCHAR
STARTCHAR 0113
ENCODING 275
SWIDTH 530 0
DWIDTH 14 0
BBX 13 18 1 0
BITMAP
1FC0
1FC0
0000
0000
0F80
3FE0
7FE0
78F0
F070
FFF0
FFF8
FFF8
F000
F000
7870
7FF0
3FE0
0F80
ENDCHAR
STARTCHAR 0114
ENCODING 276
SWIDTH 644 0
DWIDTH 17 0
BBX 14 24 2 0
BITMAP
3860
18E0
1FC0
0780
0000
0000
FFFC
FFFC
FFFC
E000
E000
E000
E000
FFF8
FFF8
FFF8
E000
E000
E000
E000
E000
FFFC
FFFC
FFFC
ENDCHAR
STARTCHAR 0115
ENCODING 277
SWIDTH 530 0
DWIDTH 14 0
BBX 13 20 1 0
BITMAP
30E0
38C0
1FC0
0F80
0000
0000
0F80
3FE0
7FE0
78F0
F070
FFF0
FFF8
FFF8
F000
F000
7870
7FF0
3FE0
0F80
ENDCHAR
STARTCHAR 0116
ENCODING 278
SWIDTH 644 0
DWIDTH 17 0
BBX 14 23 2 0
BITMAP
0780
0780
0780
0000
0000
FFFC
FFFC
FFFC
E000
E000
E000
E000
FFF8
FFF8
FFF8
E000
E000
E000
E000
E000
FFFC
FFFC
FFFC
ENDCHAR
STARTCHAR 0117
ENCODING 279
SWIDTH 530 0
DWIDTH 14 0
BBX 13 19 1 0
BITMAP
0700
0700
0700
0000
0000
0F80
3FE0
7FE0
78F0
F070
FFF0
FFF8
FFF8
F000
F000
7870
7FF0
3FE0
0F80
ENDCHAR
STARTCHAR 0118
ENCODING 280
SWIDTH 644 0
DWIDTH 17 0
BBX 14 24 2 -6
BITMAP
FFFC
FFFC
FFFC
E000
E000
E000
E000
FFF8
FFF8
FFF8
E000
E000
E000
E000
E000
FFFC
FFFC
FFFC
0030
0060
0060
00E0
0078
0038
ENDCHAR
STARTCHAR 0119
ENCODING 281
SWIDTH 530 0
DWIDTH 14 0
BBX 13 19 1 -5
BITMAP
0F80
3FE0
7FE0
78F0
F070
FFF0
FFF8
FFF8
F000
F000
7870
7FF0
3FE0
0F80
0300
0300
0300
03E0
01E0
ENDCHAR
STARTCHAR 011A
ENCODING 282
SWIDTH 644 0
DWIDTH 17 0
BBX 14 24 2 0
BITMAP
3870
1CE0
0FC0
0780
0000
0000
FFFC
FFFC
FFFC
E000
E000
E000
E000
FFF8
FFF8
FFF8
E000
E000
E000
E000
E000
FFFC
FFFC
FFFC
ENDCHAR
STARTCHAR 011B
ENCODING 283
SWIDTH 530 0
DWIDTH 14 0
BBX 13 20 1 0
BITMAP
30E0
1DC0
0F80
0700
0000
0000
0F80
3FE0
7FE0
78F0
F070
FFF0
FFF8
FFF8
F000
F000
7870
7FF0
3FE0
0F80
ENDCHAR
STARTCHAR 011C
ENCODING 284
SWIDTH 757 0
DWIDTH 20 0
BBX 18 24 1 0
BITMAP
01E000
03F000
073800
061C00
000000
000000
03F800
1FFE00
3FFF00
7E0F80
780780
780200
F00000
F00000
F03FC0
F03FC0
F03FC0
F003C0
7803C0
7803C0
7E0FC0
3FFF80
1FFE00
03F800
ENDCHAR
STARTCHAR 011D
ENCODING 285
SWIDTH 606 0
DWIDTH 16 0
BBX 13 26 1 -6
BITMAP
0780
0F80
1DC0
3860
0000
0000
1F38
3FB8
7FF8
78F8
F078
F078
F038
F038
F078
F078
78F8
7FF8
3FB8
1F38
0078
0078
78F8
7FF0
3FE0
1FC0
ENDCHAR
STARTCHAR 011E
ENCODING 286
SWIDTH 757 0
DWIDTH 20 0
BBX 18 24 1 0
BITMAP
060C00
071800
03F800
01F000
000000
000000
03F800
1FFE00
3FFF00
7E0F80
780780
780200
F00000
F00000
F03FC0
F03FC0
F03FC0
F003C0
7803C0
7803C0
7E0FC0
3FFF80
1FFE00
03F800
ENDCHAR
STARTCHAR 011F
ENCODING 287
SWIDTH 606 0
DWIDTH 16 0
BBX 13 26 1 -6
BITMAP
3060
18E0
1FC0
0F80
0000
0000
1F38
3FB8
7FF8
78F8
F078
F078
F038
F038
F078
F078
78F8
7FF8
3FB8
1F38
0078
0078
78F8
7FF0
3FE0
1FC0
ENDCHAR
STARTCHAR 0120
ENCODING 288
SWIDTH 757 0
DWIDTH 20 0
BBX 18 23 1 0
BITMAP
01E000
01E000
01E000
000000
000000
03F800
1FFE00
3FFF00
7E0F80
780780
780200
F00000
F00000
F03FC0
F03FC0
F03FC0
F003C0
7803C0
7803C0
7E0FC0
3FFF80
1FFE00
03F800
ENDCHAR
STARTCHAR 0121
ENCODING 289
SWIDTH 606 0
DWIDTH 16 0
BBX 13 25 1 -6
BITMAP
0780
0780
0780
0000
0000
1F38
3FB8
7FF8
78F8
F078
F078
F038
F038
F078
F078
78F8
7FF8
3FB8
1F38
0078
0078
78F8
7FF0
3FE0
1FC0
ENDCHAR
STARTCHAR 0122
ENCODING 290
SWIDTH 757 0
DWIDTH 20 0
BBX 18 24 1 -6
BITMAP
03F800
1FFE00
3FFF00
7E0F80
780780
780200
F00000
F00000
F03FC0
F03FC0
F03FC0
F003C0
7803C0
7803C0
7E0FC0
3FFF80
1FFE00
03F800
000000
00E000
00E000
00E000
006000
00C000
ENDCHAR
STARTCHAR 0123
ENCODING 291
SWIDTH 606 0
DWIDTH 16 0
BBX 13 27 1 -6
BITMAP
0300
0200
0700
0700
0700
0000
0000
1F38
3FB8
7FF8
78F8
F078
F078
F038
F038
F078
F078
78F8
7FF8
3FB8
1F38
0078
0078
78F8
7FF0
3FE0
1FC0
ENDCHAR
STARTCHAR 0124
ENCODING 292
SWIDTH 720 0
DWIDTH 19 0
BBX 15 24 2 0
BITMAP
0380
07C0
0EE0
1870
0000
0000
E01E
E01E
E01E
E01E
E01E
E01E
E01E
FFFE
FFFE
FFFE
E01E
E01E
E01E
E01E
E01E
E01E
E01E
E01E
ENDCHAR
STARTCHAR 0125
ENCODING 293
SWIDTH 606 0
DWIDTH 16 0
BBX 12 25 2 0
BITMAP
0F00
1F80
39C0
30E0
0000
0000
E000
E000
E000
E000
E000
E3C0
EFE0
EFF0
F8F0
F0F0
F070
E070
E070
E070
E070
E070
E070
E070
E070
ENDCHAR
STARTCHAR 0126
ENCODING 294
SWIDTH 720 0
DWIDTH 19 0
BBX 19 18 0 0
BITMAP
380780
380780
FFFFE0
FFFFE0
FFFFE0
380780
380780
3FFF80
3FFF80
3FFF80
380780
380780
380780
380780
380780
380780
380780
380780
ENDCHAR
STARTCHAR 0127
ENCODING 295
SWIDTH 606 0
DWIDTH 16 0
BBX 14 19 0 0
BITMAP
3800
3800
FF80
FF80
3800
38F0
3BF8
3BFC
3E3C
3C3C
3C1C
381C
381C
381C
381C
381C
381C
381C
381C
ENDCHAR
STARTCHAR 0128
ENCODING 296
SWIDTH 265 0
DWIDTH 7 0
BBX 10 24 -1 0
BITMAP
70C0
FD80
CF80
C700
0000
0000
1C00
1C00
1C00
1C00
1C00
1C00
1C00
1C00
1C00
1C00
1C00
1C00
1C00
1C00
1C00
1C00
1C00
1C00
ENDCHAR
STARTCHAR 0129
ENCODING 297
SWIDTH 265 0
DWIDTH 7 0
BBX 10 20 -1 0
BITMAP
70C0
FD80
CF80
C700
0000
0000
1C00
1C00
1C00
1C00
1C00
1C00
1C00
1C00
1C00
1C00
1C00
1C00
1C00
1C00
ENDCHAR
STARTCHAR 012A
ENCODING 298
SWIDTH 265 0
DWIDTH 7 0
BBX 8 22 0 0
BITMAP
FF
FF
00
00
38
38
38
38
38
38
38
38
38
38
38
38
38
38
38
38
38
38
ENDCHAR
STARTCHAR 012B
ENCODING 299
SWIDTH 265 0
DWIDTH 7 0
BBX 8 18 0 0
BITMAP
FF
FF
00
00
38
38
38
38
38
38
38
38
38
38
38
38
38
38
ENDCHAR
STARTCHAR 012C
ENCODING 300
SWIDTH 265 0
DWIDTH 7 0
BBX 9 24 -1 0
BITMAP
C180
6380
7F00
3E00
0000
0000
1C00
1C00
1C00
1C00
1C00
1C00
1C00
1C00
1C00
1C00
1C00
1C00
1C00
1C00
1C00
1C00
1C00
1C00
ENDCHAR
STARTCHAR 012D
ENCODING 301
SWIDTH 265 0
DWIDTH 7 0
BBX 9 20 -1 0
BITMAP
C180
6380
7F00
3E00
0000
0000
1C00
1C00
1C00
1C00
1C00
1C00
1C00
1C00
1C00
1C00
1C00
1C00
1C00
1C00
ENDCHAR
STARTCHAR 012E
ENCODING 302
SWIDTH 265 0
DWIDTH 7 0
BBX 5 24 1 -6
BITMAP
70
70
70
70
70
70
70
70
70
70
70
70
70
70
70
70
70
70
60
60
C0
E0
F8
78
ENDCHAR
STARTCHAR 012F
ENCODING 303
SWIDTH 265 0
DWIDTH 7 0
BBX 5 25 1 -6
BITMAP
70
70
70
00
00
70
70
70
70
70
70
70
70
70
70
70
70
70
70
60
E0
C0
C0
F8
78
ENDCHAR
STARTCHAR 0130
ENCODING 304
SWIDTH 265 0
DWIDTH 7 0
BBX 3 23 2 0
BITMAP
E0
E0
E0
00
00
E0
E0
E0
E0
E0
E0
E0
E0
E0
E0
E0
E0
E0
E0
E0
E0
E0
E0
ENDCHAR
STARTCHAR 0131
ENCODING 305
SWIDTH 265 0
DWIDTH 7 0
BBX 3 14 2 0
BITMAP
E0
E0
E0
E0
E0
E0
E0
E0
E0
E0
E0
E0
E0
E0
ENDCHAR
STARTCHAR 0132
ENCODING 306
SWIDTH 757 0
DWIDTH 20 0
BBX 17 18 2 0
BITMAP
E07F80
E07F80
E07F80
E00780
E00780
E00780
E00780
E00780
E00780
E00780
E00780
E00780
E70780
E70780
E78F00
E7FF00
E3FE00
E0F800
ENDCHAR
STARTCHAR 0133
ENCODING 307
SWIDTH 530 0
DWIDTH 14 0
BBX 11 25 2 -6
BITMAP
E1E0
E1E0
E1E0
0000
0000
E1E0
E1E0
E1E0
E1E0
E1E0
E1E0
E1E0
E1E0
E1E0
E1E0
E1E0
E1E0
E1E0
E1E0
01E0
01E0
01E0
07C0
07C0
0780
ENDCHAR
STARTCHAR 0134
ENCODING 308
SWIDTH 530 0
DWIDTH 14 0
BBX 12 24 1 0
BITMAP
03C0
07E0
0E60
1C30
0000
0000
0FF0
0FF0
0FF0
00F0
00F0
00F0
00F0
00F0
00F0
00F0
00F0
00F0
E0F0
F0F0
F1E0
FFE0
7FC0
1F80
ENDCHAR
STARTCHAR 0135
ENCODING 309
SWIDTH 265 0
DWIDTH 7 0
BBX 9 25 -1 -6
BITMAP
1C00
3E00
7700
E180
0000
1C00
1C00
1C00
1C00
1C00
1C00
1C00
1C00
1C00
1C00
1C00
1C00
1C00
1C00
1C00
1C00
1C00
7C00
7C00
7800
ENDCHAR
STARTCHAR 0136
ENCODING 310
SWIDTH 720 0
DWIDTH 19 0
BBX 16 24 2 -6
BITMAP
E01E
E03C
E078
E0F0
E1E0
E3C0
E780
EF00
FF80
FFC0
FBE0
E1E0
E0F0
E078
E07C
E03E
E01E
E00F
0000
0380
0380
0380
0180
0100
ENDCHAR
STARTCHAR 0137
ENCODING 311
SWIDTH 530 0
DWIDTH 14 0
BBX 12 25 2 -6
BITMAP
E000
E000
E000
E000
E000
E0F0
E1E0
E3C0
E780
E700
EE00
FF00
FF00
F780
E3C0
E1C0
E1E0
E0F0
E0F0
0000
0E00
0E00
0E00
0600
0400
ENDCHAR
STARTCHAR 0138
ENCODING 312
SWIDTH 530 0
DWIDTH 14 0
BBX 12 14 2 0
BITMAP
E0F0
E1E0
E3C0
E780
EF00
EE00
FF00
FF80
F780
E3C0
E1C0
E1E0
E0F0
E0F0
ENDCHAR
STARTCHAR 0139
ENCODING 313
SWIDTH 606 0
DWIDTH 16 0
BBX 13 24 2 0
BITMAP
0F00
1E00
3800
7000
0000
0000
E000
E000
E000
E000
E000
E000
E000
E000
E000
E000
E000
E000
E000
E000
E000
FFF8
FFF8
FFF8
ENDCHAR
STARTCHAR 013A
ENCODING 314
SWIDTH 265 0
DWIDTH 7 0
BBX 7 25 1 0
BITMAP
1E
3C
70
E0
00
00
70
70
70
70
70
70
70
70
70
70
70
70
70
70
70
70
70
70
70
ENDCHAR
STARTCHAR 013B
ENCODING 315
SWIDTH 606 0
DWIDTH 16 0
BBX 13 24 2 -6
BITMAP
E000
E000
E000
E000
E000
E000
E000
E000
E000
E000
E000
E000
E000
E000
E000
FFF8
FFF8
FFF8
0000
0F00
0F00
0F00
0200
0600
ENDCHAR
STARTCHAR 013C
ENCODING 316
SWIDTH 265 0
DWIDTH 7 0
BBX 3 25 2 -6
BITMAP
E0
E0
E0
E0
E0
E0
E0
E0
E0
E0
E0
E0
E0
E0
E0
E0
E0
E0
E0
00
E0
E0
E0
60
40
ENDCHAR
STARTCHAR 013D
ENCODING 317
SWIDTH 606 0
DWIDTH 16 0
BBX 13 18 2 0
BITMAP
E1E0
E1E0
E1C0
E040
E0C0
E000
E000
E000
E000
E000
E000
E000
E000
E000
E000
FFF8
FFF8
FFF8
ENDCHAR
STARTCHAR 013E
ENCODING 318
SWIDTH 378 0
DWIDTH 10 0
BBX 8 19 2 0
BITMAP
E7
E7
E7
E3
E2
E0
E0
E0
E0
E0
E0
E0
E0
E0
E0
E0
E0
E0
E0
ENDCHAR
STARTCHAR 013F
ENCODING 319
SWIDTH 606 0
DWIDTH 16 0
BBX 13 18 2 0
BITMAP
E000
E000
E000
E000
E000
E000
E000
E3C0
E3C0
E3C0
E000
E000
E000
E000
E000
FFF8
FFF8
FFF8
ENDCHAR
STARTCHAR 0140
ENCODING 320
SWIDTH 454 0
DWIDTH 12 0
BBX 9 19 2 0
BITMAP
E000
E000
E000
E000
E000
E000
E000
E000
E380
E380
E380
E000
E000
E000
E000
E000
E000
E000
E000
ENDCHAR
STARTCHAR 0141
ENCODING 321
SWIDTH 606 0
DWIDTH 16 0
BBX 15 18 0 0
BITMAP
3800
3800
3800
3800
3800
3880
3B80
3F80
3F00
7E00
F800
F800
B800
3800
3800
3FFE
3FFE
3FFE
ENDCHAR
STARTCHAR 0142
ENCODING 322
SWIDTH 265 0
DWIDTH 7 0
BBX 7 19 0 0
BITMAP
38
38
38
38
38
38
3A
3E
3E
7C
F8
F8
B8
38
38
38
38
38
38
ENDCHAR
STARTCHAR 0143
ENCODING 323
SWIDTH 720 0
DWIDTH 19 0
BBX 15 24 2 0
BITMAP
00F0
01E0
0380
0700
0000
0000
F00E
F80E
F80E
FC0E
FE0E
EE0E
EF0E
E70E
E78E
E38E
E3CE
E1EE
E0EE
E0FE
E07E
E07E
E03E
E03E
ENDCHAR
STARTCHAR 0144
ENCODING 324
SWIDTH 606 0
DWIDTH 16 0
BBX 12 20 2 0
BITMAP
01E0
0380
0700
0E00
0000
0000
E3C0
EFE0
EFF0
F8F0
F0F0
F070
E070
E070
E070
E070
E070
E070
E070
E070
ENDCHAR
STARTCHAR 0145
ENCODING 325
SWIDTH 720 0
DWIDTH 19 0
BBX 15 24 2 -6
BITMAP
F00E
F80E
F80E
FC0E
FE0E
EE0E
EF0E
E70E
E78E
E38E
E3CE
E1EE
E0EE
E0FE
E07E
E07E
E03E
E03E
0000
0380
0380
0380
0180
0300
ENDCHAR
STARTCHAR 0146
ENCODING 326
SWIDTH 606 0
DWIDTH 16 0
BBX 12 20 2 -6
BITMAP
E3C0
EFE0
EFF0
F8F0
F0F0
F070
E070
E070
E070
E070
E070
E070
E070
E070
0000
0700
0700
0700
0200
0600
ENDCHAR
STARTCHAR 0147
ENCODING 327
SWIDTH 720 0
DWIDTH 19 0
BBX 15 24 2 0
BITMAP
1870
0EE0
07C0
0780
0000
0000
F00E
F80E
F80E
FC0E
FE0E
EE0E
EF0E
E70E
E78E
E38E
E3CE
E1EE
E0EE
E0FE
E07E
E07E
E03E
E03E
ENDCHAR
STARTCHAR 0148
ENCODING 328
SWIDTH 606 0
DWIDTH 16 0
BBX 12 20 2 0
BITMAP
70C0
3980
1F80
0F00
0000
0000
E3C0
EFE0
EFF0
F8F0
F0F0
F070
E070
E070
E070
E070
E070
E070
E070
E070
ENDCHAR
STARTCHAR 0149
ENCODING 329
SWIDTH 682 0
DWIDTH 18 0
BBX 17 18 0 0
BITMAP
E00000
E00000
E00000
E00000
6F3E00
6F7F00
6FFF00
CF8F80
0F0780
0F0780
0F0780
0F0780
0F0780
0F0780
0F0780
0F0780
0F0780
0F0780
ENDCHAR
STARTCHAR 014A
ENCODING 330
SWIDTH 720 0
DWIDTH 19 0
BBX 15 18 2 0
BITMAP
E1F0
E7FC
EFFC
EC3E
F81E
F01E
F00E
F00E
E00E
E00E
E00E
E00E
E00E
E01E
E31E
E7FC
E7FC
E3F0
ENDCHAR
STARTCHAR 014B
ENCODING 331
SWIDTH 606 0
DWIDTH 16 0
BBX 12 20 2 -6
BITMAP
E3C0
EFE0
EFF0
F8F0
F0F0
F070
E070
E070
E070
E070
E070
E070
E070
E070
0070
0070
00F0
03F0
03F0
03E0
ENDCHAR
STARTCHAR 014C
ENCODING 332
SWIDTH 757 0
DWIDTH 20 0
BBX 18 22 1 0
BITMAP
07F800
07F800
000000
000000
03F000
0FFE00
3FFF00
7E1F80
780780
7803C0
F003C0
F003C0
F003C0
F003C0
F003C0
F003C0
7803C0
780780
3E0F80
3FFF00
0FFE00
03F800
ENDCHAR
STARTCHAR 014D
ENCODING 333
SWIDTH 606 0
DWIDTH 16 0
BBX 14 18 1 0
BITMAP
1FE0
1FE0
0000
0000
0FC0
3FF0
7FF8
7878
F03C
F03C
F03C
F03C
F03C
F03C
7878
7FF8
3FF0
0FC0
ENDCHAR
STARTCHAR 014E
ENCODING 334
SWIDTH 757 0
DWIDTH 20 0
BBX 18 24 1 0
BITMAP
061800
063800
07F000
01E000
000000
000000
03F000
0FFE00
3FFF00
7E1F80
780780
7803C0
F003C0
F003C0
F003C0
F003C0
F003C0
F003C0
7803C0
780780
3E0F80
3FFF00
0FFE00
03F800
ENDCHAR
STARTCHAR 014F
ENCODING 335
SWIDTH 606 0
DWIDTH 16 0
BBX 14 20 1 0
BITMAP
1860
1C60
0FE0
0780
0000
0000
0FC0
3FF0
7FF8
7878
F03C
F03C
F03C
F03C
F03C
F03C
7878
7FF8
3FF0
0FC0
ENDCHAR
STARTCHAR 0150
ENCODING 336
SWIDTH 757 0
DWIDTH 20 0
BBX 18 24 1 0
BITMAP
01E700
01CE00
039C00
063800
000000
000000
03F000
0FFE00
3FFF00
7E1F80
780780
7803C0
F003C0
F003C0
F003C0
F003C0
F003C0
F003C0
7803C0
780780
3E0F80
3FFF00
0FFE00
03F800
ENDCHAR
STARTCHAR 0151
ENCODING 337
SWIDTH 606 0
DWIDTH 16 0
BBX 14 20 1 0
BITMAP
07BC
0E38
0C60
18C0
0000
0000
0FC0
3FF0
7FF8
7878
F03C
F03C
F03C
F03C
F03C
F03C
7878
7FF8
3FF0
0FC0
ENDCHAR
STARTCHAR 0152
ENCODING 338
SWIDTH 985 0
DWIDTH 26 0
BBX 24 18 1 0
BITMAP
07FFFE
1FFFFE
3FFFFE
7C1E00
781E00
781E00
F01E00
F01FFE
F01FFE
F01FFE
F01E00
F01E00
781E00
781E00
7E1E00
3FFFFF
1FFFFF
07FFFF
ENDCHAR
STARTCHAR 0153
ENCODING 339
SWIDTH 947 0
DWIDTH 25 0
BBX 23 14 1 0
BITMAP
0FC3E0
3FFFF8
7FFFF8
787E1C
F03C1C
F03FFE
F03FFE
F03FFE
F03C00
F03C00
787E1C
7FFFFC
3FEFF8
0FC3E0
ENDCHAR
STARTCHAR 0154
ENCODING 340
SWIDTH 720 0
DWIDTH 19 0
BBX 16 24 2 0
BITMAP
00E0
01C0
0380
0700
0000
0000
FFF0
FFFC
FFFE
E01E
E00E
E01E
E01E
FFFC
FFF8
FFF0
E0F0
E078
E078
E03C
E03C
E01E
E01E
E00F
ENDCHAR
STARTCHAR 0155
ENCODING 341
SWIDTH 378 0
DWIDTH 10 0
BBX 8 20 2 0
BITMAP
0F
1E
38
30
00
00
E7
EF
EF
F8
F0
F0
E0
E0
E0
E0
E0
E0
E0
E0
ENDCHAR
STARTCHAR 0156
ENCODING 342
SWIDTH 720 0
DWIDTH 19 0
BBX 16 24 2 -6
BITMAP
FFF0
FFFC
FFFE
E01E
E00E
E01E
E01E
FFFC
FFF8
FFF0
E0F0
E078
E078
E03C
E03C
E01E
E01E
E00F
0000
0380
0380
0380
0180
0100
ENDCHAR
STARTCHAR 0157
ENCODING 343
SWIDTH 378 0
DWIDTH 10 0
BBX 8 20 2 -6
BITMAP
E7
EF
EF
F8
F0
F0
E0
E0
E0
E0
E0
E0
E0
E0
00
E0
E0
E0
60
40
ENDCHAR
STARTCHAR 0158
ENCODING 344
SWIDTH 720 0
DWIDTH 19 0
BBX 16 24 2 0
BITMAP
3860
1CE0
0FC0
0780
0000
0000
FFF0
FFFC
FFFE
E01E
E00E
E01E
E01E
FFFC
FFF8
FFF0
E0F0
E078
E078
E03C
E03C
E01E
E01E
E00F
ENDCHAR
STARTCHAR 0159
ENCODING 345
SWIDTH 378 0
DWIDTH 10 0
BBX 9 20 1 0
BITMAP
C380
7700
3E00
1C00
0000
0000
7380
7780
7780
7C00
7800
7800
7000
7000
7000
7000
7000
7000
7000
7000
ENDCHAR
STARTCHAR 015A
ENCODING 346
SWIDTH 644 0
DWIDTH 17 0
BBX 15 24 1 0
BITMAP
0078
00E0
01C0
0380
0000
0000
0FF0
3FF8
7FFC
783E
701E
7000
7C00
7F80
3FF8
0FFC
007E
001E
000E
F00E
F81E
7FFE
3FFC
0FF0
ENDCHAR
STARTCHAR 015B
ENCODING 347
SWIDTH 530 0
DWIDTH 14 0
BBX 12 20 1 0
BITMAP
01E0
0380
0700
0E00
0000
0000
1F80
7FE0
7FF0
F070
F000
7E00
7FC0
1FF0
01F0
0070
E070
FFF0
7FE0
1F80
ENDCHAR
STARTCHAR 015C
ENCODING 348
SWIDTH 644 0
DWIDTH 17 0
BBX 15 24 1 0
BITMAP
03C0
07E0
0E70
1C38
0000
0000
0FF0
3FF8
7FFC
783E
701E
7000
7C00
7F80
3FF8
0FFC
007E
001E
000E
F00E
F81E
7FFE
3FFC
0FF0
ENDCHAR
STARTCHAR 015D
ENCODING 349
SWIDTH 530 0
DWIDTH 14 0
BBX 12 20 1 0
BITMAP
0F00
1F80
1DC0
30E0
0000
0000
1F80
7FE0
7FF0
F070
F000
7E00
7FC0
1FF0
01F0
0070
E070
FFF0
7FE0
1F80
ENDCHAR
STARTCHAR 015E
ENCODING 350
SWIDTH 644 0
DWIDTH 17 0
BBX 15 24 1 -6
BITMAP
0FF0
3FF8
7FFC
783E
701E
7000
7C00
7F80
3FF8
0FFC
007E
001E
000E
F00E
F81E
7FFE
3FFC
0FF0
0180
03C0
00E0
00E0
03C0
0380
ENDCHAR
STARTCHAR 015F
ENCODING 351
SWIDTH 530 0
DWIDTH 14 0
BBX 12 20 1 -6
BITMAP
1F80
7FE0
7FF0
F070
F000
7E00
7FC0
1FF0
01F0
0070
E070
FFF0
7FE0
1FC0
0600
0700
0180
0380
0F80
0F00
ENDCHAR
STARTCHAR 0160
ENCODING 352
SWIDTH 644 0
DWIDTH 17 0
BBX 15 24 1 0
BITMAP
1C30
0E60
07E0
03C0
0000
0000
0FF0
3FF8
7FFC
783E
701E
7000
7C00
7F80
3FF8
0FFC
007E
001E
000E
F00E
F81E
7FFE
3FFC
0FF0
ENDCHAR
STARTCHAR 0161
ENCODING 353
SWIDTH 530 0
DWIDTH 14 0
BBX 12 20 1 0
BITMAP
30E0
1DC0
0F80
0F00
0000
0000
1F80
7FE0
7FF0
F070
F000
7E00
7FC0
1FF0
01F0
0070
E070
FFF0
7FE0
1F80
ENDCHAR
STARTCHAR 0162
ENCODING 354
SWIDTH 606 0
DWIDTH 16 0
BBX 16 24 0 -6
BITMAP
FFFF
FFFF
FFFF
03C0
03C0
03C0
03C0
03C0
03C0
03C0
03C0
03C0
03C0
03C0
03C0
03C0
03C0
03C0
0300
03C0
00C0
00C0
07C0
0780
ENDCHAR
STARTCHAR 0163
ENCODING 355
SWIDTH 341 0
DWIDTH 9 0
BBX 8 23 0 -6
BITMAP
1C
1C
3C
FF
FF
FF
3C
3C
3C
3C
3C
3C
3C
3C
3F
3F
1F
0C
0E
03
03
1F
1E
ENDCHAR
STARTCHAR 0164
ENCODING 356
SWIDTH 606 0
DWIDTH 16 0
BBX 16 24 0 0
BITMAP
1C38
0E70
07E0
03C0
0000
0000
FFFF
FFFF
FFFF
03C0
03C0
03C0
03C0
03C0
03C0
03C0
03C0
03C0
03C0
03C0
03C0
03C0
03C0
03C0
ENDCHAR
STARTCHAR 0165
ENCODING 357
SWIDTH 454 0
DWIDTH 12 0
BBX 12 19 0 0
BITMAP
0070
0070
1C70
1C10
3C30
FF00
FF00
FF00
3C00
3C00
3C00
3C00
3C00
3C00
3C00
3C00
3F00
3F00
1F00
ENDCHAR
STARTCHAR 0166
ENCODING 358
SWIDTH 606 0
DWIDTH 16 0
BBX 16 18 0 0
BITMAP
FFFF
FFFF
FFFF
03C0
03C0
03C0
03C0
03C0
1FF8
1FF8
1FF8
03C0
03C0
03C0
03C0
03C0
03C0
03C0
ENDCHAR
STARTCHAR 0167
ENCODING 359
SWIDTH 341 0
DWIDTH 9 0
BBX 8 17 0 0
BITMAP
1C
1C
3C
FF
FF
FF
3C
3C
3C
FF
FF
FF
3C
3C
3F
3F
1F
ENDCHAR
STARTCHAR 0168
ENCODING 360
SWIDTH 720 0
DWIDTH 19 0
BBX 15 24 2 0
BITMAP
0E10
1F30
19F0
30E0
0000
0000
E01E
E01E
E01E
E01E
E01E
E01E
E01E
E01E
E01E
E01E
E01E
E01E
F01E
F01E
F87C
7FFC
3FF8
0FE0
ENDCHAR
STARTCHAR 0169
ENCODING 361
SWIDTH 606 0
DWIDTH 16 0
BBX 12 19 2 0
BITMAP
3860
7E60
67C0
61C0
0000
E0F0
E0F0
E0F0
E0F0
E0F0
E0F0
E0F0
E0F0
E0F0
E0F0
F1F0
FF70
7E70
3C70
ENDCHAR
STARTCHAR 016A
ENCODING 362
SWIDTH 720 0
DWIDTH 19 0
BBX 15 22 2 0
BITMAP
1FE0
1FE0
0000
0000
E01E
E01E
E01E
E01E
E01E
E01E
E01E
E01E
E01E
E01E
E01E
E01E
F01E
F01E
F87C
7FFC
3FF8
0FE0
ENDCHAR
STARTCHAR 016B
ENCODING 363
SWIDTH 606 0
DWIDTH 16 0
BBX 12 18 2 0
BITMAP
3FC0
3FC0
0000
0000
E0F0
E0F0
E0F0
E0F0
E0F0
E0F0
E0F0
E0F0
E0F0
E0F0
F1F0
FF70
7E70
3C70
ENDCHAR
STARTCHAR 016C
ENCODING 364
SWIDTH 720 0
DWIDTH 19 0
BBX 15 24 2 0
BITMAP
1830
1C60
0FE0
07C0
0000
0000
E01E
E01E
E01E
E01E
E01E
E01E
E01E
E01E
E01E
E01E
E01E
E01E
F01E
F01E
F87C
7FFC
3FF8
0FE0
ENDCHAR
STARTCHAR 016D
ENCODING 365
SWIDTH 606 0
DWIDTH 16 0
BBX 12 19 2 0
BITMAP
30C0
31C0
3F80
0F00
0000
E0F0
E0F0
E0F0
E0F0
E0F0
E0F0
E0F0
E0F0
E0F0
E0F0
F1F0
FF70
7E70
3C70
ENDCHAR
STARTCHAR 016E
ENCODING 366
SWIDTH 720 0
DWIDTH 19 0
BBX 15 26 2 0
BITMAP
0380
07C0
0C60
0C60
07C0
0380
0000
0000
E01E
E01E
E01E
E01E
E01E
E01E
E01E
E01E
E01E
E01E
E01E
E01E
F01E
F01E
F87C
7FFC
3FF8
0FE0
ENDCHAR
STARTCHAR 016F
ENCODING 367
SWIDTH 606 0
DWIDTH 16 0
BBX 12 20 2 0
BITMAP
0F00
1F80
1980
1980
1F80
0F00
E0F0
E0F0
E0F0
E0F0
E0F0
E0F0
E0F0
E0F0
E0F0
E0F0
F1F0
FF70
7E70
3C70
ENDCHAR
STARTCHAR 0170
ENCODING 368
SWIDTH 720 0
DWIDTH 19 0
BBX 15 24 2 0
BITMAP
07BC
0738
0C70
18C0
0000
0000
E01E
E01E
E01E
E01E
E01E
E01E
E01E
E01E
E01E
E01E
E01E
E01E
F01E
F01E
F87C
7FFC
3FF8
0FE0
ENDCHAR
STARTCHAR 0171
ENCODING 369
SWIDTH 606 0
DWIDTH 16 0
BBX 12 19 2 0
BITMAP
0E70
1CE0
39C0
7380
0000
E0F0
E0F0
E0F0
E0F0
E0F0
E0F0
E0F0
E0F0
E0F0
E0F0
F1F0
FF70
7E70
3C70
ENDCHAR
STARTCHAR 0172
ENCODING 370
SWIDTH 720 0
DWIDTH 19 0
BBX 15 24 2 -6
BITMAP
E01E
E01E
E01E
E01E
E01E
E01E
E01E
E01E
E01E
E01E
E01E
E01E
F01E
F01E
F87C
7FFC
3FF8
0FE0
0180
0380
0300
0300
03E0
01E0
ENDCHAR
STARTCHAR 0173
ENCODING 371
SWIDTH 606 0
DWIDTH 16 0
BBX 12 20 2 -6
BITMAP
E0F0
E0F0
E0F0
E0F0
E0F0
E0F0
E0F0
E0F0
E0F0
E0F0
F1F0
FF70
7E70
3C70
00E0
00C0
0180
01C0
01F0
00F0
ENDCHAR
STARTCHAR 0174
ENCODING 372
SWIDTH 947 0
DWIDTH 25 0
BBX 24 24 0 0
BITMAP
003C00
003E00
007700
00C380
000000
000000
F03E07
F03E0F
703E0F
787E0F
787F0E
78771E
38771E
3CF71E
3CE71C
3CE79C
1CE3BC
1CE3BC
1FC3B8
1FC3B8
0FC1F8
0FC1F8
0F81F0
0781F0
ENDCHAR
STARTCHAR 0175
ENCODING 373
SWIDTH 757 0
DWIDTH 20 0
BBX 20 19 0 0
BITMAP
00F000
01F800
039C00
030E00
000000
E0F070
F0F070
70F8F0
71F8E0
71D8E0
7198E0
399CE0
3B9DC0
3B8DC0
3B0DC0
1B0FC0
1F0F80
1F0780
1E0780
ENDCHAR
STARTCHAR 0176
ENCODING 374
SWIDTH 644 0
DWIDTH 17 0
BBX 16 24 1 0
BITMAP
03C0
07E0
0EE0
1C30
0000
0000
F00F
F01E
781C
783C
3C38
1C78
1EF0
0EF0
0FE0
07C0
03C0
03C0
03C0
03C0
03C0
03C0
03C0
03C0
ENDCHAR
STARTCHAR 0177
ENCODING 375
SWIDTH 530 0
DWIDTH 14 0
BBX 14 24 0 -5
BITMAP
0380
07C0
0EE0
1870
0000
F03C
703C
7838
3878
3878
3C70
1C70
1CF0
0EE0
0EE0
07C0
07C0
07C0
0780
0780
0F00
7F00
7E00
7C00
ENDCHAR
STARTCHAR 0178
ENCODING 376
SWIDTH 644 0
DWIDTH 17 0
BBX 16 23 1 0
BITMAP
1C70
1C70
1C70
0000
0000
F00F
F01E
781C
783C
3C38
1C78
1EF0
0EF0
0FE0
07C0
03C0
03C0
03C0
03C0
03C0
03C0
03C0
03C0
ENDCHAR
STARTCHAR 0179
ENCODING 377
SWIDTH 606 0
DWIDTH 16 0
BBX 14 24 1 0
BITMAP
00E0
01C0
0380
0700
0000
0000
7FFC
7FFC
7FFC
0078
00F0
01E0
01E0
03C0
0780
0F00
0E00
1E00
3C00
7800
F000
FFFC
FFFC
FFFC
ENDCHAR
STARTCHAR 017A
ENCODING 378
SWIDTH 492 0
DWIDTH 13 0
BBX 11 20 1 0
BITMAP
03C0
0780
0E00
1C00
0000
0000
FFE0
FFE0
FFE0
03C0
0780
0780
0F00
1E00
3C00
7800
F000
FFE0
FFE0
FFE0
ENDCHAR
STARTCHAR 017B
ENCODING 379
SWIDTH 606 0
DWIDTH 16 0
BBX 14 23 1 0
BITMAP
0780
0780
0780
0000
0000
7FFC
7FFC
7FFC
0078
00F0
01E0
01E0
03C0
0780
0F00
0E00
1E00
3C00
7800
F000
FFFC
FFFC
FFFC
ENDCHAR
STARTCHAR 017C
ENCODING 380
SWIDTH 492 0
DWIDTH 13 0
BBX 11 19 1 0
BITMAP
0F00
0F00
0F00
0000
0000
FFE0
FFE0
FFE0
03C0
0780
0780
0F00
1E00
3C00
7800
F000
FFE0
FFE0
FFE0
ENDCHAR
STARTCHAR 017D
ENCODING 381
SWIDTH 606 0
DWIDTH 16 0
BBX 14 24 1 0
BITMAP
1870
1CE0
0FC0
0780
0000
0000
7FFC
7FFC
7FFC
0078
00F0
01E0
01E0
03C0
0780
0F00
0E00
1E00
3C00
7800
F000
FFFC
FFFC
FFFC
ENDCHAR
STARTCHAR 017E
ENCODING 382
SWIDTH 492 0
DWIDTH 13 0
BBX 11 20 1 0
BITMAP
70C0
3B80
1F00
0E00
0000
0000
FFE0
FFE0
FFE0
03C0
0780
0780
0F00
1E00
3C00
7800
F000
FFE0
FFE0
FFE0
ENDCHAR
STARTCHAR 017F
ENCODING 383
SWIDTH 265 0
DWIDTH 7 0
BBX 6 19 2 0
BITMAP
7C
FC
FC
F0
E0
E0
E0
E0
E0
E0
E0
E0
E0
E0
E0
E0
E0
E0
E0
ENDCHAR
STARTCHAR 0192
ENCODING 402
SWIDTH 530 0
DWIDTH 14 0
BBX 11 24 2 -6
BITMAP
03E0
07E0
0FE0
0F00
0F00
3FC0
3FC0
7FC0
1E00
1E00
1C00
1C00
3C00
3C00
3C00
3800
3800
7800
7800
7800
7000
7000
F000
F000
ENDCHAR
STARTCHAR 01FA
ENCODING 506
SWIDTH 720 0
DWIDTH 19 0
BBX 17 27 1 0
BITMAP
007800
00F000
01E000
038000
000000
01C000
03E000
063000
063000
03E000
03E000
07F000
077000
077000
0F7800
0E7800
1E3800
1E3C00
1C3C00
3C1C00
3FFE00
3FFE00
7FFE00
780F00
700F00
F00780
F00780
ENDCHAR
STARTCHAR 01FB
ENCODING 507
SWIDTH 530 0
DWIDTH 14 0
BBX 14 25 1 0
BITMAP
01E0
03C0
0380
0F00
1F80
1880
1880
1F80
0F00
0000
0000
1F80
3FE0
7FE0
F0F0
00F0
3FF0
7FF0
FFF0
F0F0
F0F0
F1F0
FF7C
7F7C
3C3C
ENDCHAR
STARTCHAR 01FC
ENCODING 508
SWIDTH 985 0
DWIDTH 26 0
BBX 25 24 0 0
BITMAP
0000F000
0000E000
0001C000
00038000
00000000
00000000
007FFF00
00FFFF00
00FFFF00
01EF0000
01CF0000
03CF0000
038F0000
078FFF00
070FFF00
0F0FFF00
0FFF0000
1FFF0000
1FFF0000
3C0F0000
380F0000
780FFF80
780FFF80
F00FFF80
ENDCHAR
STARTCHAR 01FD
ENCODING 509
SWIDTH 871 0
DWIDTH 23 0
BBX 21 20 1 0
BITMAP
000E00
001C00
003800
007000
000000
000000
1F8FC0
3FFFE0
7FFFF0
70F870
00F078
1FFFF8
7FFFF8
FFFFF8
F0F000
F0F800
F1F878
FFBFF0
7F3FE0
3E0FC0
ENDCHAR
STARTCHAR 01FE
ENCODING 510
SWIDTH 757 0
DWIDTH 20 0
BBX 18 25 1 -1
BITMAP
003800
007000
00E000
01C000
000000
000380
03FB00
0FFF00
3FFF00
7E1F80
781F80
783BC0
F033C0
F063C0
F0E3C0
F1C3C0
F183C0
F303C0
7F03C0
7E0780
3E0F80
3FFF00
3FFE00
33F800
700000
ENDCHAR
STARTCHAR 01FF
ENCODING 511
SWIDTH 606 0
DWIDTH 16 0
BBX 14 20 1 0
BITMAP
00E0
01C0
0380
0700
0000
0000
0FCC
3FF8
7FF8
7878
F0FC
F1FC
F3BC
F73C
FE3C
FC3C
7878
7FF8
7FF0
CFC0
ENDCHAR
STARTCHAR 0218
ENCODING 536
SWIDTH 644 0
DWIDTH 17 0
BBX 15 24 1 -6
BITMAP
0FF0
3FF8
7FFC
783E
701E
7000
7C00
7F80
3FF8
0FFC
007E
001E
000E
F00E
F81E
7FFE
3FFC
0FF0
0000
03C0
03C0
0380
0080
0180
ENDCHAR
STARTCHAR 0219
ENCODING 537
SWIDTH 530 0
DWIDTH 14 0
BBX 12 20 1 -6
BITMAP
1F80
7FE0
7FF0
F070
F000
7E00
7FC0
1FF0
01F0
0070
E070
FFF0
7FE0
1FC0
0000
0700
0700
0700
0300
0200
ENDCHAR
STARTCHAR 021A
ENCODING 538
SWIDTH 606 0
DWIDTH 16 0
BBX 16 24 0 -6
BITMAP
FFFF
FFFF
FFFF
03C0
03C0
03C0
03C0
03C0
03C0
03C0
03C0
03C0
03C0
03C0
03C0
03C0
03C0
03C0
0000
03C0
03C0
03C0
0080
0180
ENDCHAR
STARTCHAR 021B
ENCODING 539
SWIDTH 341 0
DWIDTH 9 0
BBX 8 23 0 -6
BITMAP
1C
1C
3C
FF
FF
FF
3C
3C
3C
3C
3C
3C
3C
3C
3F
3F
1F
00
1C
1C
1C
0C
08
ENDCHAR
STARTCHAR 02C6
ENCODING 710
SWIDTH 341 0
DWIDTH 9 0
BBX 9 4 0 15
BITMAP
1E00
3E00
7700
E180
ENDCHAR
STARTCHAR 02C7
ENCODING 711
SWIDTH 341 0
DWIDTH 9 0
BBX 9 4 0 15
BITMAP
E180
7700
3E00
1E00
ENDCHAR
STARTCHAR 02C9
ENCODING 713
SWIDTH 341 0
DWIDTH 9 0
BBX 8 2 0 16
BITMAP
FF
FF
ENDCHAR
STARTCHAR 02D8
ENCODING 728
SWIDTH 341 0
DWIDTH 9 0
BBX 9 4 -1 15
BITMAP
E180
6380
7F00
3E00
ENDCHAR
STARTCHAR 02D9
ENCODING 729
SWIDTH 341 0
DWIDTH 9 0
BBX 3 3 3 16
BITMAP
E0
E0
E0
ENDCHAR
STARTCHAR 02DA
ENCODING 730
SWIDTH 341 0
DWIDTH 9 0
BBX 6 6 1 14
BITMAP
78
FC
8C
8C
FC
78
ENDCHAR
STARTCHAR 02DB
ENCODING 731
SWIDTH 341 0
DWIDTH 9 0
BBX 5 6 1 -6
BITMAP
60
E0
C0
C0
F8
78
ENDCHAR
STARTCHAR 02DC
ENCODING 732
SWIDTH 341 0
DWIDTH 9 0
BBX 10 4 0 15
BITMAP
70C0
FCC0
CF80
C700
ENDCHAR
STARTCHAR 02DD
ENCODING 733
SWIDTH 341 0
DWIDTH 9 0
BBX 11 4 -1 15
BITMAP
3DE0
79C0
6380
C600
ENDCHAR
STARTCHAR 037E
ENCODING 894
SWIDTH 341 0
DWIDTH 9 0
BBX 3 18 3 -4
BITMAP
E0
E0
E0
E0
00
00
00
00
00
00
E0
E0
E0
E0
60
60
E0
C0
ENDCHAR
STARTCHAR 0384
ENCODING 900
SWIDTH 341 0
DWIDTH 9 0
BBX 4 4 2 15
BITMAP
70
70
60
C0
ENDCHAR
STARTCHAR 0385
ENCODING 901
SWIDTH 454 0
DWIDTH 12 0
BBX 10 4 1 15
BITMAP
0E00
EFC0
EDC0
E9C0
ENDCHAR
STARTCHAR 0386
ENCODING 902
SWIDTH 720 0
DWIDTH 19 0
BBX 18 18 0 0
BITMAP
79F000
71F000
63F800
C3B800
03B800
07BC00
073C00
0F1C00
0F1E00
0E1E00
1E0E00
1FFF00
1FFF00
3FFF00
3C0780
380780
7803C0
7803C0
ENDCHAR
STARTCHAR 0387
ENCODING 903
SWIDTH 341 0
DWIDTH 9 0
BBX 3 4 3 7
BITMAP
E0
E0
E0
E0
ENDCHAR
STARTCHAR 0388
ENCODING 904
SWIDTH 833 0
DWIDTH 22 0
BBX 20 18 1 0
BITMAP
F3FFF0
E3FFF0
C3FFF0
838000
038000
038000
038000
03FFE0
03FFE0
03FFE0
038000
038000
038000
038000
038000
03FFF0
03FFF0
03FFF0
ENDCHAR
STARTCHAR 0389
ENCODING 905
SWIDTH 909 0
DWIDTH 24 0
BBX 22 18 0 0
BITMAP
79C03C
71C03C
61C03C
C1C03C
01C03C
01C03C
01C03C
01FFFC
01FFFC
01FFFC
01C03C
01C03C
01C03C
01C03C
01C03C
01C03C
01C03C
01C03C
ENDCHAR
STARTCHAR 038A
ENCODING 906
SWIDTH 454 0
DWIDTH 12 0
BBX 11 18 0 0
BITMAP
79E0
71E0
61E0
C1E0
01E0
01E0
01E0
01E0
01E0
01E0
01E0
01E0
01E0
01E0
01E0
01E0
01E0
01E0
ENDCHAR
STARTCHAR 038C
ENCODING 908
SWIDTH 795 0
DWIDTH 21 0
BBX 20 18 0 0
BITMAP
F0FE00
E3FF80
C7FFC0
8F83E0
1F01E0
1E00F0
3C00F0
3C00F0
3C0070
3C00F0
3C00F0
1C00F0
1E00F0
1F01E0
0F83E0
07FFC0
03FF80
00FE00
ENDCHAR
STARTCHAR 038E
ENCODING 910
SWIDTH 909 0
DWIDTH 24 0
BBX 21 18 2 0
BITMAP
F78078
E3C078
C1C0F0
81E0F0
00F1E0
00F1C0
007BC0
003B80
003F80
001F00
001F00
000E00
000E00
000E00
000E00
000E00
000E00
000E00
ENDCHAR
STARTCHAR 038F
ENCODING 911
SWIDTH 833 0
DWIDTH 22 0
BBX 22 18 -1 0
BITMAP
787F00
73FFC0
67FFF0
CFC1F0
0F00F8
0F0078
1E0078
1E0038
1E0038
0E0078
0F0078
0F0070
0780F0
03C3E0
01E780
1FE7FC
1FE7FC
1FE7FC
ENDCHAR
STARTCHAR 0390
ENCODING 912
SWIDTH 265 0
DWIDTH 7 0
BBX 9 19 -1 0
BITMAP
0E00
CD80
DD80
D980
0000
1C00
1C00
1C00
1C00
1C00
1C00
1C00
1C00
1C00
1C00
1C00
1C00
1E00
1E00
ENDCHAR
STARTCHAR 0391
ENCODING 913
SWIDTH 720 0
DWIDTH 19 0
BBX 17 18 1 0
BITMAP
03E000
03E000
07F000
077000
077000
0F7800
0E7800
1E3800
1E3C00
1C3C00
3C1C00
3FFE00
3FFE00
7FFE00
780F00
700F00
F00780
F00780
ENDCHAR
STARTCHAR 0392
ENCODING 914
SWIDTH 720 0
DWIDTH 19 0
BBX 16 18 2 0
BITMAP
FFF0
FFF8
FFFC
E03C
E01E
E01C
E03C
FFF8
FFF0
FFFC
E01E
E00E
E00F
E00F
E01E
FFFE
FFFC
FFF0
ENDCHAR
STARTCHAR 0393
ENCODING 915
SWIDTH 606 0
DWIDTH 16 0
BBX 13 18 2 0
BITMAP
FFF8
FFF8
FFF8
E000
E000
E000
E000
E000
E000
E000
E000
E000
E000
E000
E000
E000
E000
E000
ENDCHAR
STARTCHAR 0394
ENCODING 916
SWIDTH 720 0
DWIDTH 19 0
BBX 17 18 1 0
BITMAP
03E000
03E000
07F000
077000
0F7000
0F7800
0E3800
1E3C00
1C3C00
3C1C00
3C1E00
381E00
780F00
780F00
F00700
FFFF80
FFFF80
FFFF80
ENDCHAR
STARTCHAR 0395
ENCODING 917
SWIDTH 644 0
DWIDTH 17 0
BBX 14 18 2 0
BITMAP
FFFC
FFFC
FFFC
E000
E000
E000
E000
FFF8
FFF8
FFF8
E000
E000
E000
E000
E000
FFFC
FFFC
FFFC
ENDCHAR
STARTCHAR 0396
ENCODING 918
SWIDTH 606 0
DWIDTH 16 0
BBX 14 18 1 0
BITMAP
7FFC
7FFC
7FFC
0078
00F0
01E0
01E0
03C0
0780
0F00
0E00
1E00
3C00
7800
F000
FFFC
FFFC
FFFC
ENDCHAR
STARTCHAR 0397
ENCODING 919
SWIDTH 720 0
DWIDTH 19 0
BBX 15 18 2 0
BITMAP
E01E
E01E
E01E
E01E
E01E
E01E
E01E
FFFE
FFFE
FFFE
E01E
E01E
E01E
E01E
E01E
E01E
E01E
E01E
ENDCHAR
STARTCHAR 0398
ENCODING 920
SWIDTH 757 0
DWIDTH 20 0
BBX 18 18 1 0
BITMAP
03F000
0FFE00
3FFF00
7E1F80
780780
7803C0
F003C0
F7FBC0
F7FBC0
F7FBC0
F003C0
F003C0
7803C0
780780
3E0F80
3FFF00
0FFE00
03F800
ENDCHAR
STARTCHAR 0399
ENCODING 921
SWIDTH 265 0
DWIDTH 7 0
BBX 3 18 2 0
BITMAP
E0
E0
E0
E0
E0
E0
E0
E0
E0
E0
E0
E0
E0
E0
E0
E0
E0
E0
ENDCHAR
STARTCHAR 039A
ENCODING 922
SWIDTH 720 0
DWIDTH 19 0
BBX 16 18 2 0
BITMAP
E01E
E03C
E078
E0F0
E1E0
E3C0
E780
EF00
FF80
FFC0
FBE0
E1E0
E0F0
E078
E07C
E03E
E01E
E00F
ENDCHAR
STARTCHAR 039B
ENCODING 923
SWIDTH 644 0
DWIDTH 17 0
BBX 17 18 0 0
BITMAP
01E000
03E000
03F000
07F000
077000
077800
0F3800
0F3800
0E3C00
1E1C00
1E1C00
1C1E00
3C0E00
3C0F00
780F00
780F00
780780
F00780
ENDCHAR
STARTCHAR 039C
ENCODING 924
SWIDTH 833 0
DWIDTH 22 0
BBX 18 18 2 0
BITMAP
F807C0
F80FC0
FC0FC0
FC0FC0
FC1DC0
EE1DC0
EE1DC0
EE19C0
EF39C0
E739C0
E739C0
E771C0
E3F1C0
E3F1C0
E3E1C0
E1E1C0
E1E1C0
E1C1C0
ENDCHAR
STARTCHAR 039D
ENCODING 925
SWIDTH 720 0
DWIDTH 19 0
BBX 15 18 2 0
BITMAP
F00E
F80E
F80E
FC0E
FE0E
EE0E
EF0E
E70E
E78E
E38E
E3CE
E1EE
E0EE
E0FE
E07E
E07E
E03E
E03E
ENDCHAR
STARTCHAR 039E
ENCODING 926
SWIDTH 644 0
DWIDTH 17 0
BBX 15 18 1 0
BITMAP
7FFC
7FFC
7FFC
0000
0000
0000
0000
3FF8
3FF8
3FF8
0000
0000
0000
0000
0000
FFFE
FFFE
FFFE
ENDCHAR
STARTCHAR 039F
ENCODING 927
SWIDTH 757 0
DWIDTH 20 0
BBX 18 18 1 0
BITMAP
03F000
0FFE00
3FFF00
7E1F80
780780
7803C0
F003C0
F003C0
F003C0
F003C0
F003C0
F003C0
7803C0
780780
3E0F80
3FFF00
0FFE00
03F800
ENDCHAR
STARTCHAR 03A0
ENCODING 928
SWIDTH 720 0
DWIDTH 19 0
BBX 15 18 2 0
BITMAP
FFFE
FFFE
FFFE
E01E
E01E
E01E
E01E
E01E
E01E
E01E
E01E
E01E
E01E
E01E
E01E
E01E
E01E
E01E
ENDCHAR
STARTCHAR 03A1
ENCODING 929
SWIDTH 644 0
DWIDTH 17 0
BBX 14 18 2 0
BITMAP
FFE0
FFF8
FFFC
E03C
E01C
E01C
E03C
E03C
FFFC
FFF8
FFE0
E000
E000
E000
E000
E000
E000
E000
ENDCHAR
STARTCHAR 03A3
ENCODING 931
SWIDTH 606 0
DWIDTH 16 0
BBX 14 18 1 0
BITMAP
FFF8
FFF8
FFF8
7800
3C00
1E00
0F00
0780
0380
0780
0F00
1E00
3C00
7800
7000
FFFC
FFFC
FFFC
ENDCHAR
STARTCHAR 03A4
ENCODING 932
SWIDTH 606 0
DWIDTH 16 0
BBX 16 18 0 0
BITMAP
FFFF
FFFF
FFFF
03C0
03C0
03C0
03C0
03C0
03C0
03C0
03C0
03C0
03C0
03C0
03C0
03C0
03C0
03C0
ENDCHAR
STARTCHAR 03A5
ENCODING 933
SWIDTH 644 0
DWIDTH 17 0
BBX 16 18 1 0
BITMAP
F00F
F01E
781C
783C
3C38
1C78
1EF0
0EF0
0FE0
07C0
03C0
03C0
03C0
03C0
03C0
03C0
03C0
03C0
ENDCHAR
STARTCHAR 03A6
ENCODING 934
SWIDTH 795 0
DWIDTH 21 0
BBX 20 18 1 0
BITMAP
00E000
00E000
0FFE00
3FFF80
7FFFC0
F8E3E0
F0E1E0
F0E0E0
F0E0F0
F0E0E0
F0E1E0
F8E3E0
7FFFC0
3FFF80
0FFE00
00E000
00E000
00E000
ENDCHAR
STARTCHAR 03A7
ENCODING 935
SWIDTH 644 0
DWIDTH 17 0
BBX 16 18 1 0
BITMAP
F01E
781E
783C
3C78
1E78
1EF0
0FE0
07E0
07C0
07E0
0FE0
1EF0
1E78
3C78
383C
781E
F01E
F00F
ENDCHAR
STARTCHAR 03A8
ENCODING 936
SWIDTH 795 0
DWIDTH 21 0
BBX 19 18 1 0
BITMAP
F0E1E0
F0E1E0
F0E1E0
F0E1E0
F0E1E0
F0E1E0
F0E1E0
F0E1E0
F0E1E0
78E3C0
7FFFC0
3FFF80
0FFE00
00E000
00E000
00E000
00E000
00E000
ENDCHAR
STARTCHAR 03A9
ENCODING 937
SWIDTH 795 0
DWIDTH 21 0
BBX 19 18 1 0
BITMAP
03F800
1FFE00
3FFF80
7E0F80
7807C0
7803C0
F003C0
F001C0
F001C0
7003C0
7803C0
780380
3C0780
1F1F00
0FBC00
FFBFE0
FFBFE0
FFBFE0
ENDCHAR
STARTCHAR 03AA
ENCODING 938
SWIDTH 265 0
DWIDTH 7 0
BBX 9 23 -1 0
BITMAP
E380
E380
E380
0000
0000
1C00
1C00
1C00
1C00
1C00
1C00
1C00
1C00
1C00
1C00
1C00
1C00
1C00
1C00
1C00
1C00
1C00
1C00
ENDCHAR
STARTCHAR 03AB
ENCODING 939
SWIDTH 644 0
DWIDTH 17 0
BBX 16 23 1 0
BITMAP
1C70
1C70
1C70
0000
0000
F00F
F01E
781C
783C
3C38
1C78
1EF0
0EF0
0FE0
07C0
03C0
03C0
03C0
03C0
03C0
03C0
03C0
03C0
ENDCHAR
STARTCHAR 03AC
ENCODING 940
SWIDTH 606 0
DWIDTH 16 0
BBX 14 20 1 0
BITMAP
03C0
0380
0300
0200
0000
0000
1F1C
3F9C
7FDC
F9F8
F0F8
F078
F078
F078
F078
F0F8
F9F8
7FF8
3FBC
1F1C
ENDCHAR
STARTCHAR 03AD
ENCODING 941
SWIDTH 454 0
DWIDTH 12 0
BBX 11 20 1 0
BITMAP
0700
0700
0600
0C00
0000
0000
1F80
7FC0
FFC0
F080
7000
3F00
3F00
7800
F000
F000
F0C0
FFE0
7FC0
1F00
ENDCHAR
STARTCHAR 03AE
ENCODING 942
SWIDTH 606 0
DWIDTH 16 0
BBX 13 26 1 -6
BITMAP
01C0
01C0
0380
0300
0000
0000
F3E0
77F0
7FF8
7C78
7878
7838
7038
7038
7038
7038
7038
7038
7038
7038
0038
0038
0038
0038
0038
0038
ENDCHAR
STARTCHAR 03AF
ENCODING 943
SWIDTH 265 0
DWIDTH 7 0
BBX 4 20 2 0
BITMAP
70
70
E0
C0
00
00
E0
E0
E0
E0
E0
E0
E0
E0
E0
E0
E0
E0
F0
F0
ENDCHAR
STARTCHAR 03B0
ENCODING 944
SWIDTH 568 0
DWIDTH 15 0
BBX 12 19 2 0
BITMAP
0700
76C0
7EC0
7CC0
0000
E1E0
E0E0
E0E0
E0F0
E0F0
E0F0
E0F0
E0F0
E0F0
F0F0
F1E0
FFE0
7FC0
1F00
ENDCHAR
STARTCHAR 03B1
ENCODING 945
SWIDTH 606 0
DWIDTH 16 0
BBX 14 14 1 0
BITMAP
1F1C
3F9C
7FDC
F9F8
F0F8
F078
F078
F078
F078
F0F8
F9F8
7FF8
3FBC
1F1C
ENDCHAR
STARTCHAR 03B2
ENCODING 946
SWIDTH 606 0
DWIDTH 16 0
BBX 13 25 2 -6
BITMAP
1F80
7FE0
7FE0
F0F0
F0F0
E0F0
E1E0
E7C0
E7C0
E7E0
E0F0
E078
E078
E078
E078
F0F8
FFF0
FFF0
E7C0
E000
E000
E000
E000
E000
E000
ENDCHAR
STARTCHAR 03B3
ENCODING 947
SWIDTH 530 0
DWIDTH 14 0
BBX 14 20 0 -6
BITMAP
F03C
703C
7838
7838
3878
3C70
1C70
1CF0
1EE0
0EE0
0FC0
0FC0
07C0
0780
0780
0780
0700
0F00
0F00
0F00
ENDCHAR
STARTCHAR 03B4
ENCODING 948
SWIDTH 606 0
DWIDTH 16 0
BBX 14 19 1 0
BITMAP
3FF8
3FF8
3FF8
1E00
0700
0380
0FE0
3CF0
7870
7078
F038
F03C
F03C
F03C
F038
7878
7FF8
3FF0
0FC0
ENDCHAR
STARTCHAR 03B5
ENCODING 949
SWIDTH 454 0
DWIDTH 12 0
BBX 11 14 1 0
BITMAP
1F80
7FC0
FFC0
F080
7000
3F00
3F00
7800
F000
F000
F0C0
FFE0
7FC0
1F00
ENDCHAR
STARTCHAR 03B6
ENCODING 950
SWIDTH 454 0
DWIDTH 12 0
BBX 11 24 1 -5
BITMAP
7FC0
7FC0
7FC0
03C0
0780
0F00
0E00
1C00
3800
3800
7000
7000
E000
E000
E000
F000
FE00
7F80
3FC0
03E0
00E0
00C0
01C0
00C0
ENDCHAR
STARTCHAR 03B7
ENCODING 951
SWIDTH 606 0
DWIDTH 16 0
BBX 13 20 1 -6
BITMAP
F3E0
77F0
7FF8
7C78
7878
7838
7038
7038
7038
7038
7038
7038
7038
7038
0038
0038
0038
0038
0038
0038
ENDCHAR
STARTCHAR 03B8
ENCODING 952
SWIDTH 530 0
DWIDTH 14 0
BBX 12 19 1 0
BITMAP
0F80
3FC0
3FE0
79E0
70E0
F0F0
F0F0
F0F0
FFF0
FFF0
FFF0
F0F0
F0F0
F0F0
70E0
79E0
3FC0
3FC0
0F00
ENDCHAR
STARTCHAR 03B9
ENCODING 953
SWIDTH 265 0
DWIDTH 7 0
BBX 4 14 2 0
BITMAP
E0
E0
E0
E0
E0
E0
E0
E0
E0
E0
E0
E0
F0
F0
ENDCHAR
STARTCHAR 03BA
ENCODING 954
SWIDTH 568 0
DWIDTH 15 0
BBX 12 14 2 0
BITMAP
E0F0
E1E0
E3C0
E380
E780
EF00
FF00
FF00
FF80
E3C0
E3C0
E1E0
E0F0
E0F0
ENDCHAR
STARTCHAR 03BB
ENCODING 955
SWIDTH 530 0
DWIDTH 14 0
BBX 14 20 0 0
BITMAP
3C00
3E00
3F00
0F00
0780
0380
0380
03C0
07C0
07C0
0FE0
0EE0
0EF0
1EF0
1C70
3C78
3878
7838
783C
F03C
ENDCHAR
STARTCHAR 03BC
ENCODING 956
SWIDTH 606 0
DWIDTH 16 0
BBX 12 20 2 -6
BITMAP
E070
E070
E070
E070
E070
E070
E070
E0F0
E0F0
F0F0
F1F0
FFF0
FF70
EE70
E000
E000
E000
E000
E000
E000
ENDCHAR
STARTCHAR 03BD
ENCODING 957
SWIDTH 530 0
DWIDTH 14 0
BBX 13 14 0 0
BITMAP
F078
7038
7838
7838
3838
3878
3C78
1C70
1C70
1EE0
0FE0
0FC0
0F80
0780
ENDCHAR
STARTCHAR 03BE
ENCODING 958
SWIDTH 454 0
DWIDTH 12 0
BBX 11 24 1 -5
BITMAP
7F80
7F80
7F80
1C00
3800
3800
3C00
3F80
0780
1F80
7C00
7000
E000
E000
E000
F800
FF00
7FC0
1FC0
03E0
00E0
00C0
01C0
00C0
ENDCHAR
STARTCHAR 03BF
ENCODING 959
SWIDTH 606 0
DWIDTH 16 0
BBX 14 14 1 0
BITMAP
0FC0
3FF0
7FF8
7878
F03C
F03C
F03C
F03C
F03C
F03C
7878
7FF8
3FF0
0FC0
ENDCHAR
STARTCHAR 03C0
ENCODING 960
SWIDTH 757 0
DWIDTH 20 0
BBX 18 14 1 0
BITMAP
FFFFC0
FFFFC0
FFFFC0
1E1E00
1E1E00
1E1E00
1E1E00
1E1E00
1C1E00
1C1E00
1C1E00
3C1F80
3C0F80
3C07C0
ENDCHAR
STARTCHAR 03C1
ENCODING 961
SWIDTH 606 0
DWIDTH 16 0
BBX 13 20 2 -6
BITMAP
1F80
3FE0
7FF0
F0F0
F078
E078
E078
E078
E078
E078
F8F0
FFF0
FFE0
E7C0
E000
E000
E000
E000
E000
E000
ENDCHAR
STARTCHAR 03C2
ENCODING 962
SWIDTH 530 0
DWIDTH 14 0
BBX 12 19 1 -5
BITMAP
0F80
1FE0
3FE0
7840
7000
F000
F000
E000
E000
F000
F800
7E00
3FC0
1FE0
01E0
00F0
0060
00E0
0040
ENDCHAR
STARTCHAR 03C3
ENCODING 963
SWIDTH 682 0
DWIDTH 18 0
BBX 16 14 1 0
BITMAP
07FF
1FFF
7FFF
7C70
F838
F038
F03C
F03C
F03C
F03C
7878
7FF8
3FF0
0FC0
ENDCHAR
STARTCHAR 03C4
ENCODING 964
SWIDTH 454 0
DWIDTH 12 0
BBX 11 14 0 0
BITMAP
FFE0
FFE0
FFE0
0E00
0E00
0E00
0E00
0E00
0E00
0E00
0F00
0FC0
0FC0
07C0
ENDCHAR
STARTCHAR 03C5
ENCODING 965
SWIDTH 568 0
DWIDTH 15 0
BBX 12 14 2 0
BITMAP
E1E0
E0E0
E0E0
E0F0
E0F0
E0F0
E0F0
E0F0
E0F0
F0F0
F1E0
FFE0
7FC0
1F00
ENDCHAR
STARTCHAR 03C6
ENCODING 966
SWIDTH 720 0
DWIDTH 19 0
BBX 17 20 1 -6
BITMAP
0C7C00
3CFE00
7DFF00
79CF00
F1C700
F1C780
F1C780
F1C780
F1C700
F1CF00
79CF00
7FFE00
3FFC00
0FF000
01C000
01C000
01C000
01C000
01C000
01C000
ENDCHAR
STARTCHAR 03C7
ENCODING 967
SWIDTH 568 0
DWIDTH 15 0
BBX 15 20 0 -6
BITMAP
F83C
FC3C
7C78
1E70
0EF0
0FE0
07E0
07C0
03C0
07C0
07C0
0FE0
0EE0
1EF0
1C70
3C78
3C38
783C
783C
F01E
ENDCHAR
STARTCHAR 03C8
ENCODING 968
SWIDTH 757 0
DWIDTH 20 0
BBX 16 23 2 -6
BITMAP
0380
0380
0380
E38F
E38F
E38F
E38F
E38F
E38F
E38F
E38F
E38F
E38F
F39F
FFFE
7FFC
1FF8
0380
0380
0380
0380
0380
0380
ENDCHAR
STARTCHAR 03C9
ENCODING 969
SWIDTH 833 0
DWIDTH 22 0
BBX 20 14 1 0
BITMAP
060600
1E0780
3E07C0
7803E0
F000E0
F0F0F0
F0F0F0
F0F0F0
F0F0F0
F0F0F0
F9F9E0
7FFFE0
3F9FC0
1F0F80
ENDCHAR
STARTCHAR 03CA
ENCODING 970
SWIDTH 265 0
DWIDTH 7 0
BBX 9 19 -1 0
BITMAP
E380
E380
E380
0000
0000
1C00
1C00
1C00
1C00
1C00
1C00
1C00
1C00
1C00
1C00
1C00
1C00
1E00
1E00
ENDCHAR
STARTCHAR 03CB
ENCODING 971
SWIDTH 568 0
DWIDTH 15 0
BBX 12 19 2 0
BITMAP
71C0
71C0
71C0
0000
0000
E1E0
E0E0
E0E0
E0F0
E0F0
E0F0
E0F0
E0F0
E0F0
F0F0
F1E0
FFE0
7FC0
1F00
ENDCHAR
STARTCHAR 03CC
ENCODING 972
SWIDTH 606 0
DWIDTH 16 0
BBX 14 20 1 0
BITMAP
03C0
0380
0300
0200
0000
0000
0FC0
3FF0
7FF8
7878
F03C
F03C
F03C
F03C
F03C
F03C
7878
7FF8
3FF0
0FC0
ENDCHAR
STARTCHAR 03CD
ENCODING 973
SWIDTH 568 0
DWIDTH 15 0
BBX 12 20 2 0
BITMAP
0700
0E00
0C00
0C00
0000
0000
E1E0
E0E0
E0E0
E0F0
E0F0
E0F0
E0F0
E0F0
E0F0
F0F0
F1E0
FFE0
7FC0
1F00
ENDCHAR
STARTCHAR 03CE
ENCODING 974
SWIDTH 833 0
DWIDTH 22 0
BBX 20 20 1 0
BITMAP
003800
007000
007000
006000
000000
000000
060600
1E0780
3E07C0
7803E0
F000E0
F0F0F0
F0F0F0
F0F0F0
F0F0F0
F0F0F0
F9F9E0
7FFFE0
3F9FC0
1F0F80
ENDCHAR
STARTCHAR 0401
ENCODING 1025
SWIDTH 644 0
DWIDTH 17 0
BBX 14 23 2 0
BITMAP
1860
1860
1860
0000
0000
FFFC
FFFC
FFFC
E000
E000
E000
E000
FFF8
FFF8
FFF8
E000
E000
E000
E000
E000
FFFC
FFFC
FFFC
ENDCHAR
STARTCHAR 0402
ENCODING 1026
SWIDTH 871 0
DWIDTH 23 0
BBX 22 18 0 0
BITMAP
FFFF00
FFFF00
FFFF00
03C000
03C000
03C000
03CFE0
03FFF0
03FFF8
03E078
03C03C
03C03C
03C03C
03C03C
03C478
03CFF8
03CFF0
03C7E0
ENDCHAR
STARTCHAR 0403
ENCODING 1027
SWIDTH 568 0
DWIDTH 15 0
BBX 12 23 2 0
BITMAP
01C0
0380
0700
0E00
0000
FFF0
FFF0
FFF0
E000
E000
E000
E000
E000
E000
E000
E000
E000
E000
E000
E000
E000
E000
E000
ENDCHAR
STARTCHAR 0404
ENCODING 1028
SWIDTH 720 0
DWIDTH 19 0
BBX 17 18 1 0
BITMAP
07F000
1FFC00
3FFE00
7C1F00
780F00
F00600
F00000
FFE000
FFE000
FFE000
F00000
F00000
780600
780780
7E1F00
3FFE00
1FFC00
07F000
ENDCHAR
STARTCHAR 0405
ENCODING 1029
SWIDTH 644 0
DWIDTH 17 0
BBX 15 18 1 0
BITMAP
0FF0
3FF8
7FFC
783E
701E
7000
7C00
7F80
3FF8
0FFC
007E
001E
000E
F00E
F81E
7FFE
3FFC
0FF0
ENDCHAR
STARTCHAR 0406
ENCODING 1030
SWIDTH 265 0
DWIDTH 7 0
BBX 3 18 2 0
BITMAP
E0
E0
E0
E0
E0
E0
E0
E0
E0
E0
E0
E0
E0
E0
E0
E0
E0
E0
ENDCHAR
STARTCHAR 0407
ENCODING 1031
SWIDTH 265 0
DWIDTH 7 0
BBX 9 23 -1 0
BITMAP
E380
E380
E380
0000
0000
1C00
1C00
1C00
1C00
1C00
1C00
1C00
1C00
1C00
1C00
1C00
1C00
1C00
1C00
1C00
1C00
1C00
1C00
ENDCHAR
STARTCHAR 0408
ENCODING 1032
SWIDTH 530 0
DWIDTH 14 0
BBX 12 18 1 0
BITMAP
0FF0
0FF0
0FF0
00F0
00F0
00F0
00F0
00F0
00F0
00F0
00F0
00F0
E0F0
F0F0
F1E0
FFE0
7FC0
1F80
ENDCHAR
STARTCHAR 0409
ENCODING 1033
SWIDTH 1061 0
DWIDTH 28 0
BBX 28 18 0 0
BITMAP
0FFF0000
0FFF0000
0FFF0000
0F0F0000
0F0F0000
0E0F0000
1E0F0000
1E0FFF00
1E0FFFC0
1E0FFFE0
1E0F03E0
1C0F00E0
3C0F00F0
3C0F00E0
3C0F01E0
F80FFFE0
F80FFFC0
F00FFF00
ENDCHAR
STARTCHAR 040A
ENCODING 1034
SWIDTH 1061 0
DWIDTH 28 0
BBX 25 18 2 0
BITMAP
E03C0000
E03C0000
E03C0000
E03C0000
E03C0000
E03C0000
E03C0000
FFFFFC00
FFFFFE00
FFFFFF00
E03C0F00
E03C0780
E03C0780
E03C0780
E03C0F00
E03FFF00
E03FFE00
E03FF800
ENDCHAR
STARTCHAR 040B
ENCODING 1035
SWIDTH 871 0
DWIDTH 23 0
BBX 21 18 0 0
BITMAP
FFFF00
FFFF00
FFFF00
03C000
03C000
03C000
03CFC0
03FFF0
03FFF0
03C0F8
03C078
03C078
03C078
03C078
03C078
03C078
03C078
03C078
ENDCHAR
STARTCHAR 040C
ENCODING 1036
SWIDTH 606 0
DWIDTH 16 0
BBX 14 24 2 0
BITMAP
01E0
03C0
0780
0600
0000
0000
E078
E070
E0F0
E1E0
E1E0
E3C0
E780
E780
FF00
FF00
FF80
E3C0
E3C0
E1E0
E0F0
E0F0
E078
E03C
ENDCHAR
STARTCHAR 040E
ENCODING 1038
SWIDTH 606 0
DWIDTH 16 0
BBX 16 24 0 0
BITMAP
1C38
1C38
0FF0
07E0
0000
0000
F00F
780F
781E
3C1E
1C1C
1E3C
0E38
0F78
07F0
07F0
03E0
01E0
01C0
03C0
0780
3F80
7F00
7E00
ENDCHAR
STARTCHAR 040F
ENCODING 1039
SWIDTH 720 0
DWIDTH 19 0
BBX 15 23 2 -5
BITMAP
E01E
E01E
E01E
E01E
E01E
E01E
E01E
E01E
E01E
E01E
E01E
E01E
E01E
E01E
E01E
FFFE
FFFE
FFFE
0380
0380
0380
0380
0380
ENDCHAR
STARTCHAR 0410
ENCODING 1040
SWIDTH 720 0
DWIDTH 19 0
BBX 17 18 1 0
BITMAP
03E000
03E000
07F000
077000
077000
0F7800
0E7800
1E3800
1E3C00
1C3C00
3C1C00
3FFE00
3FFE00
7FFE00
780F00
700F00
F00780
F00780
ENDCHAR
STARTCHAR 0411
ENCODING 1041
SWIDTH 720 0
DWIDTH 19 0
BBX 16 18 2 0
BITMAP
FFF8
FFF8
FFF8
E000
E000
E000
E000
FFF8
FFFC
FFFE
E01E
E00F
E00F
E00F
E01E
FFFE
FFFC
FFF0
ENDCHAR
STARTCHAR 0412
ENCODING 1042
SWIDTH 720 0
DWIDTH 19 0
BBX 16 18 2 0
BITMAP
FFF0
FFF8
FFFC
E03C
E01E
E01C
E03C
FFF8
FFF0
FFFC
E01E
E00E
E00F
E00F
E01E
FFFE
FFFC
FFF0
ENDCHAR
STARTCHAR 0413
ENCODING 1043
SWIDTH 568 0
DWIDTH 15 0
BBX 12 18 2 0
BITMAP
FFF0
FFF0
FFF0
E000
E000
E000
E000
E000
E000
E000
E000
E000
E000
E000
E000
E000
E000
E000
ENDCHAR
STARTCHAR 0414
ENCODING 1044
SWIDTH 720 0
DWIDTH 19 0
BBX 18 23 0 -5
BITMAP
03FF00
07FF00
07FF00
078F00
078F00
070F00
070F00
070F00
0F0F00
0F0F00
0F0F00
0E0F00
1E0F00
1E0F00
3C0F00
FFFFC0
FFFFC0
FFFFC0
E001C0
E001C0
E001C0
E001C0
E001C0
ENDCHAR
STARTCHAR 0415
ENCODING 1045
SWIDTH 644 0
DWIDTH 17 0
BBX 14 18 2 0
BITMAP
FFFC
FFFC
FFFC
E000
E000
E000
E000
FFF8
FFF8
FFF8
E000
E000
E000
E000
E000
FFFC
FFFC
FFFC
ENDCHAR
STARTCHAR 0416
ENCODING 1046
SWIDTH 909 0
DWIDTH 24 0
BBX 23 18 0 0
BITMAP
783C1E
783C3C
3C3C3C
1C3C78
1E3C70
0F3CF0
0F3DE0
07BDE0
03FFC0
07FFE0
0F3CE0
0F3CF0
1E3C70
1C3C78
3C3C3C
783C3C
783C1E
F03C1E
ENDCHAR
STARTCHAR 0417
ENCODING 1047
SWIDTH 606 0
DWIDTH 16 0
BBX 14 18 1 0
BITMAP
0FC0
3FF0
7FF8
787C
F03C
7038
0078
03F0
03E0
03F8
007C
003C
603C
F03C
F87C
7FF8
3FF0
0FC0
ENDCHAR
STARTCHAR 0418
ENCODING 1048
SWIDTH 720 0
DWIDTH 19 0
BBX 15 18 2 0
BITMAP
E03E
E03E
E07E
E07E
E0EE
E0EE
E1CE
E1CE
E38E
E78E
E70E
EF0E
EE0E
FC0E
FC0E
F80E
F80E
F00E
ENDCHAR
STARTCHAR 0419
ENCODING 1049
SWIDTH 720 0
DWIDTH 19 0
BBX 15 24 2 0
BITMAP
3838
1C70
1FF0
0FC0
0000
0000
E03E
E03E
E07E
E07E
E0EE
E0EE
E1CE
E1CE
E38E
E78E
E70E
EF0E
EE0E
FC0E
FC0E
F80E
F80E
F00E
ENDCHAR
STARTCHAR 041A
ENCODING 1050
SWIDTH 606 0
DWIDTH 16 0
BBX 14 18 2 0
BITMAP
E078
E070
E0F0
E1E0
E1E0
E3C0
E780
E780
FF00
FF00
FF80
E3C0
E3C0
E1E0
E0F0
E0F0
E078
E03C
ENDCHAR
STARTCHAR 041B
ENCODING 1051
SWIDTH 682 0
DWIDTH 18 0
BBX 17 18 0 0
BITMAP
0FFF80
0FFF80
0FFF80
0F0780
0F0780
0E0780
1E0780
1E0780
1E0780
1E0780
1E0780
1C0780
3C0780
3C0780
3C0780
F80780
F80780
F00780
ENDCHAR
STARTCHAR 041C
ENCODING 1052
SWIDTH 833 0
DWIDTH 22 0
BBX 18 18 2 0
BITMAP
F807C0
F80FC0
FC0FC0
FC0FC0
FC1DC0
EE1DC0
EE1DC0
EE19C0
EF39C0
E739C0
E739C0
E771C0
E3F1C0
E3F1C0
E3E1C0
E1E1C0
E1E1C0
E1C1C0
ENDCHAR
STARTCHAR 041D
ENCODING 1053
SWIDTH 720 0
DWIDTH 19 0
BBX 15 18 2 0
BITMAP
E01E
E01E
E01E
E01E
E01E
E01E
E01E
FFFE
FFFE
FFFE
E01E
E01E
E01E
E01E
E01E
E01E
E01E
E01E
ENDCHAR
STARTCHAR 041E
ENCODING 1054
SWIDTH 757 0
DWIDTH 20 0
BBX 18 18 1 0
BITMAP
03F000
0FFE00
3FFF00
7E1F80
780780
7803C0
F003C0
F003C0
F003C0
F003C0
F003C0
F003C0
7803C0
780780
3E0F80
3FFF00
0FFE00
03F800
ENDCHAR
STARTCHAR 041F
ENCODING 1055
SWIDTH 720 0
DWIDTH 19 0
BBX 15 18 2 0
BITMAP
FFFE
FFFE
FFFE
E01E
E01E
E01E
E01E
E01E
E01E
E01E
E01E
E01E
E01E
E01E
E01E
E01E
E01E
E01E
ENDCHAR
STARTCHAR 0420
ENCODING 1056
SWIDTH 644 0
DWIDTH 17 0
BBX 14 18 2 0
BITMAP
FFE0
FFF8
FFFC
E03C
E01C
E01C
E03C
E03C
FFFC
FFF8
FFE0
E000
E000
E000
E000
E000
E000
E000
ENDCHAR
STARTCHAR 0421
ENCODING 1057
SWIDTH 720 0
DWIDTH 19 0
BBX 17 18 1 0
BITMAP
07F000
1FFC00
3FFE00
7E1F00
780780
F80600
F00000
F00000
F00000
F00000
F00000
F00000
780200
780780
3E1F00
3FFF00
1FFC00
07F000
ENDCHAR
STARTCHAR 0422
ENCODING 1058
SWIDTH 606 0
DWIDTH 16 0
BBX 16 18 0 0
BITMAP
FFFF
FFFF
FFFF
03C0
03C0
03C0
03C0
03C0
03C0
03C0
03C0
03C0
03C0
03C0
03C0
03C0
03C0
03C0
ENDCHAR
STARTCHAR 0423
ENCODING 1059
SWIDTH 606 0
DWIDTH 16 0
BBX 16 18 0 0
BITMAP
F00F
780F
780E
3C1E
1C1C
1E3C
0F38
0F78
07F0
03F0
03E0
01E0
01C0
03C0
0380
3F80
7F00
3E00
ENDCHAR
STARTCHAR 0424
ENCODING 1060
SWIDTH 833 0
DWIDTH 22 0
BBX 20 18 1 0
BITMAP
00F000
00F000
0FFF00
3FFFC0
7FFFE0
F8F1F0
F0F0F0
F0F0F0
F0F0F0
F0F0F0
F0F0F0
78F1F0
7FFFE0
3FFFC0
0FFF00
00F000
00F000
00F000
ENDCHAR
STARTCHAR 0425
ENCODING 1061
SWIDTH 644 0
DWIDTH 17 0
BBX 16 18 1 0
BITMAP
F01E
781E
783C
3C78
1E78
1EF0
0FE0
07E0
07C0
07E0
0FE0
1EF0
1E78
3C78
383C
781E
F01E
F00F
ENDCHAR
STARTCHAR 0426
ENCODING 1062
SWIDTH 720 0
DWIDTH 19 0
BBX 17 23 2 -5
BITMAP
E01C00
E01C00
E01C00
E01C00
E01C00
E01C00
E01C00
E01C00
E01C00
E01C00
E01C00
E01C00
E01C00
E01C00
E01C00
FFFF80
FFFF80
FFFF80
000380
000380
000380
000380
000380
ENDCHAR
STARTCHAR 0427
ENCODING 1063
SWIDTH 682 0
DWIDTH 18 0
BBX 16 18 1 0
BITMAP
F00F
F00F
F00F
F00F
F00F
F00F
F00F
F00F
781F
7FFF
3FFF
1FCF
000F
000F
000F
000F
000F
000F
ENDCHAR
STARTCHAR 0428
ENCODING 1064
SWIDTH 985 0
DWIDTH 26 0
BBX 22 18 2 0
BITMAP
E0781C
E0781C
E0781C
E0781C
E0781C
E0781C
E0781C
E0781C
E0781C
E0781C
E0781C
E0781C
E0781C
E0781C
E0781C
FFFFFC
FFFFFC
FFFFFC
ENDCHAR
STARTCHAR 0429
ENCODING 1065
SWIDTH 1023 0
DWIDTH 27 0
BBX 24 23 2 -5
BITMAP
E0783C
E0783C
E0783C
E0783C
E0783C
E0783C
E0783C
E0783C
E0783C
E0783C
E0783C
E0783C
E0783C
E0783C
E0783C
FFFFFF
FFFFFF
FFFFFF
000007
000007
000007
000007
000007
ENDCHAR
STARTCHAR 042A
ENCODING 1066
SWIDTH 871 0
DWIDTH 23 0
BBX 22 18 0 0
BITMAP
FFC000
FFC000
FFC000
03C000
03C000
03C000
03C000
03FFE0
03FFF0
03FFF8
03C078
03C03C
03C03C
03C03C
03C078
03FFF8
03FFF0
03FFC0
ENDCHAR
STARTCHAR 042B
ENCODING 1067
SWIDTH 947 0
DWIDTH 25 0
BBX 22 18 2 0
BITMAP
E0003C
E0003C
E0003C
E0003C
E0003C
E0003C
E0003C
FFF03C
FFFC3C
FFFE3C
E03E3C
E01E3C
E01E3C
E01E3C
E03E3C
FFFC3C
FFF83C
FFF03C
ENDCHAR
STARTCHAR 042C
ENCODING 1068
SWIDTH 720 0
DWIDTH 19 0
BBX 16 18 2 0
BITMAP
E000
E000
E000
E000
E000
E000
E000
FFF8
FFFC
FFFE
E01E
E00F
E00F
E00F
E01E
FFFE
FFFC
FFF0
ENDCHAR
STARTCHAR 042D
ENCODING 1069
SWIDTH 720 0
DWIDTH 19 0
BBX 16 18 1 0
BITMAP
0FE0
3FF8
7FFC
783E
F00F
600F
0007
03FF
03FF
03FF
0007
000F
600F
F01F
F83E
7FFC
3FF8
0FE0
ENDCHAR
STARTCHAR 042E
ENCODING 1070
SWIDTH 1023 0
DWIDTH 27 0
BBX 24 18 2 0
BITMAP
E00FC0
E03FF8
E07FFC
E0F87C
E0F01E
E1E01E
E1E00E
FFE00F
FFE00F
FFE00F
E1E00F
E1E00E
E0E01E
E0F01E
E0F87C
E07FFC
E03FF0
E00FE0
ENDCHAR
STARTCHAR 042F
ENCODING 1071
SWIDTH 720 0
DWIDTH 19 0
BBX 16 18 1 0
BITMAP
0FFF
3FFF
7FFF
780F
F00F
F00F
F00F
780F
7FFF
3FFF
0FFF
1F0F
1E0F
3C0F
3C0F
780F
F80F
F00F
ENDCHAR
STARTCHAR 0430
ENCODING 1072
SWIDTH 530 0
DWIDTH 14 0
BBX 14 14 1 0
BITMAP
1F80
3FE0
7FE0
F0F0
00F0
3FF0
7FF0
FFF0
F0F0
F0F0
F1F0
FF7C
7F7C
3C3C
ENDCHAR
STARTCHAR 0431
ENCODING 1073
SWIDTH 606 0
DWIDTH 16 0
BBX 14 19 1 0
BITMAP
0038
07F8
1FF8
3F80
7800
6000
67E0
EFF0
DFF8
F87C
F03C
F03C
F03C
F03C
703C
787C
7FF8
3FF0
0FC0
ENDCHAR
STARTCHAR 0432
ENCODING 1074
SWIDTH 606 0
DWIDTH 16 0
BBX 13 14 2 0
BITMAP
FFC0
FFF0
FFF0
E078
E070
FFF0
FFC0
FFF0
E078
E078
E078
FFF8
FFF0
FFC0
ENDCHAR
STARTCHAR 0433
ENCODING 1075
SWIDTH 416 0
DWIDTH 11 0
BBX 8 14 2 0
BITMAP
FF
FF
FF
E0
E0
E0
E0
E0
E0
E0
E0
E0
E0
E0
ENDCHAR
STARTCHAR 0434
ENCODING 1076
SWIDTH 644 0
DWIDTH 17 0
BBX 16 19 0 -5
BITMAP
07FC
0FFC
0FFC
0F1C
0E1C
0E1C
1E1C
1E1C
1C1C
1C1C
3C1C
FFFF
FFFF
FFFF
E007
E007
E007
E007
E007
ENDCHAR
STARTCHAR 0435
ENCODING 1077
SWIDTH 530 0
DWIDTH 14 0
BBX 13 14 1 0
BITMAP
0F80
3FE0
7FE0
78F0
F070
FFF0
FFF8
FFF8
F000
F000
7870
7FF0
3FE0
0F80
ENDCHAR
STARTCHAR 0436
ENCODING 1078
SWIDTH 682 0
DWIDTH 18 0
BBX 18 14 0 0
BITMAP
F0E1C0
70E3C0
78E380
38E780
3CE700
1CEE00
0FFE00
1FFE00
1CEF00
3CE700
38E780
78E380
70E3C0
F0E1C0
ENDCHAR
STARTCHAR 0437
ENCODING 1079
SWIDTH 492 0
DWIDTH 13 0
BBX 11 14 1 0
BITMAP
1F00
7FC0
FFC0
E1E0
01C0
0FC0
0F00
0FC0
01E0
01E0
E1E0
FFE0
7FC0
3F00
ENDCHAR
STARTCHAR 0438
ENCODING 1080
SWIDTH 606 0
DWIDTH 16 0
BBX 12 14 2 0
BITMAP
E0F0
E0F0
E1F0
E1F0
E3F0
E770
E770
EE70
EE70
FC70
FC70
F870
F070
F070
ENDCHAR
STARTCHAR 0439
ENCODING 1081
SWIDTH 606 0
DWIDTH 16 0
BBX 12 20 2 0
BITMAP
70E0
70E0
3FC0
1F80
0000
0000
E0F0
E0F0
E1F0
E1F0
E3F0
E770
E770
EE70
EE70
FC70
FC70
F870
F070
F070
ENDCHAR
STARTCHAR 043A
ENCODING 1082
SWIDTH 492 0
DWIDTH 13 0
BBX 11 14 2 0
BITMAP
E1E0
E1C0
E3C0
E380
E780
EF00
FE00
FE00
E700
E780
E380
E3C0
E1C0
E1E0
ENDCHAR
STARTCHAR 043B
ENCODING 1083
SWIDTH 644 0
DWIDTH 17 0
BBX 15 14 0 0
BITMAP
0FFE
0FFE
0FFE
0E1E
0E1E
1E1E
1E1E
1E1E
1C1E
1C1E
3C1E
FC1E
F81E
F01E
ENDCHAR
STARTCHAR 043C
ENCODING 1084
SWIDTH 720 0
DWIDTH 19 0
BBX 15 14 2 0
BITMAP
F81E
F83E
F83E
FC3E
FC7E
EC7E
EE6E
EEEE
E6EE
E6CE
E7CE
E3CE
E3CE
E38E
ENDCHAR
STARTCHAR 043D
ENCODING 1085
SWIDTH 606 0
DWIDTH 16 0
BBX 12 14 2 0
BITMAP
E0F0
E0F0
E0F0
E0F0
E0F0
FFF0
FFF0
FFF0
E0F0
E0F0
E0F0
E0F0
E0F0
E0F0
ENDCHAR
STARTCHAR 043E
ENCODING 1086
SWIDTH 606 0
DWIDTH 16 0
BBX 14 14 1 0
BITMAP
0FC0
3FF0
7FF8
7878
F03C
F03C
F03C
F03C
F03C
F03C
7878
7FF8
3FF0
0FC0
ENDCHAR
STARTCHAR 043F
ENCODING 1087
SWIDTH 606 0
DWIDTH 16 0
BBX 12 14 2 0
BITMAP
FFF0
FFF0
FFF0
E0F0
E0F0
E0F0
E0F0
E0F0
E0F0
E0F0
E0F0
E0F0
E0F0
E0F0
ENDCHAR
STARTCHAR 0440
ENCODING 1088
SWIDTH 606 0
DWIDTH 16 0
BBX 13 20 2 -6
BITMAP
E7C0
EFE0
FFF0
F8F0
F078
E078
E078
E078
E078
F078
F8F0
FFF0
EFE0
E7C0
E000
E000
E000
E000
E000
E000
ENDCHAR
STARTCHAR 0441
ENCODING 1089
SWIDTH 530 0
DWIDTH 14 0
BBX 13 14 1 0
BITMAP
0F80
3FE0
7FF0
78F0
F078
F000
F000
F000
F000
F078
78F0
7FF0
3FE0
0F80
ENDCHAR
STARTCHAR 0442
ENCODING 1090
SWIDTH 492 0
DWIDTH 13 0
BBX 11 14 1 0
BITMAP
FFE0
FFE0
FFE0
0E00
0E00
0E00
0E00
0E00
0E00
0E00
0E00
0E00
0E00
0E00
ENDCHAR
STARTCHAR 0443
ENCODING 1091
SWIDTH 530 0
DWIDTH 14 0
BBX 14 19 0 -5
BITMAP
F03C
703C
7838
3878
3878
3C70
1C70
1CF0
0EE0
0EE0
07C0
07C0
07C0
0780
0780
0F00
7F00
7E00
7C00
ENDCHAR
STARTCHAR 0444
ENCODING 1092
SWIDTH 871 0
DWIDTH 23 0
BBX 21 25 1 -6
BITMAP
007000
007000
007000
007000
007000
1E73C0
3F77E0
7FFFF0
78F8F0
F0F070
F07078
F07078
F07078
F07078
F0F070
F8F8F0
7FFFF0
7F77E0
1E73C0
007000
007000
007000
007000
007000
007000
ENDCHAR
STARTCHAR 0445
ENCODING 1093
SWIDTH 530 0
DWIDTH 14 0
BBX 13 14 1 0
BITMAP
F078
F0F0
78E0
3DC0
1FC0
1F80
0F00
0F80
1F80
3FC0
39E0
78F0
F0F0
E078
ENDCHAR
STARTCHAR 0446
ENCODING 1094
SWIDTH 606 0
DWIDTH 16 0
BBX 14 19 2 -5
BITMAP
E0F0
E0F0
E0F0
E0F0
E0F0
E0F0
E0F0
E0F0
E0F0
E0F0
E0F0
FFFC
FFFC
FFFC
001C
001C
001C
001C
001C
ENDCHAR
STARTCHAR 0447
ENCODING 1095
SWIDTH 568 0
DWIDTH 15 0
BBX 12 14 1 0
BITMAP
F070
F070
F070
F070
F070
F070
F070
FFF0
7FF0
3E70
0070
0070
0070
0070
ENDCHAR
STARTCHAR 0448
ENCODING 1096
SWIDTH 833 0
DWIDTH 22 0
BBX 18 14 2 0
BITMAP
E1C3C0
E1C3C0
E1C3C0
E1C3C0
E1C3C0
E1C3C0
E1C3C0
E1C3C0
E1C3C0
E1C3C0
E1C3C0
FFFFC0
FFFFC0
FFFFC0
ENDCHAR
STARTCHAR 0449
ENCODING 1097
SWIDTH 833 0
DWIDTH 22 0
BBX 20 19 2 -5
BITMAP
E1E3C0
E1E3C0
E1E3C0
E1E3C0
E1E3C0
E1E3C0
E1E3C0
E1E3C0
E1E3C0
E1E3C0
E1E3C0
FFFFF0
FFFFF0
FFFFF0
000070
000070
000070
000070
000070
ENDCHAR
STARTCHAR 044A
ENCODING 1098
SWIDTH 720 0
DWIDTH 19 0
BBX 18 14 0 0
BITMAP
FF8000
FF8000
FF8000
078000
078000
07FE00
07FF80
07FFC0
0783C0
0783C0
0783C0
07FF80
07FF80
07FE00
ENDCHAR
STARTCHAR 044B
ENCODING 1099
SWIDTH 833 0
DWIDTH 22 0
BBX 18 14 2 0
BITMAP
E001C0
E001C0
E001C0
E001C0
E001C0
FFC1C0
FFF1C0
FFF9C0
E079C0
E079C0
E079C0
FFF1C0
FFF1C0
FFC1C0
ENDCHAR
STARTCHAR 044C
ENCODING 1100
SWIDTH 606 0
DWIDTH 16 0
BBX 13 14 2 0
BITMAP
E000
E000
E000
E000
E000
FFC0
FFF0
FFF8
E078
E078
E078
FFF0
FFF0
FFC0
ENDCHAR
STARTCHAR 044D
ENCODING 1101
SWIDTH 530 0
DWIDTH 14 0
BBX 12 14 1 0
BITMAP
1F80
3FC0
7FE0
F0F0
E0F0
07F0
07F0
07F0
00F0
E0F0
F0F0
7FE0
7FC0
1F80
ENDCHAR
STARTCHAR 044E
ENCODING 1102
SWIDTH 833 0
DWIDTH 22 0
BBX 19 14 2 0
BITMAP
E03F00
E0FF80
E1FFC0
E3E3E0
E3C1E0
FFC1E0
FFC1E0
FFC1E0
E3C1E0
E3C1E0
E1E3C0
E1FFC0
E0FF80
E03E00
ENDCHAR
STARTCHAR 044F
ENCODING 1103
SWIDTH 568 0
DWIDTH 15 0
BBX 13 14 0 0
BITMAP
0FF8
3FF8
7FF8
7838
7838
7838
3FF8
3FF8
0FF8
1E38
1C38
3C38
7838
F038
ENDCHAR
STARTCHAR 0451
ENCODING 1105
SWIDTH 530 0
DWIDTH 14 0
BBX 13 19 1 0
BITMAP
38E0
38E0
38E0
0000
0000
0F80
3FE0
7FE0
78F0
F070
FFF0
FFF8
FFF8
F000
F000
7870
7FF0
3FE0
0F80
ENDCHAR
STARTCHAR 0452
ENCODING 1106
SWIDTH 606 0
DWIDTH 16 0
BBX 14 25 0 -6
BITMAP
3800
3800
FF80
FF80
FF80
3800
38F0
3BF8
3BFC
3E3C
3C3C
3C1C
381C
381C
381C
381C
381C
381C
381C
001C
001C
003C
00FC
00FC
00F8
ENDCHAR
STARTCHAR 0453
ENCODING 1107
SWIDTH 416 0
DWIDTH 11 0
BBX 8 20 2 0
BITMAP
07
0E
1C
38
00
00
FF
FF
FF
E0
E0
E0
E0
E0
E0
E0
E0
E0
E0
E0
ENDCHAR
STARTCHAR 0454
ENCODING 1108
SWIDTH 530 0
DWIDTH 14 0
BBX 13 14 1 0
BITMAP
0F80
3FE0
7FF0
78F0
F078
FF00
FF00
FF00
F000
F078
78F0
7FF0
3FE0
0F80
ENDCHAR
STARTCHAR 0455
ENCODING 1109
SWIDTH 530 0
DWIDTH 14 0
BBX 12 14 1 0
BITMAP
1F80
7FE0
7FF0
F070
F000
7E00
7FC0
1FF0
01F0
0070
E070
FFF0
7FE0
1F80
ENDCHAR
STARTCHAR 0456
ENCODING 1110
SWIDTH 265 0
DWIDTH 7 0
BBX 3 19 2 0
BITMAP
E0
E0
E0
00
00
E0
E0
E0
E0
E0
E0
E0
E0
E0
E0
E0
E0
E0
E0
ENDCHAR
STARTCHAR 0457
ENCODING 1111
SWIDTH 265 0
DWIDTH 7 0
BBX 8 19 0 0
BITMAP
C7
C7
C7
00
00
38
38
38
38
38
38
38
38
38
38
38
38
38
38
ENDCHAR
STARTCHAR 0458
ENCODING 1112
SWIDTH 265 0
DWIDTH 7 0
BBX 5 25 0 -6
BITMAP
38
38
38
00
00
38
38
38
38
38
38
38
38
38
38
38
38
38
38
38
38
38
F8
F8
F0
ENDCHAR
STARTCHAR 0459
ENCODING 1113
SWIDTH 947 0
DWIDTH 25 0
BBX 24 14 0 0
BITMAP
0FFE00
0FFE00
0FFE00
0E1E00
0E1E00
1E1FF8
1E1FFE
1E1FFF
1C1E0F
1C1E0F
3C1E0F
FC1FFF
F81FFE
F01FF8
ENDCHAR
STARTCHAR 045A
ENCODING 1114
SWIDTH 909 0
DWIDTH 24 0
BBX 20 14 2 0
BITMAP
E0E000
E0E000
E0E000
E0E000
E0E000
FFFFC0
FFFFE0
FFFFF0
E0E0F0
E0E070
E0E0F0
E0FFF0
E0FFE0
E0FFC0
ENDCHAR
STARTCHAR 045B
ENCODING 1115
SWIDTH 606 0
DWIDTH 16 0
BBX 14 19 0 0
BITMAP
3800
3800
FF80
FF80
FF80
3800
38F0
3BF8
3BFC
3E3C
3C3C
3C1C
381C
381C
381C
381C
381C
381C
381C
ENDCHAR
STARTCHAR 045C
ENCODING 1116
SWIDTH 492 0
DWIDTH 13 0
BBX 11 20 2 0
BITMAP
03C0
0700
0E00
1C00
0000
0000
E1E0
E1C0
E3C0
E380
E780
EF00
FE00
FE00
E700
E780
E380
E3C0
E1C0
E1E0
ENDCHAR
STARTCHAR 045E
ENCODING 1118
SWIDTH 530 0
DWIDTH 14 0
BBX 14 24 0 -5
BITMAP
3870
3C70
1FF0
0FC0
0000
F03C
703C
7838
3878
3878
3C70
1C70
1CF0
0EE0
0EE0
07C0
07C0
07C0
0780
0780
0F00
7F00
7E00
7C00
ENDCHAR
STARTCHAR 045F
ENCODING 1119
SWIDTH 606 0
DWIDTH 16 0
BBX 12 19 2 -5
BITMAP
E0F0
E0F0
E0F0
E0F0
E0F0
E0F0
E0F0
E0F0
E0F0
E0F0
E0F0
FFF0
FFF0
FFF0
0E00
0E00
0E00
0E00
0E00
ENDCHAR
STARTCHAR 0490
ENCODING 1168
SWIDTH 492 0
DWIDTH 13 0
BBX 10 23 2 0
BITMAP
01C0
01C0
01C0
01C0
01C0
FFC0
FFC0
FFC0
E000
E000
E000
E000
E000
E000
E000
E000
E000
E000
E000
E000
E000
E000
E000
ENDCHAR
STARTCHAR 0491
ENCODING 1169
SWIDTH 454 0
DWIDTH 12 0
BBX 9 19 2 0
BITMAP
0780
0780
0780
0780
0780
FF80
FF80
FF80
E000
E000
E000
E000
E000
E000
E000
E000
E000
E000
E000
ENDCHAR
STARTCHAR 1E80
ENCODING 7808
SWIDTH 947 0
DWIDTH 25 0
BBX 24 24 0 0
BITMAP
00F000
003800
001C00
000E00
000000
000000
F03E07
F03E0F
703E0F
787E0F
787F0E
78771E
38771E
3CF71E
3CE71C
3CE79C
1CE3BC
1CE3BC
1FC3B8
1FC3B8
0FC1F8
0FC1F8
0F81F0
0781F0
ENDCHAR
STARTCHAR 1E81
ENCODING 7809
SWIDTH 757 0
DWIDTH 20 0
BBX 20 19 0 0
BITMAP
038000
01C000
00E000
007000
000000
E0F070
F0F070
70F8F0
71F8E0
71D8E0
7198E0
399CE0
3B9DC0
3B8DC0
3B0DC0
1B0FC0
1F0F80
1F0780
1E0780
ENDCHAR
STARTCHAR 1E82
ENCODING 7810
SWIDTH 947 0
DWIDTH 25 0
BBX 24 24 0 0
BITMAP
000780
000F00
001E00
001800
000000
000000
F03E07
F03E0F
703E0F
787E0F
787F0E
78771E
38771E
3CF71E
3CE71C
3CE79C
1CE3BC
1CE3BC
1FC3B8
1FC3B8
0FC1F8
0FC1F8
0F81F0
0781F0
ENDCHAR
STARTCHAR 1E83
ENCODING 7811
SWIDTH 757 0
DWIDTH 20 0
BBX 20 19 0 0
BITMAP
001E00
003800
007000
00E000
000000
E0F070
F0F070
70F8F0
71F8E0
71D8E0
7198E0
399CE0
3B9DC0
3B8DC0
3B0DC0
1B0FC0
1F0F80
1F0780
1E0780
ENDCHAR
STARTCHAR 1E84
ENCODING 7812
SWIDTH 947 0
DWIDTH 25 0
BBX 24 23 0 0
BITMAP
00E300
00E300
00E300
000000
000000
F03E07
F03E0F
703E0F
787E0F
787F0E
78771E
38771E
3CF71E
3CE71C
3CE79C
1CE3BC
1CE3BC
1FC3B8
1FC3B8
0FC1F8
0FC1F8
0F81F0
0781F0
ENDCHAR
STARTCHAR 1E85
ENCODING 7813
SWIDTH 757 0
DWIDTH 20 0
BBX 20 19 0 0
BITMAP
038C00
038C00
038C00
000000
000000
E0F070
F0F070
70F8F0
71F8E0
71D8E0
7198E0
399CE0
3B9DC0
3B8DC0
3B0DC0
1B0FC0
1F0F80
1F0780
1E0780
ENDCHAR
STARTCHAR 1EF2
ENCODING 7922
SWIDTH 644 0
DWIDTH 17 0
BBX 16 24 1 0
BITMAP
0F00
0700
0380
01C0
0000
0000
F00F
F01E
781C
783C
3C38
1C78
1EF0
0EF0
0FE0
07C0
03C0
03C0
03C0
03C0
03C0
03C0
03C0
03C0
ENDCHAR
STARTCHAR 1EF3
ENCODING 7923
SWIDTH 530 0
DWIDTH 14 0
BBX 14 24 0 -5
BITMAP
1C00
0E00
0700
0380
0000
F03C
703C
7838
3878
3878
3C70
1C70
1CF0
0EE0
0EE0
07C0
07C0
07C0
0780
0780
0F00
7F00
7E00
7C00
ENDCHAR
STARTCHAR 2010
ENCODING 8208
SWIDTH 341 0
DWIDTH 9 0
BBX 7 3 1 5
BITMAP
FE
FE
FE
ENDCHAR
STARTCHAR 2011
ENCODING 8209
SWIDTH 341 0
DWIDTH 9 0
BBX 7 3 1 5
BITMAP
FE
FE
FE
ENDCHAR
STARTCHAR 2013
ENCODING 8211
SWIDTH 530 0
DWIDTH 14 0
BBX 13 3 1 5
BITMAP
FFF8
FFF8
FFF8
ENDCHAR
STARTCHAR 2014
ENCODING 8212
SWIDTH 985 0
DWIDTH 26 0
BBX 26 3 0 5
BITMAP
FFFFFFC0
FFFFFFC0
FFFFFFC0
ENDCHAR
STARTCHAR 2015
ENCODING 8213
SWIDTH 985 0
DWIDTH 26 0
BBX 26 3 0 5
BITMAP
FFFFFFC0
FFFFFFC0
FFFFFFC0
ENDCHAR
STARTCHAR 2017
ENCODING 8215
SWIDTH 530 0
DWIDTH 14 0
BBX 15 4 0 -6
BITMAP
FFFE
0000
0000
FFFE
ENDCHAR
STARTCHAR 2018
ENCODING 8216
SWIDTH 265 0
DWIDTH 7 0
BBX 3 8 2 10
BITMAP
60
C0
C0
C0
E0
E0
E0
E0
ENDCHAR
STARTCHAR 2019
ENCODING 8217
SWIDTH 265 0
DWIDTH 7 0
BBX 3 8 2 10
BITMAP
E0
E0
E0
E0
60
60
60
C0
ENDCHAR
STARTCHAR 201A
ENCODING 8218
SWIDTH 265 0
DWIDTH 7 0
BBX 3 8 2 -4
BITMAP
E0
E0
E0
E0
60
60
60
C0
ENDCHAR
STARTCHAR 201B
ENCODING 8219
SWIDTH 265 0
DWIDTH 7 0
BBX 3 8 2 10
BITMAP
E0
E0
E0
E0
C0
C0
C0
60
ENDCHAR
STARTCHAR 201C
ENCODING 8220
SWIDTH 492 0
DWIDTH 13 0
BBX 9 8 2 10
BITMAP
6380
6300
C300
C600
F780
F780
F780
F780
ENDCHAR
STARTCHAR 201D
ENCODING 8221
SWIDTH 492 0
DWIDTH 13 0
BBX 9 8 2 10
BITMAP
F780
F780
F780
F780
3180
6180
6300
E300
ENDCHAR
STARTCHAR 201E
ENCODING 8222
SWIDTH 492 0
DWIDTH 13 0
BBX 9 8 2 -4
BITMAP
F780
F780
F780
F780
3180
6180
6300
E300
ENDCHAR
STARTCHAR 2020
ENCODING 8224
SWIDTH 530 0
DWIDTH 14 0
BBX 11 21 2 -2
BITMAP
0E00
0E00
0E00
0E00
FFE0
FFE0
FFE0
0C00
0C00
0C00
0C00
0C00
0C00
0C00
0C00
0C00
0C00
0C00
0C00
0C00
0C00
ENDCHAR
STARTCHAR 2021
ENCODING 8225
SWIDTH 530 0
DWIDTH 14 0
BBX 11 21 2 -2
BITMAP
0E00
0E00
0E00
0C00
FFE0
FFE0
FFE0
0C00
0C00
0C00
0C00
0C00
0C00
0C00
FFE0
FFE0
FFE0
0C00
0C00
0E00
0E00
ENDCHAR
STARTCHAR 2022
ENCODING 8226
SWIDTH 341 0
DWIDTH 9 0
BBX 7 7 1 5
BITMAP
38
FE
FE
FE
FE
FE
38
ENDCHAR
STARTCHAR 2026
ENCODING 8230
SWIDTH 985 0
DWIDTH 26 0
BBX 20 4 3 0
BITMAP
F0F0F0
F0F0F0
F0F0F0
F0F0F0
ENDCHAR
STARTCHAR 2030
ENCODING 8240
SWIDTH 985 0
DWIDTH 26 0
BBX 24 18 1 0
BITMAP
781C00
FC1800
CE3800
C63000
C67000
C6E000
CEC000
FDC000
798000
03BC1E
037E3F
076773
0E6363
0C6363
1C6363
186773
387E3F
303C1E
ENDCHAR
STARTCHAR 2032
ENCODING 8242
SWIDTH 227 0
DWIDTH 6 0
BBX 5 6 1 12
BITMAP
78
70
70
F0
E0
E0
ENDCHAR
STARTCHAR 2033
ENCODING 8243
SWIDTH 454 0
DWIDTH 12 0
BBX 11 6 1 12
BITMAP
79E0
71C0
71C0
F1C0
E380
E380
ENDCHAR
STARTCHAR 2039
ENCODING 8249
SWIDTH 341 0
DWIDTH 9 0
BBX 6 11 1 1
BITMAP
1C
3C
38
78
70
E0
70
78
38
3C
1C
ENDCHAR
STARTCHAR 203A
ENCODING 8250
SWIDTH 341 0
DWIDTH 9 0
BBX 6 11 1 1
BITMAP
F0
70
78
3C
1C
1C
1C
38
78
70
F0
ENDCHAR
STARTCHAR 203C
ENCODING 8252
SWIDTH 606 0
DWIDTH 16 0
BBX 11 18 2 0
BITMAP
F0E0
70E0
70E0
70E0
70E0
70E0
70E0
70E0
70E0
70E0
70E0
70E0
0000
0000
F0E0
F0E0
F0E0
F0E0
ENDCHAR
STARTCHAR 203E
ENCODING 8254
SWIDTH 341 0
DWIDTH 9 0
BBX 12 3 -2 18
BITMAP
FFF0
FFF0
FFF0
ENDCHAR
STARTCHAR 2044
ENCODING 8260
SWIDTH 151 0
DWIDTH 4 0
BBX 13 18 -4 0
BITMAP
0038
0030
0070
00E0
00C0
01C0
0380
0300
0700
0600
0E00
1C00
1800
3800
7000
6000
E000
C000
ENDCHAR
STARTCHAR 207F
ENCODING 8319
SWIDTH 378 0
DWIDTH 10 0
BBX 8 8 1 7
BITMAP
FE
FF
E3
E3
E3
E3
E3
E3
ENDCHAR
STARTCHAR 20A3
ENCODING 8355
SWIDTH 530 0
DWIDTH 14 0
BBX 14 18 0 0
BITMAP
3FFC
3FFC
3FFC
3800
3800
3800
3800
3FF8
3FF8
3FF8
3800
3800
FF80
FF80
FF80
3800
3800
3800
ENDCHAR
STARTCHAR 20A4
ENCODING 8356
SWIDTH 530 0
DWIDTH 14 0
BBX 14 18 0 0
BITMAP
07E0
0FF0
1FF8
1C38
1C00
1C00
FF80
FF80
1C00
FF80
FF80
1C00
3C00
381C
703C
FFFC
FFF8
FFE0
ENDCHAR
STARTCHAR 20A7
ENCODING 8359
SWIDTH 1061 0
DWIDTH 28 0
BBX 26 18 2 0
BITMAP
FE000000
FF800000
FFC00000
E1C00000
E1E00000
E0EC0000
E1EC0000
E1DC3F00
FFFF7F80
FFFF6380
FFBF7000
E01C7E00
E01C3F80
E01C0F80
E01CE1C0
E01CE180
E01F7F80
E00F3F00
ENDCHAR
STARTCHAR 20AC
ENCODING 8364
SWIDTH 530 0
DWIDTH 14 0
BBX 14 18 0 0
BITMAP
07E0
0FF0
1FF8
3E3C
3C3C
3800
FF80
FF80
3800
FFC0
FF80
3800
3C00
3C3C
1E3C
1FF8
0FF0
03E0
ENDCHAR
STARTCHAR 2105
ENCODING 8453
SWIDTH 871 0
DWIDTH 23 0
BBX 21 18 1 0
BITMAP
3C0180
7E0380
E70700
E30600
C00E00
C01C00
C01800
E339E0
E777F0
7F6738
3CEE38
00CE18
01CE18
038E18
030638
070738
0E07F0
0C01E0
ENDCHAR
STARTCHAR 2113
ENCODING 8467
SWIDTH 492 0
DWIDTH 13 0
BBX 11 18 1 0
BITMAP
0F80
3FC0
3FE0
79E0
78E0
78E0
79C0
7BC0
7F80
7F00
FC00
F800
F800
7860
78C0
7FC0
3F80
1F00
ENDCHAR
STARTCHAR 2116
ENCODING 8470
SWIDTH 1098 0
DWIDTH 29 0
BBX 26 18 2 0
BITMAP
F00E0000
F00E0000
F80E0000
FC0E0000
FC0E0000
FE0E0000
EF0E1F00
E70E3F80
E78E7380
E38E71C0
E1CE71C0
E1EE71C0
E0EE7380
E0FE3F80
E07E1F00
E03E0000
E03E7F80
E01E7F80
ENDCHAR
STARTCHAR 2122
ENCODING 8482
SWIDTH 985 0
DWIDTH 26 0
BBX 21 9 2 9
BITMAP
FF7878
FF7878
186878
186CD8
186CD8
186798
186798
186398
186318
ENDCHAR
STARTCHAR 2126
ENCODING 8486
SWIDTH 757 0
DWIDTH 20 0
BBX 18 18 1 0
BITMAP
07F800
1FFE00
3FFF00
7E1F00
780780
780780
F00380
F003C0
F00380
700380
780780
780780
3C0F00
1E1E00
0F3C00
FF3FC0
FF3FC0
FF3FC0
ENDCHAR
STARTCHAR 212E
ENCODING 8494
SWIDTH 606 0
DWIDTH 16 0
BBX 14 14 1 0
BITMAP
0FC0
3860
2010
6018
E018
E018
FFFC
E000
E000
6000
6008
2010
3860
0FC0
ENDCHAR
STARTCHAR 215B
ENCODING 8539
SWIDTH 833 0
DWIDTH 22 0
BBX 19 18 1 0
BITMAP
380380
780300
580600
180E00
180C00
181C00
183800
183000
FE77C0
FEEFE0
00CE60
01CE60
0187C0
0387E0
070C60
060C60
0E0FE0
1C07C0
ENDCHAR
STARTCHAR 215C
ENCODING 8540
SWIDTH 833 0
DWIDTH 22 0
BBX 19 18 1 0
BITMAP
3C0300
7E0700
E60600
060E00
1C1C00
1E1800
073800
E77000
7E67C0
3CEFE0
00CE60
01CE60
0387C0
0307E0
070C60
0E0C60
0C0FE0
1C07C0
ENDCHAR
STARTCHAR 215D
ENCODING 8541
SWIDTH 833 0
DWIDTH 22 0
BBX 19 18 1 0
BITMAP
7E0300
7E0700
600600
7C0E00
7E1C00
071800
073800
E77000
7E67C0
3CEFE0
00CE60
01CE60
0387C0
0307E0
070C60
0E0C60
0C0FE0
1C07C0
ENDCHAR
STARTCHAR 215E
ENCODING 8542
SWIDTH 833 0
DWIDTH 22 0
BBX 18 18 2 0
BITMAP
FE0600
FE0E00
061C00
0C1800
1C3800
187000
386000
30E000
30CF80
31DFC0
039CC0
031CC0
070F80
0E0FC0
0C18C0
1C18C0
181FC0
300F80
ENDCHAR
STARTCHAR 2190
ENCODING 8592
SWIDTH 985 0
DWIDTH 26 0
BBX 16 7 5 1
BITMAP
0800
1000
3000
FFFF
3000
1000
0800
ENDCHAR
STARTCHAR 2191
ENCODING 8593
SWIDTH 492 0
DWIDTH 13 0
BBX 7 15 3 0
BITMAP
10
38
7C
D6
10
10
10
10
10
10
10
10
10
10
10
ENDCHAR
STARTCHAR 2192
ENCODING 8594
SWIDTH 985 0
DWIDTH 26 0
BBX 16 7 5 1
BITMAP
0010
0008
000C
FFFF
000C
0008
0010
ENDCHAR
STARTCHAR 2193
ENCODING 8595
SWIDTH 492 0
DWIDTH 13 0
BBX 7 15 3 0
BITMAP
10
10
10
10
10
10
10
10
10
10
10
D6
7C
38
10
ENDCHAR
STARTCHAR 2194
ENCODING 8596
SWIDTH 985 0
DWIDTH 26 0
BBX 16 7 5 1
BITMAP
0810
1008
300C
FFFF
300C
1008
0810
ENDCHAR
STARTCHAR 2195
ENCODING 8597
SWIDTH 492 0
DWIDTH 13 0
BBX 7 15 3 0
BITMAP
10
38
7C
D6
10
10
10
10
10
10
10
D6
7C
38
10
ENDCHAR
STARTCHAR 21A8
ENCODING 8616
SWIDTH 492 0
DWIDTH 13 0
BBX 7 17 3 -2
BITMAP
10
38
7C
D6
10
10
10
10
10
10
10
D6
7C
38
10
00
FE
ENDCHAR
STARTCHAR 2202
ENCODING 8706
SWIDTH 492 0
DWIDTH 13 0
BBX 11 19 1 0
BITMAP
0F00
1F80
1FC0
01C0
00E0
00E0
1EE0
3FE0
7FE0
71E0
F0E0
E0E0
E1C0
E1C0
E3C0
E380
FF80
7F00
3C00
ENDCHAR
STARTCHAR 2206
ENCODING 8710
SWIDTH 606 0
DWIDTH 16 0
BBX 14 18 1 0
BITMAP
0F80
0FC0
0FC0
1FC0
1DE0
1CE0
3CE0
3CF0
3870
7870
7878
7038
F038
F03C
E03C
FFFC
FFFC
FFFC
ENDCHAR
STARTCHAR 220F
ENCODING 8719
SWIDTH 795 0
DWIDTH 21 0
BBX 16 24 3 -6
BITMAP
FFFF
FFFF
FFFF
E00F
E00F
E00F
E00F
E00F
E00F
E00F
E00F
E00F
E00F
E00F
E00F
E00F
E00F
E00F
E00F
E00F
E00F
E00F
E00F
E00F
ENDCHAR
STARTCHAR 2211
ENCODING 8721
SWIDTH 720 0
DWIDTH 19 0
BBX 15 24 2 -6
BITMAP
FFFC
FFFC
FFFC
7800
3C00
1E00
1E00
0F00
0780
03C0
01E0
01E0
01E0
03C0
0780
0F00
0F00
1E00
3C00
7C00
7800
FFFE
FFFE
FFFE
ENDCHAR
STARTCHAR 2212
ENCODING 8722
SWIDTH 568 0
DWIDTH 15 0
BBX 13 3 1 7
BITMAP
FFF8
FFF8
FFF8
ENDCHAR
STARTCHAR 2215
ENCODING 8725
SWIDTH 151 0
DWIDTH 4 0
BBX 13 18 -4 0
BITMAP
0038
0030
0070
00E0
00C0
01C0
0380
0300
0700
0600
0E00
1C00
1800
3800
7000
6000
E000
C000
ENDCHAR
STARTCHAR 2219
ENCODING 8729
SWIDTH 265 0
DWIDTH 7 0
BBX 3 4 2 7
BITMAP
E0
E0
E0
E0
ENDCHAR
STARTCHAR 221A
ENCODING 8730
SWIDTH 530 0
DWIDTH 14 0
BBX 14 21 0 0
BITMAP
000C
000C
001C
0018
0018
0038
0030
0030
0070
F060
F060
F8E0
18E0
1CC0
1CC0
0DC0
0F80
0F80
0780
0700
0700
ENDCHAR
STARTCHAR 221E
ENCODING 8734
SWIDTH 720 0
DWIDTH 19 0
BBX 17 9 1 3
BITMAP
3C1C00
7E7F00
E36700
E3C380
C1C380
C3C380
E3E300
7E7F00
3C3E00
ENDCHAR
STARTCHAR 221F
ENCODING 8735
SWIDTH 947 0
DWIDTH 25 0
BBX 16 15 5 0
BITMAP
8000
8000
8000
8000
8000
8000
8000
8000
8000
8000
8000
8000
8000
8000
FFFF
ENDCHAR
STARTCHAR 2229
ENCODING 8745
SWIDTH 720 0
DWIDTH 19 0
BBX 11 13 4 0
BITMAP
1F00
3F80
61C0
C060
8060
8020
8020
8020
8020
8020
8020
8020
8020
ENDCHAR
STARTCHAR 222B
ENCODING 8747
SWIDTH 265 0
DWIDTH 7 0
BBX 11 25 -2 -6
BITMAP
03E0
07E0
0FE0
0F00
0F00
0E00
0E00
0E00
0E00
0E00
0E00
0E00
0E00
0E00
0E00
0E00
0E00
0E00
0E00
0E00
0E00
1E00
FE00
FC00
F800
ENDCHAR
STARTCHAR 2248
ENCODING 8776
SWIDTH 530 0
DWIDTH 14 0
BBX 13 12 1 3
BITMAP
7800
FF18
FFF8
87F8
01F0
0000
0000
7800
FF18
FFF8
87F8
01F0
ENDCHAR
STARTCHAR 2260
ENCODING 8800
SWIDTH 530 0
DWIDTH 14 0
BBX 14 16 0 1
BITMAP
0070
0070
00E0
FFFC
FFFC
FFFC
0380
0380
0700
0600
FFFC
FFFC
FFFC
1C00
3800
3000
ENDCHAR
STARTCHAR 2261
ENCODING 8801
SWIDTH 568 0
DWIDTH 15 0
BBX 13 11 1 3
BITMAP
FFF8
FFF8
0000
0000
FFF8
FFF8
0000
0000
0000
FFF8
FFF8
ENDCHAR
STARTCHAR 2264
ENCODING 8804
SWIDTH 530 0
DWIDTH 14 0
BBX 13 16 1 0
BITMAP
0018
01F8
0FF8
FFE0
FE00
F000
F000
FE00
FFE0
0FF8
01F8
0018
0000
FFF8
FFF8
FFF8
ENDCHAR
STARTCHAR 2265
ENCODING 8805
SWIDTH 530 0
DWIDTH 14 0
BBX 13 16 1 0
BITMAP
8000
F800
FF00
7FF0
07F8
00F8
00F8
07F8
7FF0
FF00
F800
8000
0000
FFF8
FFF8
FFF8
ENDCHAR
STARTCHAR 2302
ENCODING 8962
SWIDTH 606 0
DWIDTH 16 0
BBX 12 15 2 0
BITMAP
0400
0600
0B00
1980
30C0
6060
C030
8010
8010
8010
8010
8010
8010
8010
FFF0
ENDCHAR
STARTCHAR 2310
ENCODING 8976
SWIDTH 568 0
DWIDTH 15 0
BBX 13 8 1 2
BITMAP
FFF8
FFF8
FFF8
C000
C000
C000
C000
C000
ENDCHAR
STARTCHAR 2320
ENCODING 8992
SWIDTH 606 0
DWIDTH 16 0
BBX 5 30 7 -8
BITMAP
38
58
D8
C0
C0
C0
C0
C0
C0
C0
C0
C0
C0
C0
C0
C0
C0
C0
C0
C0
C0
C0
C0
C0
C0
C0
C0
C0
C0
C0
ENDCHAR
STARTCHAR 2321
ENCODING 8993
SWIDTH 606 0
DWIDTH 16 0
BBX 6 30 3 -8
BITMAP
0C
0C
0C
0C
0C
0C
0C
0C
0C
0C
0C
0C
0C
0C
0C
0C
0C
0C
0C
0C
0C
0C
0C
0C
0C
0C
0C
48
E8
70
ENDCHAR
STARTCHAR 2500
ENCODING 9472
SWIDTH 682 0
DWIDTH 18 0
BBX 19 2 0 7
BITMAP
FFFFE0
FFFFE0
ENDCHAR
STARTCHAR 2502
ENCODING 9474
SWIDTH 606 0
DWIDTH 16 0
BBX 2 32 6 -8
BITMAP
C0
C0
C0
C0
C0
C0
C0
C0
C0
C0
C0
C0
C0
C0
C0
C0
C0
C0
C0
C0
C0
C0
C0
C0
C0
C0
C0
C0
C0
C0
C0
C0
ENDCHAR
STARTCHAR 250C
ENCODING 9484
SWIDTH 682 0
DWIDTH 18 0
BBX 11 17 8 -8
BITMAP
FFE0
FFE0
C000
C000
C000
C000
C000
C000
C000
C000
C000
C000
C000
C000
C000
C000
C000
ENDCHAR
STARTCHAR 2510
ENCODING 9488
SWIDTH 682 0
DWIDTH 18 0
BBX 10 17 0 -8
BITMAP
FFC0
FFC0
00C0
00C0
00C0
00C0
00C0
00C0
00C0
00C0
00C0
00C0
00C0
00C0
00C0
00C0
00C0
ENDCHAR
STARTCHAR 2514
ENCODING 9492
SWIDTH 682 0
DWIDTH 18 0
BBX 11 17 8 7
BITMAP
C000
C000
C000
C000
C000
C000
C000
C000
C000
C000
C000
C000
C000
C000
C000
FFE0
FFE0
ENDCHAR
STARTCHAR 2518
ENCODING 9496
SWIDTH 682 0
DWIDTH 18 0
BBX 10 17 0 7
BITMAP
00C0
00C0
00C0
00C0
00C0
00C0
00C0
00C0
00C0
00C0
00C0
00C0
00C0
00C0
00C0
FFC0
FFC0
ENDCHAR
STARTCHAR 251C
ENCODING 9500
SWIDTH 682 0
DWIDTH 18 0
BBX 11 32 8 -8
BITMAP
C000
C000
C000
C000
C000
C000
C000
C000
C000
C000
C000
C000
C000
C000
C000
FFE0
FFE0
C000
C000
C000
C000
C000
C000
C000
C000
C000
C000
C000
C000
C000
C000
C000
ENDCHAR
STARTCHAR 2524
ENCODING 9508
SWIDTH 682 0
DWIDTH 18 0
BBX 10 32 0 -8
BITMAP
00C0
00C0
00C0
00C0
00C0
00C0
00C0
00C0
00C0
00C0
00C0
00C0
00C0
00C0
00C0
FFC0
FFC0
00C0
00C0
00C0
00C0
00C0
00C0
00C0
00C0
00C0
00C0
00C0
00C0
00C0
00C0
00C0
ENDCHAR
STARTCHAR 252C
ENCODING 9516
SWIDTH 682 0
DWIDTH 18 0
BBX 19 17 0 -8
BITMAP
FFFFE0
FFFFE0
00C000
00C000
00C000
00C000
00C000
00C000
00C000
00C000
00C000
00C000
00C000
00C000
00C000
00C000
00C000
ENDCHAR
STARTCHAR 2534
ENCODING 9524
SWIDTH 682 0
DWIDTH 18 0
BBX 19 17 0 7
BITMAP
00C000
00C000
00C000
00C000
00C000
00C000
00C000
00C000
00C000
00C000
00C000
00C000
00C000
00C000
00C000
FFFFE0
FFFFE0
ENDCHAR
STARTCHAR 253C
ENCODING 9532
SWIDTH 682 0
DWIDTH 18 0
BBX 19 32 0 -8
BITMAP
00C000
00C000
00C000
00C000
00C000
00C000
00C000
00C000
00C000
00C000
00C000
00C000
00C000
00C000
00C000
FFFFE0
FFFFE0
00C000
00C000
00C000
00C000
00C000
00C000
00C000
00C000
00C000
00C000
00C000
00C000
00C000
00C000
00C000
ENDCHAR
STARTCHAR 2550
ENCODING 9552
SWIDTH 682 0
DWIDTH 18 0
BBX 19 6 0 5
BITMAP
FFFFE0
FFFFE0
000000
000000
FFFFE0
FFFFE0
ENDCHAR
STARTCHAR 2551
ENCODING 9553
SWIDTH 682 0
DWIDTH 18 0
BBX 6 32 6 -8
BITMAP
C4
C4
C4
C4
C4
C4
C4
C4
C4
C4
C4
C4
C4
C4
C4
C4
C4
C4
C4
C4
C4
C4
C4
C4
C4
C4
C4
C4
C4
C4
C4
C4
ENDCHAR
STARTCHAR 2552
ENCODING 9554
SWIDTH 682 0
DWIDTH 18 0
BBX 11 19 8 -8
BITMAP
FFE0
FFE0
C000
C000
FFE0
FFE0
C000
C000
C000
C000
C000
C000
C000
C000
C000
C000
C000
C000
C000
ENDCHAR
STARTCHAR 2553
ENCODING 9555
SWIDTH 682 0
DWIDTH 18 0
BBX 13 17 6 -8
BITMAP
FFF8
FFF8
C400
C400
C400
C400
C400
C400
C400
C400
C400
C400
C400
C400
C400
C400
C400
ENDCHAR
STARTCHAR 2554
ENCODING 9556
SWIDTH 682 0
DWIDTH 18 0
BBX 13 19 6 -8
BITMAP
FFF8
FFF8
C000
C000
C7F8
C7F8
C400
C400
C400
C400
C400
C400
C400
C400
C400
C400
C400
C400
C400
ENDCHAR
STARTCHAR 2555
ENCODING 9557
SWIDTH 682 0
DWIDTH 18 0
BBX 10 19 0 -8
BITMAP
FFC0
FFC0
00C0
00C0
FFC0
FFC0
00C0
00C0
00C0
00C0
00C0
00C0
00C0
00C0
00C0
00C0
00C0
00C0
00C0
ENDCHAR
STARTCHAR 2556
ENCODING 9558
SWIDTH 682 0
DWIDTH 18 0
BBX 12 17 0 -8
BITMAP
FFF0
FFF0
0310
0310
0310
0310
0310
0310
0310
0310
0310
0310
0310
0310
0310
0310
0310
ENDCHAR
STARTCHAR 2557
ENCODING 9559
SWIDTH 682 0
DWIDTH 18 0
BBX 12 19 0 -8
BITMAP
FFF0
FFF0
0010
0010
FF10
FF10
0310
0310
0310
0310
0310
0310
0310
0310
0310
0310
0310
0310
0310
ENDCHAR
STARTCHAR 2558
ENCODING 9560
SWIDTH 682 0
DWIDTH 18 0
BBX 11 19 8 5
BITMAP
C000
C000
C000
C000
C000
C000
C000
C000
C000
C000
C000
C000
C000
FFE0
FFE0
C000
C000
FFE0
FFE0
ENDCHAR
STARTCHAR 2559
ENCODING 9561
SWIDTH 682 0
DWIDTH 18 0
BBX 13 17 6 7
BITMAP
C400
C400
C400
C400
C400
C400
C400
C400
C400
C400
C400
C400
C400
C400
C400
FFF8
FFF8
ENDCHAR
STARTCHAR 255A
ENCODING 9562
SWIDTH 682 0
DWIDTH 18 0
BBX 13 19 6 5
BITMAP
C400
C400
C400
C400
C400
C400
C400
C400
C400
C400
C400
C400
C400
C7F8
C7F8
C000
C000
FFF8
FFF8
ENDCHAR
STARTCHAR 255B
ENCODING 9563
SWIDTH 682 0
DWIDTH 18 0
BBX 10 19 0 5
BITMAP
00C0
00C0
00C0
00C0
00C0
00C0
00C0
00C0
00C0
00C0
00C0
00C0
00C0
FFC0
FFC0
00C0
00C0
FFC0
FFC0
ENDCHAR
STARTCHAR 255C
ENCODING 9564
SWIDTH 682 0
DWIDTH 18 0
BBX 12 17 0 7
BITMAP
0310
0310
0310
0310
0310
0310
0310
0310
0310
0310
0310
0310
0310
0310
0310
FFF0
FFF0
ENDCHAR
STARTCHAR 255D
ENCODING 9565
SWIDTH 682 0
DWIDTH 18 0
BBX 12 19 0 5
BITMAP
0310
0310
0310
0310
0310
0310
0310
0310
0310
0310
0310
0310
0310
FF10
FF10
0010
0010
FFF0
FFF0
ENDCHAR
STARTCHAR 255E
ENCODING 9566
SWIDTH 682 0
DWIDTH 18 0
BBX 11 32 8 -8
BITMAP
C000
C000
C000
C000
C000
C000
C000
C000
C000
C000
C000
C000
C000
FFE0
FFE0
C000
C000
FFE0
FFE0
C000
C000
C000
C000
C000
C000
C000
C000
C000
C000
C000
C000
C000
ENDCHAR
STARTCHAR 255F
ENCODING 9567
SWIDTH 682 0
DWIDTH 18 0
BBX 13 32 6 -8
BITMAP
C400
C400
C400
C400
C400
C400
C400
C400
C400
C400
C400
C400
C400
C400
C400
C7F8
C7F8
C400
C400
C400
C400
C400
C400
C400
C400
C400
C400
C400
C400
C400
C400
C400
ENDCHAR
STARTCHAR 2560
ENCODING 9568
SWIDTH 682 0
DWIDTH 18 0
BBX 13 32 6 -8
BITMAP
C400
C400
C400
C400
C400
C400
C400
C400
C400
C400
C400
C400
C400
C7F8
C7F8
C000
C000
C7F8
C7F8
C400
C400
C400
C400
C400
C400
C400
C400
C400
C400
C400
C400
C400
ENDCHAR
STARTCHAR 2561
ENCODING 9569
SWIDTH 682 0
DWIDTH 18 0
BBX 10 32 0 -8
BITMAP
00C0
00C0
00C0
00C0
00C0
00C0
00C0
00C0
00C0
00C0
00C0
00C0
00C0
FFC0
FFC0
00C0
00C0
FFC0
FFC0
00C0
00C0
00C0
00C0
00C0
00C0
00C0
00C0
00C0
00C0
00C0
00C0
00C0
ENDCHAR
STARTCHAR 2562
ENCODING 9570
SWIDTH 682 0
DWIDTH 18 0
BBX 12 32 0 -8
BITMAP
0310
0310
0310
0310
0310
0310
0310
0310
0310
0310
0310
0310
0310
0310
0310
FF10
FF10
0310
0310
0310
0310
0310
0310
0310
0310
0310
0310
0310
0310
0310
0310
0310
ENDCHAR
STARTCHAR 2563
ENCODING 9571
SWIDTH 682 0
DWIDTH 18 0
BBX 12 32 0 -8
BITMAP
0310
0310
0310
0310
0310
0310
0310
0310
0310
0310
0310
0310
0310
FF10
FF10
0010
0010
FF10
FF10
0310
0310
0310
0310
0310
0310
0310
0310
0310
0310
0310
0310
0310
ENDCHAR
STARTCHAR 2564
ENCODING 9572
SWIDTH 682 0
DWIDTH 18 0
BBX 19 19 0 -8
BITMAP
FFFFE0
FFFFE0
000000
000000
FFFFE0
FFFFE0
00C000
00C000
00C000
00C000
00C000
00C000
00C000
00C000
00C000
00C000
00C000
00C000
00C000
ENDCHAR
STARTCHAR 2565
ENCODING 9573
SWIDTH 682 0
DWIDTH 18 0
BBX 19 17 0 -8
BITMAP
FFFFE0
FFFFE0
031000
031000
031000
031000
031000
031000
031000
031000
031000
031000
031000
031000
031000
031000
031000
ENDCHAR
STARTCHAR 2566
ENCODING 9574
SWIDTH 682 0
DWIDTH 18 0
BBX 19 19 0 -8
BITMAP
FFFFE0
FFFFE0
000000
000000
FF1FE0
FF1FE0
031000
031000
031000
031000
031000
031000
031000
031000
031000
031000
031000
031000
031000
ENDCHAR
STARTCHAR 2567
ENCODING 9575
SWIDTH 682 0
DWIDTH 18 0
BBX 19 19 0 5
BITMAP
00C000
00C000
00C000
00C000
00C000
00C000
00C000
00C000
00C000
00C000
00C000
00C000
00C000
FFFFE0
FFFFE0
000000
000000
FFFFE0
FFFFE0
ENDCHAR
STARTCHAR 2568
ENCODING 9576
SWIDTH 682 0
DWIDTH 18 0
BBX 19 17 0 7
BITMAP
031000
031000
031000
031000
031000
031000
031000
031000
031000
031000
031000
031000
031000
031000
031000
FFFFE0
FFFFE0
ENDCHAR
STARTCHAR 2569
ENCODING 9577
SWIDTH 682 0
DWIDTH 18 0
BBX 19 19 0 5
BITMAP
031000
031000
031000
031000
031000
031000
031000
031000
031000
031000
031000
031000
031000
FF1FE0
FF1FE0
000000
000000
FFFFE0
FFFFE0
ENDCHAR
STARTCHAR 256A
ENCODING 9578
SWIDTH 682 0
DWIDTH 18 0
BBX 19 32 0 -8
BITMAP
00C000
00C000
00C000
00C000
00C000
00C000
00C000
00C000
00C000
00C000
00C000
00C000
00C000
FFFFE0
FFFFE0
00C000
00C000
FFFFE0
FFFFE0
00C000
00C000
00C000
00C000
00C000
00C000
00C000
00C000
00C000
00C000
00C000
00C000
00C000
ENDCHAR
STARTCHAR 256B
ENCODING 9579
SWIDTH 682 0
DWIDTH 18 0
BBX 19 32 0 -8
BITMAP
031000
031000
031000
031000
031000
031000
031000
031000
031000
031000
031000
031000
031000
031000
031000
FFFFE0
FFFFE0
031000
031000
031000
031000
031000
031000
031000
031000
031000
031000
031000
031000
031000
031000
031000
ENDCHAR
STARTCHAR 256C
ENCODING 9580
SWIDTH 682 0
DWIDTH 18 0
BBX 19 32 0 -8
BITMAP
031000
031000
031000
031000
031000
031000
031000
031000
031000
031000
031000
031000
031000
FF1FE0
FF1FE0
000000
000000
FF1FE0
FF1FE0
031000
031000
031000
031000
031000
031000
031000
031000
031000
031000
031000
031000
031000
ENDCHAR
STARTCHAR 2580
ENCODING 9600
SWIDTH 682 0
DWIDTH 18 0
BBX 18 16 0 8
BITMAP
FFFFC0
FFFFC0
FFFFC0
FFFFC0
FFFFC0
FFFFC0
FFFFC0
FFFFC0
FFFFC0
FFFFC0
FFFFC0
FFFFC0
FFFFC0
FFFFC0
FFFFC0
FFFFC0
ENDCHAR
STARTCHAR 2584
ENCODING 9604
SWIDTH 682 0
DWIDTH 18 0
BBX 18 16 0 -8
BITMAP
FFFFC0
FFFFC0
FFFFC0
FFFFC0
FFFFC0
FFFFC0
FFFFC0
FFFFC0
FFFFC0
FFFFC0
FFFFC0
FFFFC0
FFFFC0
FFFFC0
FFFFC0
FFFFC0
ENDCHAR
STARTCHAR 2588
ENCODING 9608
SWIDTH 682 0
DWIDTH 18 0
BBX 18 32 0 -8
BITMAP
FFFFC0
FFFFC0
FFFFC0
FFFFC0
FFFFC0
FFFFC0
FFFFC0
FFFFC0
FFFFC0
FFFFC0
FFFFC0
FFFFC0
FFFFC0
FFFFC0
FFFFC0
FFFFC0
FFFFC0
FFFFC0
FFFFC0
FFFFC0
FFFFC0
FFFFC0
FFFFC0
FFFFC0
FFFFC0
FFFFC0
FFFFC0
FFFFC0
FFFFC0
FFFFC0
FFFFC0
FFFFC0
ENDCHAR
STARTCHAR 258C
ENCODING 9612
SWIDTH 682 0
DWIDTH 18 0
BBX 9 32 0 -8
BITMAP
FF80
FF80
FF80
FF80
FF80
FF80
FF80
FF80
FF80
FF80
FF80
FF80
FF80
FF80
FF80
FF80
FF80
FF80
FF80
FF80
FF80
FF80
FF80
FF80
FF80
FF80
FF80
FF80
FF80
FF80
FF80
FF80
ENDCHAR
STARTCHAR 2590
ENCODING 9616
SWIDTH 682 0
DWIDTH 18 0
BBX 9 32 9 -8
BITMAP
FF80
FF80
FF80
FF80
FF80
FF80
FF80
FF80
FF80
FF80
FF80
FF80
FF80
FF80
FF80
FF80
FF80
FF80
FF80
FF80
FF80
FF80
FF80
FF80
FF80
FF80
FF80
FF80
FF80
FF80
FF80
FF80
ENDCHAR
STARTCHAR 2591
ENCODING 9617
SWIDTH 682 0
DWIDTH 18 0
BBX 17 28 1 -6
BITMAP
C21080
000000
10C600
000000
000000
C21080
000000
10C600
000000
000000
C21080
000000
10C600
000000
000000
C21080
000000
10C600
000000
000000
C21080
000000
10C600
000000
000000
C21080
000000
10C600
ENDCHAR
STARTCHAR 2592
ENCODING 9618
SWIDTH 682 0
DWIDTH 18 0
BBX 18 29 0 -7
BITMAP
696B40
696B40
000000
969480
000000
696B40
696B40
000000
969480
000000
696B40
000000
000000
969480
000000
696B40
000000
000000
969480
000000
696B40
000000
000000
969480
000000
696B40
000000
969480
969480
ENDCHAR
STARTCHAR 2593
ENCODING 9619
SWIDTH 720 0
DWIDTH 19 0
BBX 19 30 0 -8
BITMAP
696D20
696D20
FFFFE0
9692C0
FFFFE0
696D20
696D20
FFFFE0
9692C0
FFFFE0
696D20
FFFFE0
FFFFE0
9692C0
FFFFE0
696D20
FFFFE0
FFFFE0
9692C0
FFFFE0
696D20
FFFFE0
FFFFE0
9692C0
FFFFE0
696D20
FFFFE0
9692C0
9692C0
FFFFE0
ENDCHAR
STARTCHAR 25A0
ENCODING 9632
SWIDTH 606 0
DWIDTH 16 0
BBX 12 13 2 1
BITMAP
FFF0
FFF0
FFF0
FFF0
FFF0
FFF0
FFF0
FFF0
FFF0
FFF0
FFF0
FFF0
FFF0
ENDCHAR
STARTCHAR 25A1
ENCODING 9633
SWIDTH 606 0
DWIDTH 16 0
BBX 16 16 0 0
BITMAP
FFFF
8001
8001
8001
8001
8001
8001
8001
8001
8001
8001
8001
8001
8001
8001
FFFF
ENDCHAR
STARTCHAR 25AA
ENCODING 9642
SWIDTH 341 0
DWIDTH 9 0
BBX 7 6 1 5
BITMAP
FE
FE
FE
FE
FE
FE
ENDCHAR
STARTCHAR 25AB
ENCODING 9643
SWIDTH 341 0
DWIDTH 9 0
BBX 7 6 1 5
BITMAP
FE
82
82
82
82
FE
ENDCHAR
STARTCHAR 25AC
ENCODING 9644
SWIDTH 985 0
DWIDTH 26 0
BBX 26 8 0 0
BITMAP
FFFFFFC0
FFFFFFC0
FFFFFFC0
FFFFFFC0
FFFFFFC0
FFFFFFC0
FFFFFFC0
FFFFFFC0
ENDCHAR
STARTCHAR 25B2
ENCODING 9650
SWIDTH 985 0
DWIDTH 26 0
BBX 15 15 5 0
BITMAP
0100
0180
0180
03C0
07C0
07E0
0FE0
0FF0
1FF0
1FF8
3FF8
3FFC
7FFC
7FFE
FFFE
ENDCHAR
STARTCHAR 25BA
ENCODING 9658
SWIDTH 985 0
DWIDTH 26 0
BBX 16 15 5 0
BITMAP
C000
F000
FC00
FF00
FFC0
FFE0
FFFC
FFFF
FFFC
FFF0
FFC0
FF00
FC00
F000
C000
ENDCHAR
STARTCHAR 25BC
ENCODING 9660
SWIDTH 985 0
DWIDTH 26 0
BBX 15 15 5 0
BITMAP
FFFE
7FFE
7FFC
3FFC
3FF8
1FF8
1FF0
0FF0
0FE0
07E0
07C0
03C0
0380
0180
0100
ENDCHAR
STARTCHAR 25C4
ENCODING 9668
SWIDTH 985 0
DWIDTH 26 0
BBX 16 15 5 0
BITMAP
0003
000F
003F
00FF
03FF
0FFF
3FFF
FFFF
3FFF
0FFF
03FF
00FF
003F
000F
0003
ENDCHAR
STARTCHAR 25CA
ENCODING 9674
SWIDTH 492 0
DWIDTH 13 0
BBX 13 18 0 0
BITMAP
0600
0700
0F80
0D80
1DC0
38E0
3060
7070
E038
E038
7070
3060
38E0
19C0
0D80
0F80
0700
0600
ENDCHAR
STARTCHAR 25CB
ENCODING 9675
SWIDTH 606 0
DWIDTH 16 0
BBX 12 11 2 3
BITMAP
1F00
30C0
4060
C020
8020
8030
8020
C020
4060
30C0
1F00
ENDCHAR
STARTCHAR 25CF
ENCODING 9679
SWIDTH 606 0
DWIDTH 16 0
BBX 11 11 2 2
BITMAP
0F00
3FC0
7FE0
7FE0
FFE0
FFE0
FFE0
7FE0
7FE0
3FC0
1F00
ENDCHAR
STARTCHAR 25D8
ENCODING 9688
SWIDTH 606 0
DWIDTH 16 0
BBX 14 15 1 0
BITMAP
FFFC
FFFC
F87C
E01C
C01C
C00C
800C
800C
800C
C00C
C01C
E01C
F87C
FFFC
FFFC
ENDCHAR
STARTCHAR 25D9
ENCODING 9689
SWIDTH 606 0
DWIDTH 16 0
BBX 14 15 1 0
BITMAP
FFFC
FFFC
F87C
E79C
DFDC
DFEC
BFEC
BFEC
BFEC
DFEC
DFDC
E79C
F87C
FFFC
FFFC
ENDCHAR
STARTCHAR 25E6
ENCODING 9702
SWIDTH 341 0
DWIDTH 9 0
BBX 7 6 1 5
BITMAP
38
44
C2
82
44
38
ENDCHAR
STARTCHAR 263A
ENCODING 9786
SWIDTH 1023 0
DWIDTH 27 0
BBX 16 16 5 0
BITMAP
03E0
0C18
100C
2006
6002
4C33
4C31
C001
4001
4001
4413
6622
23C6
100C
0C18
03E0
ENDCHAR
STARTCHAR 263B
ENCODING 9787
SWIDTH 1023 0
DWIDTH 27 0
BBX 15 16 6 0
BITMAP
07C0
1FF0
3FF8
7FFC
7FFE
F3DE
F3DE
FFFE
FFFE
FFFE
F7DE
7B9E
7C3C
3FF8
1FF0
07C0
ENDCHAR
STARTCHAR 263C
ENCODING 9788
SWIDTH 909 0
DWIDTH 24 0
BBX 14 16 5 -2
BITMAP
0200
0200
4208
2790
1860
1020
2010
2010
E01C
2010
1020
1860
2790
4208
0200
0200
ENDCHAR
STARTCHAR 2640
ENCODING 9792
SWIDTH 757 0
DWIDTH 20 0
BBX 7 14 6 1
BITMAP
3C
46
82
82
82
46
3C
10
10
10
FE
10
10
10
ENDCHAR
STARTCHAR 2642
ENCODING 9794
SWIDTH 757 0
DWIDTH 20 0
BBX 11 11 4 3
BITMAP
01E0
0060
00A0
0120
3E00
4200
8300
8100
8200
4200
3C00
ENDCHAR
STARTCHAR 2660
ENCODING 9824
SWIDTH 530 0
DWIDTH 14 0
BBX 12 15 1 1
BITMAP
0400
0600
0F00
1F00
3F80
7FC0
7FE0
FFF0
FFF0
FFF0
FDF0
74E0
0600
0E00
3FC0
ENDCHAR
STARTCHAR 2663
ENCODING 9827
SWIDTH 644 0
DWIDTH 17 0
BBX 15 16 1 0
BITMAP
0380
07C0
0FE0
0FE0
0FE0
7FFC
FFFE
FFFE
FFFE
FFFE
FD7E
793C
0100
0380
07C0
3FF8
ENDCHAR
STARTCHAR 2665
ENCODING 9829
SWIDTH 568 0
DWIDTH 15 0
BBX 13 14 1 0
BITMAP
38F0
7DF8
FFF8
FFF8
7FF8
7FF0
3FF0
3FE0
1FC0
0FC0
0F80
0700
0300
0200
ENDCHAR
STARTCHAR 2666
ENCODING 9830
SWIDTH 492 0
DWIDTH 13 0
BBX 11 15 1 0
BITMAP
0400
0E00
0E00
1F00
3F80
7FC0
7FE0
FFE0
7FE0
7FC0
3F80
1F00
0F00
0E00
0400
ENDCHAR
STARTCHAR 266A
ENCODING 9834
SWIDTH 492 0
DWIDTH 13 0
BBX 8 14 2 0
BITMAP
08
08
0C
0E
0B
09
09
09
09
09
39
78
F8
70
ENDCHAR
STARTCHAR 266B
ENCODING 9835
SWIDTH 757 0
DWIDTH 20 0
BBX 13 16 3 -1
BITMAP
0018
01F8
0FC8
0C18
08F8
0FC8
0C08
0808
0808
0808
0878
0878
38F8
7870
F800
7000
ENDCHAR
STARTCHAR F001
ENCODING 61441
SWIDTH 606 0
DWIDTH 16 0
BBX 14 19 0 0
BITMAP
0FBC
1FBC
1FBC
3C00
3C00
FFBC
FFBC
FFBC
3C3C
3C3C
3C3C
3C3C
3C3C
3C3C
3C3C
3C3C
3C3C
3C3C
3C3C
ENDCHAR
STARTCHAR F002
ENCODING 61442
SWIDTH 606 0
DWIDTH 16 0
BBX 14 19 0 0
BITMAP
0FBC
1FBC
1FBC
3C3C
3C3C
FFBC
FFBC
FFBC
3C3C
3C3C
3C3C
3C3C
3C3C
3C3C
3C3C
3C3C
3C3C
3C3C
3C3C
ENDCHAR
STARTCHAR F005
ENCODING 61445
SWIDTH 341 0
DWIDTH 9 0
BBX 5 5 2 -6
BITMAP
70
78
18
F8
F0
ENDCHAR
STARTCHAR FB01
ENCODING 64257
SWIDTH 606 0
DWIDTH 16 0
BBX 14 19 0 0
BITMAP
0FBC
1FBC
1FBC
3C00
3C00
FFBC
FFBC
FFBC
3C3C
3C3C
3C3C
3C3C
3C3C
3C3C
3C3C
3C3C
3C3C
3C3C
3C3C
ENDCHAR
STARTCHAR FB02
ENCODING 64258
SWIDTH 606 0
DWIDTH 16 0
BBX 14 19 0 0
BITMAP
0FBC
1FBC
1FBC
3C3C
3C3C
FFBC
FFBC
FFBC
3C3C
3C3C
3C3C
3C3C
3C3C
3C3C
3C3C
3C3C
3C3C
3C3C
3C3C
ENDCHAR
ENDFONT
